ChironHeiHKVF-weight1000-Master.ufo
<glyph name="cid43008" format="2">
  <advance height="1000" width="603"/>
  <unicode hex="0022"/>
  <outline>
    <contour>
      <point x="134" y="382" type="curve"/>
      <point x="134" y="382"/>
      <point x="245" y="382"/>
      <point x="245" y="382" type="curve"/>
      <point x="245" y="382"/>
      <point x="313" y="595"/>
      <point x="313" y="595" type="curve"/>
      <point x="313" y="595"/>
      <point x="348" y="746"/>
      <point x="348" y="746" type="curve"/>
      <point x="348" y="746"/>
      <point x="180" y="746"/>
      <point x="180" y="746" type="curve"/>
      <point x="180" y="746"/>
      <point x="157" y="595"/>
      <point x="157" y="595" type="curve"/>
      <point x="157" y="595"/>
      <point x="134" y="382"/>
    </contour>
    <contour>
      <point x="397" y="382" type="curve"/>
      <point x="397" y="382"/>
      <point x="507" y="382"/>
      <point x="507" y="382" type="curve"/>
      <point x="507" y="382"/>
      <point x="575" y="595"/>
      <point x="575" y="595" type="curve"/>
      <point x="575" y="595"/>
      <point x="610" y="746"/>
      <point x="610" y="746" type="curve"/>
      <point x="610" y="746"/>
      <point x="442" y="746"/>
      <point x="442" y="746" type="curve"/>
      <point x="442" y="746"/>
      <point x="419" y="595"/>
      <point x="419" y="595" type="curve"/>
      <point x="419" y="595"/>
      <point x="397" y="382"/>
    </contour>
  </outline>
</glyph>
<glyph name="cid43324" format="2">
  <advance height="1000" width="579"/>
  <unicode hex="0023"/>
  <outline>
    <contour>
      <point x="36" y="-11" type="curve"/>
      <point x="36" y="-11"/>
      <point x="137" y="-11"/>
      <point x="137" y="-11" type="curve"/>
      <point x="137" y="-11"/>
      <point x="202" y="197"/>
      <point x="202" y="197" type="curve"/>
      <point x="202" y="197"/>
      <point x="307" y="197"/>
      <point x="307" y="197" type="curve"/>
      <point x="307" y="197"/>
      <point x="241" y="-11"/>
      <point x="241" y="-11" type="curve"/>
      <point x="241" y="-11"/>
      <point x="341" y="-11"/>
      <point x="341" y="-11" type="curve"/>
      <point x="341" y="-11"/>
      <point x="408" y="197"/>
      <point x="408" y="197" type="curve"/>
      <point x="408" y="197"/>
      <point x="501" y="197"/>
      <point x="501" y="197" type="curve"/>
      <point x="501" y="197"/>
      <point x="527" y="308"/>
      <point x="527" y="308" type="curve"/>
      <point x="527" y="308"/>
      <point x="442" y="308"/>
      <point x="442" y="308" type="curve"/>
      <point x="442" y="308"/>
      <point x="480" y="427"/>
      <point x="480" y="427" type="curve"/>
      <point x="480" y="427"/>
      <point x="572" y="427"/>
      <point x="572" y="427" type="curve"/>
      <point x="572" y="427"/>
      <point x="598" y="538"/>
      <point x="598" y="538" type="curve"/>
      <point x="598" y="538"/>
      <point x="514" y="538"/>
      <point x="514" y="538" type="curve"/>
      <point x="514" y="538"/>
      <point x="574" y="724"/>
      <point x="574" y="724" type="curve"/>
      <point x="574" y="724"/>
      <point x="473" y="724"/>
      <point x="473" y="724" type="curve"/>
      <point x="473" y="724"/>
      <point x="415" y="538"/>
      <point x="415" y="538" type="curve"/>
      <point x="415" y="538"/>
      <point x="310" y="538"/>
      <point x="310" y="538" type="curve"/>
      <point x="310" y="538"/>
      <point x="370" y="724"/>
      <point x="370" y="724" type="curve"/>
      <point x="370" y="724"/>
      <point x="269" y="724"/>
      <point x="269" y="724" type="curve"/>
      <point x="269" y="724"/>
      <point x="209" y="538"/>
      <point x="209" y="538" type="curve"/>
      <point x="209" y="538"/>
      <point x="116" y="538"/>
      <point x="116" y="538" type="curve"/>
      <point x="116" y="538"/>
      <point x="90" y="427"/>
      <point x="90" y="427" type="curve"/>
      <point x="90" y="427"/>
      <point x="175" y="427"/>
      <point x="175" y="427" type="curve"/>
      <point x="175" y="427"/>
      <point x="137" y="308"/>
      <point x="137" y="308" type="curve"/>
      <point x="137" y="308"/>
      <point x="45" y="308"/>
      <point x="45" y="308" type="curve"/>
      <point x="45" y="308"/>
      <point x="19" y="197"/>
      <point x="19" y="197" type="curve"/>
      <point x="19" y="197"/>
      <point x="103" y="197"/>
      <point x="103" y="197" type="curve"/>
      <point x="103" y="197"/>
      <point x="36" y="-11"/>
    </contour>
    <contour>
      <point x="237" y="308" type="curve"/>
      <point x="237" y="308"/>
      <point x="275" y="427"/>
      <point x="275" y="427" type="curve"/>
      <point x="275" y="427"/>
      <point x="380" y="427"/>
      <point x="380" y="427" type="curve"/>
      <point x="380" y="427"/>
      <point x="342" y="308"/>
      <point x="342" y="308" type="curve"/>
      <point x="342" y="308"/>
      <point x="237" y="308"/>
    </contour>
  </outline>
</glyph>
<glyph name="cid43601" format="2">
  <advance height="1000" width="582"/>
  <unicode hex="0024"/>
  <outline>
    <contour>
      <point x="253" y="-25" type="curve" smooth="yes"/>
      <point x="410" y="-25"/>
      <point x="513" y="73"/>
      <point x="513" y="208" type="curve" smooth="yes"/>
      <point x="513" y="382"/>
      <point x="287" y="415"/>
      <point x="287" y="514" type="curve" smooth="yes"/>
      <point x="287" y="554"/>
      <point x="315" y="583"/>
      <point x="364" y="583" type="curve" smooth="yes"/>
      <point x="403" y="583"/>
      <point x="445" y="557"/>
      <point x="477" y="520" type="curve"/>
      <point x="477" y="520"/>
      <point x="575" y="614"/>
      <point x="575" y="614" type="curve"/>
      <point x="515" y="683"/>
      <point x="454" y="719"/>
      <point x="368" y="719" type="curve" smooth="yes"/>
      <point x="219" y="719"/>
      <point x="120" y="626"/>
      <point x="120" y="494" type="curve" smooth="yes"/>
      <point x="120" y="330"/>
      <point x="345" y="299"/>
      <point x="345" y="187" type="curve" smooth="yes"/>
      <point x="345" y="140"/>
      <point x="314" y="112"/>
      <point x="257" y="112" type="curve" smooth="yes"/>
      <point x="206" y="112"/>
      <point x="155" y="145"/>
      <point x="119" y="183" type="curve"/>
      <point x="119" y="183"/>
      <point x="23" y="90"/>
      <point x="23" y="90" type="curve"/>
      <point x="82" y="20"/>
      <point x="167" y="-25"/>
    </contour>
    <contour>
      <point x="160" y="-135" type="curve"/>
      <point x="160" y="-135"/>
      <point x="272" y="-135"/>
      <point x="272" y="-135" type="curve"/>
      <point x="272" y="-135"/>
      <point x="310" y="46"/>
      <point x="310" y="46" type="curve"/>
      <point x="310" y="46"/>
      <point x="197" y="46"/>
      <point x="197" y="46" type="curve"/>
      <point x="197" y="46"/>
      <point x="160" y="-135"/>
    </contour>
    <contour>
      <point x="323" y="676" type="curve"/>
      <point x="323" y="676"/>
      <point x="435" y="676"/>
      <point x="435" y="676" type="curve"/>
      <point x="435" y="676"/>
      <point x="467" y="841"/>
      <point x="467" y="841" type="curve"/>
      <point x="467" y="841"/>
      <point x="355" y="841"/>
      <point x="355" y="841" type="curve"/>
      <point x="355" y="841"/>
      <point x="323" y="676"/>
    </contour>
  </outline>
</glyph>
<glyph name="cid41274" format="2">
  <advance height="1000" width="728"/>
  <unicode hex="0026"/>
  <outline>
    <contour>
      <point x="232" y="-25" type="curve" smooth="yes"/>
      <point x="347" y="-25"/>
      <point x="443" y="22"/>
      <point x="523" y="99" type="curve" smooth="yes"/>
      <point x="618" y="190"/>
      <point x="684" y="296"/>
      <point x="736" y="407" type="curve"/>
      <point x="736" y="407"/>
      <point x="582" y="407"/>
      <point x="582" y="407" type="curve"/>
      <point x="545" y="317"/>
      <point x="495" y="241"/>
      <point x="423" y="173" type="curve" smooth="yes"/>
      <point x="370" y="126"/>
      <point x="313" y="103"/>
      <point x="261" y="103" type="curve" smooth="yes"/>
      <point x="209" y="103"/>
      <point x="180" y="135"/>
      <point x="180" y="179" type="curve" smooth="yes"/>
      <point x="180" y="329"/>
      <point x="549" y="366"/>
      <point x="549" y="583" type="curve" smooth="yes"/>
      <point x="549" y="678"/>
      <point x="493" y="738"/>
      <point x="392" y="738" type="curve" smooth="yes"/>
      <point x="261" y="738"/>
      <point x="162" y="638"/>
      <point x="162" y="517" type="curve" smooth="yes"/>
      <point x="162" y="374"/>
      <point x="270" y="191"/>
      <point x="409" y="77" type="curve" smooth="yes"/>
      <point x="471" y="25"/>
      <point x="544" y="-11"/>
      <point x="612" y="-25" type="curve"/>
      <point x="612" y="-25"/>
      <point x="678" y="110"/>
      <point x="678" y="110" type="curve"/>
      <point x="637" y="119"/>
      <point x="579" y="140"/>
      <point x="527" y="179" type="curve" smooth="yes"/>
      <point x="412" y="264"/>
      <point x="302" y="400"/>
      <point x="302" y="521" type="curve" smooth="yes"/>
      <point x="302" y="588"/>
      <point x="340" y="626"/>
      <point x="381" y="626" type="curve" smooth="yes"/>
      <point x="406" y="626"/>
      <point x="418" y="613"/>
      <point x="418" y="587" type="curve" smooth="yes"/>
      <point x="418" y="420"/>
      <point x="16" y="433"/>
      <point x="16" y="162" type="curve" smooth="yes"/>
      <point x="16" y="51"/>
      <point x="95" y="-25"/>
    </contour>
  </outline>
</glyph>
<glyph name="cid43005" format="2">
  <advance height="1000" width="341"/>
  <unicode hex="0027"/>
  <outline>
    <contour>
      <point x="134" y="382" type="curve"/>
      <point x="134" y="382"/>
      <point x="245" y="382"/>
      <point x="245" y="382" type="curve"/>
      <point x="245" y="382"/>
      <point x="313" y="595"/>
      <point x="313" y="595" type="curve"/>
      <point x="313" y="595"/>
      <point x="348" y="746"/>
      <point x="348" y="746" type="curve"/>
      <point x="348" y="746"/>
      <point x="180" y="746"/>
      <point x="180" y="746" type="curve"/>
      <point x="180" y="746"/>
      <point x="157" y="595"/>
      <point x="157" y="595" type="curve"/>
      <point x="157" y="595"/>
      <point x="134" y="382"/>
    </contour>
  </outline>
</glyph>
<glyph name="cid43206" format="2">
  <advance height="1000" width="382"/>
  <unicode hex="0028"/>
  <outline>
    <contour>
      <point x="134" y="-218" type="curve"/>
      <point x="134" y="-218"/>
      <point x="241" y="-174"/>
      <point x="241" y="-174" type="curve"/>
      <point x="212" y="-93"/>
      <point x="197" y="10"/>
      <point x="197" y="129" type="curve" smooth="yes"/>
      <point x="197" y="352"/>
      <point x="267" y="592"/>
      <point x="425" y="761" type="curve"/>
      <point x="425" y="761"/>
      <point x="327" y="818"/>
      <point x="327" y="818" type="curve"/>
      <point x="154" y="646"/>
      <point x="60" y="409"/>
      <point x="60" y="126" type="curve" smooth="yes"/>
      <point x="60" y="-9"/>
      <point x="94" y="-124"/>
    </contour>
  </outline>
</glyph>
<glyph name="cid43226" format="2">
  <advance height="1000" width="504"/>
  <unicode hex="002A"/>
  <outline>
    <contour>
      <point x="194" y="386" type="curve"/>
      <point x="194" y="386"/>
      <point x="295" y="479"/>
      <point x="295" y="479" type="curve"/>
      <point x="295" y="479"/>
      <point x="366" y="372"/>
      <point x="366" y="372" type="curve"/>
      <point x="366" y="372"/>
      <point x="445" y="416"/>
      <point x="445" y="416" type="curve"/>
      <point x="445" y="416"/>
      <point x="402" y="539"/>
      <point x="402" y="539" type="curve"/>
      <point x="402" y="539"/>
      <point x="530" y="583"/>
      <point x="530" y="583" type="curve"/>
      <point x="530" y="583"/>
      <point x="516" y="669"/>
      <point x="516" y="669" type="curve"/>
      <point x="516" y="669"/>
      <point x="385" y="653"/>
      <point x="385" y="653" type="curve"/>
      <point x="385" y="653"/>
      <point x="394" y="789"/>
      <point x="394" y="789" type="curve"/>
      <point x="394" y="789"/>
      <point x="306" y="796"/>
      <point x="306" y="796" type="curve"/>
      <point x="306" y="796"/>
      <point x="269" y="664"/>
      <point x="269" y="664" type="curve"/>
      <point x="269" y="664"/>
      <point x="147" y="702"/>
      <point x="147" y="702" type="curve"/>
      <point x="147" y="702"/>
      <point x="108" y="623"/>
      <point x="108" y="623" type="curve"/>
      <point x="108" y="623"/>
      <point x="218" y="559"/>
      <point x="218" y="559" type="curve"/>
      <point x="218" y="559"/>
      <point x="131" y="446"/>
      <point x="131" y="446" type="curve"/>
      <point x="131" y="446"/>
      <point x="194" y="386"/>
    </contour>
  </outline>
</glyph>
<glyph name="cid43686" format="2">
  <advance height="1000" width="582"/>
  <unicode hex="002B"/>
  <outline>
    <contour>
      <point x="241" y="94" type="curve"/>
      <point x="241" y="94"/>
      <point x="365" y="94"/>
      <point x="365" y="94" type="curve"/>
      <point x="365" y="94"/>
      <point x="365" y="302"/>
      <point x="365" y="302" type="curve"/>
      <point x="365" y="302"/>
      <point x="556" y="302"/>
      <point x="556" y="302" type="curve"/>
      <point x="556" y="302"/>
      <point x="556" y="422"/>
      <point x="556" y="422" type="curve"/>
      <point x="556" y="422"/>
      <point x="367" y="422"/>
      <point x="367" y="422" type="curve"/>
      <point x="367" y="422"/>
      <point x="367" y="629"/>
      <point x="367" y="629" type="curve"/>
      <point x="367" y="629"/>
      <point x="243" y="629"/>
      <point x="243" y="629" type="curve"/>
      <point x="243" y="629"/>
      <point x="243" y="422"/>
      <point x="243" y="422" type="curve"/>
      <point x="243" y="422"/>
      <point x="54" y="422"/>
      <point x="54" y="422" type="curve"/>
      <point x="54" y="422"/>
      <point x="54" y="302"/>
      <point x="54" y="302" type="curve"/>
      <point x="54" y="302"/>
      <point x="241" y="302"/>
      <point x="241" y="302" type="curve"/>
      <point x="241" y="302"/>
      <point x="241" y="94"/>
    </contour>
  </outline>
</glyph>
<glyph name="cid42987" format="2">
  <advance height="1000" width="341"/>
  <unicode hex="002E"/>
  <outline>
    <contour>
      <point x="113" y="-25" type="curve" smooth="yes"/>
      <point x="184" y="-25"/>
      <point x="232" y="36"/>
      <point x="232" y="96" type="curve" smooth="yes"/>
      <point x="232" y="148"/>
      <point x="198" y="187"/>
      <point x="146" y="187" type="curve" smooth="yes"/>
      <point x="75" y="187"/>
      <point x="27" y="125"/>
      <point x="27" y="66" type="curve" smooth="yes"/>
      <point x="27" y="13"/>
      <point x="61" y="-25"/>
    </contour>
  </outline>
</glyph>
<glyph name="cid43220" format="2">
  <advance height="1000" width="368"/>
  <unicode hex="002F"/>
  <outline>
    <contour>
      <point x="-77" y="-192" type="curve"/>
      <point x="-77" y="-192"/>
      <point x="32" y="-192"/>
      <point x="32" y="-192" type="curve"/>
      <point x="32" y="-192"/>
      <point x="438" y="791"/>
      <point x="438" y="791" type="curve"/>
      <point x="438" y="791"/>
      <point x="327" y="791"/>
      <point x="327" y="791" type="curve"/>
      <point x="327" y="791"/>
      <point x="-77" y="-192"/>
    </contour>
  </outline>
</glyph>
<glyph name="cid42856" format="2">
  <advance height="1000" width="582"/>
  <unicode hex="0030"/>
  <outline>
    <contour>
      <point x="250" y="-25" type="curve" smooth="yes"/>
      <point x="402" y="-25"/>
      <point x="568" y="128"/>
      <point x="568" y="457" type="curve" smooth="yes"/>
      <point x="568" y="635"/>
      <point x="479" y="719"/>
      <point x="362" y="719" type="curve" smooth="yes"/>
      <point x="209" y="719"/>
      <point x="42" y="565"/>
      <point x="42" y="235" type="curve" smooth="yes"/>
      <point x="42" y="59"/>
      <point x="133" y="-25"/>
    </contour>
    <contour>
      <point x="261" y="105" type="curve" smooth="yes"/>
      <point x="223" y="105"/>
      <point x="199" y="131"/>
      <point x="199" y="217" type="curve" smooth="yes"/>
      <point x="199" y="431"/>
      <point x="278" y="589"/>
      <point x="351" y="589" type="curve" smooth="yes"/>
      <point x="389" y="589"/>
      <point x="412" y="561"/>
      <point x="412" y="475" type="curve" smooth="yes"/>
      <point x="412" y="261"/>
      <point x="333" y="105"/>
    </contour>
  </outline>
</glyph>
<glyph name="cid42860" format="2">
  <advance height="1000" width="582"/>
  <unicode hex="0032"/>
  <outline>
    <contour>
      <point x="-16" y="-11" type="curve"/>
      <point x="-16" y="-11"/>
      <point x="475" y="-11"/>
      <point x="475" y="-11" type="curve"/>
      <point x="475" y="-11"/>
      <point x="502" y="131"/>
      <point x="502" y="131" type="curve"/>
      <point x="502" y="131"/>
      <point x="373" y="131"/>
      <point x="373" y="131" type="curve"/>
      <point x="340" y="131"/>
      <point x="289" y="127"/>
      <point x="252" y="123" type="curve"/>
      <point x="420" y="265"/>
      <point x="549" y="377"/>
      <point x="549" y="523" type="curve" smooth="yes"/>
      <point x="549" y="641"/>
      <point x="463" y="719"/>
      <point x="324" y="719" type="curve" smooth="yes"/>
      <point x="254" y="719"/>
      <point x="185" y="687"/>
      <point x="115" y="626" type="curve"/>
      <point x="115" y="626"/>
      <point x="192" y="531"/>
      <point x="192" y="531" type="curve"/>
      <point x="233" y="562"/>
      <point x="264" y="586"/>
      <point x="304" y="586" type="curve" smooth="yes"/>
      <point x="355" y="586"/>
      <point x="383" y="553"/>
      <point x="383" y="505" type="curve" smooth="yes"/>
      <point x="383" y="388"/>
      <point x="225" y="262"/>
      <point x="6" y="95" type="curve"/>
      <point x="6" y="95"/>
      <point x="-16" y="-11"/>
    </contour>
  </outline>
</glyph>
<glyph name="cid42865" format="2">
  <advance height="1000" width="582"/>
  <unicode hex="0033"/>
  <outline>
    <contour>
      <point x="233" y="-25" type="curve" smooth="yes"/>
      <point x="392" y="-25"/>
      <point x="514" y="53"/>
      <point x="514" y="199" type="curve" smooth="yes"/>
      <point x="514" y="261"/>
      <point x="481" y="318"/>
      <point x="405" y="349" type="curve"/>
      <point x="405" y="349"/>
      <point x="405" y="354"/>
      <point x="405" y="354" type="curve"/>
      <point x="518" y="392"/>
      <point x="556" y="453"/>
      <point x="556" y="545" type="curve" smooth="yes"/>
      <point x="556" y="650"/>
      <point x="463" y="719"/>
      <point x="332" y="719" type="curve" smooth="yes"/>
      <point x="255" y="719"/>
      <point x="185" y="703"/>
      <point x="111" y="651" type="curve"/>
      <point x="111" y="651"/>
      <point x="192" y="543"/>
      <point x="192" y="543" type="curve"/>
      <point x="237" y="571"/>
      <point x="267" y="586"/>
      <point x="301" y="586" type="curve" smooth="yes"/>
      <point x="351" y="586"/>
      <point x="381" y="559"/>
      <point x="381" y="517" type="curve" smooth="yes"/>
      <point x="381" y="459"/>
      <point x="342" y="414"/>
      <point x="198" y="414" type="curve"/>
      <point x="198" y="414"/>
      <point x="174" y="294"/>
      <point x="174" y="294" type="curve"/>
      <point x="310" y="294"/>
      <point x="345" y="260"/>
      <point x="345" y="201" type="curve" smooth="yes"/>
      <point x="345" y="145"/>
      <point x="301" y="112"/>
      <point x="228" y="112" type="curve" smooth="yes"/>
      <point x="182" y="112"/>
      <point x="125" y="142"/>
      <point x="87" y="194" type="curve"/>
      <point x="87" y="194"/>
      <point x="-19" y="105"/>
      <point x="-19" y="105" type="curve"/>
      <point x="49" y="12"/>
      <point x="145" y="-25"/>
    </contour>
  </outline>
</glyph>
<glyph name="cid42869" format="2">
  <advance height="1000" width="582"/>
  <unicode hex="0035"/>
  <outline>
    <contour>
      <point x="236" y="-25" type="curve" smooth="yes"/>
      <point x="385" y="-25"/>
      <point x="530" y="84"/>
      <point x="530" y="261" type="curve" smooth="yes"/>
      <point x="530" y="386"/>
      <point x="446" y="451"/>
      <point x="338" y="451" type="curve" smooth="yes"/>
      <point x="315" y="451"/>
      <point x="296" y="449"/>
      <point x="276" y="439" type="curve"/>
      <point x="276" y="439"/>
      <point x="310" y="563"/>
      <point x="310" y="563" type="curve"/>
      <point x="310" y="563"/>
      <point x="560" y="563"/>
      <point x="560" y="563" type="curve"/>
      <point x="560" y="563"/>
      <point x="588" y="705"/>
      <point x="588" y="705" type="curve"/>
      <point x="588" y="705"/>
      <point x="191" y="705"/>
      <point x="191" y="705" type="curve"/>
      <point x="191" y="705"/>
      <point x="103" y="345"/>
      <point x="103" y="345" type="curve"/>
      <point x="103" y="345"/>
      <point x="165" y="293"/>
      <point x="165" y="293" type="curve"/>
      <point x="215" y="320"/>
      <point x="232" y="326"/>
      <point x="267" y="326" type="curve" smooth="yes"/>
      <point x="323" y="326"/>
      <point x="357" y="294"/>
      <point x="357" y="234" type="curve" smooth="yes"/>
      <point x="357" y="156"/>
      <point x="302" y="112"/>
      <point x="240" y="112" type="curve" smooth="yes"/>
      <point x="185" y="112"/>
      <point x="140" y="142"/>
      <point x="103" y="192" type="curve"/>
      <point x="103" y="192"/>
      <point x="-5" y="105"/>
      <point x="-5" y="105" type="curve"/>
      <point x="63" y="12"/>
      <point x="149" y="-25"/>
    </contour>
  </outline>
</glyph>
<glyph name="cid42875" format="2">
  <advance height="1000" width="582"/>
  <unicode hex="0037"/>
  <outline>
    <contour>
      <point x="107" y="-11" type="curve"/>
      <point x="107" y="-11"/>
      <point x="283" y="-11"/>
      <point x="283" y="-11" type="curve"/>
      <point x="327" y="179"/>
      <point x="386" y="389"/>
      <point x="606" y="599" type="curve"/>
      <point x="606" y="599"/>
      <point x="627" y="705"/>
      <point x="627" y="705" type="curve"/>
      <point x="627" y="705"/>
      <point x="131" y="705"/>
      <point x="131" y="705" type="curve"/>
      <point x="131" y="705"/>
      <point x="104" y="563"/>
      <point x="104" y="563" type="curve"/>
      <point x="104" y="563"/>
      <point x="410" y="563"/>
      <point x="410" y="563" type="curve"/>
      <point x="261" y="405"/>
      <point x="175" y="222"/>
    </contour>
  </outline>
</glyph>
<glyph name="cid42882" format="2">
  <advance height="1000" width="582"/>
  <unicode hex="0039"/>
  <outline>
    <contour>
      <point x="192" y="-25" type="curve" smooth="yes"/>
      <point x="405" y="-25"/>
      <point x="557" y="168"/>
      <point x="557" y="461" type="curve" smooth="yes"/>
      <point x="557" y="615"/>
      <point x="469" y="719"/>
      <point x="328" y="719" type="curve" smooth="yes"/>
      <point x="176" y="719"/>
      <point x="71" y="582"/>
      <point x="71" y="443" type="curve" smooth="yes"/>
      <point x="71" y="313"/>
      <point x="149" y="256"/>
      <point x="250" y="256" type="curve" smooth="yes"/>
      <point x="288" y="256"/>
      <point x="350" y="281"/>
      <point x="390" y="326" type="curve"/>
      <point x="390" y="326"/>
      <point x="406" y="447"/>
      <point x="406" y="447" type="curve"/>
      <point x="364" y="389"/>
      <point x="325" y="371"/>
      <point x="296" y="371" type="curve" smooth="yes"/>
      <point x="251" y="371"/>
      <point x="226" y="404"/>
      <point x="226" y="458" type="curve" smooth="yes"/>
      <point x="226" y="516"/>
      <point x="257" y="594"/>
      <point x="320" y="594" type="curve" smooth="yes"/>
      <point x="366" y="594"/>
      <point x="400" y="554"/>
      <point x="400" y="478" type="curve" smooth="yes"/>
      <point x="400" y="229"/>
      <point x="308" y="112"/>
      <point x="203" y="112" type="curve" smooth="yes"/>
      <point x="164" y="112"/>
      <point x="138" y="135"/>
      <point x="116" y="165" type="curve"/>
      <point x="116" y="165"/>
      <point x="10" y="76"/>
      <point x="10" y="76" type="curve"/>
      <point x="42" y="32"/>
      <point x="99" y="-25"/>
    </contour>
  </outline>
</glyph>
<glyph name="cid43703" format="2">
  <advance height="1000" width="582"/>
  <unicode hex="003C"/>
  <outline>
    <contour>
      <point x="556" y="104" type="curve"/>
      <point x="556" y="104"/>
      <point x="556" y="246"/>
      <point x="556" y="246" type="curve"/>
      <point x="556" y="246"/>
      <point x="371" y="310"/>
      <point x="371" y="310" type="curve"/>
      <point x="371" y="310"/>
      <point x="225" y="362"/>
      <point x="225" y="362" type="curve"/>
      <point x="225" y="362"/>
      <point x="225" y="366"/>
      <point x="225" y="366" type="curve"/>
      <point x="225" y="366"/>
      <point x="371" y="418"/>
      <point x="371" y="418" type="curve"/>
      <point x="371" y="418"/>
      <point x="556" y="483"/>
      <point x="556" y="483" type="curve"/>
      <point x="556" y="483"/>
      <point x="556" y="622"/>
      <point x="556" y="622" type="curve"/>
      <point x="556" y="622"/>
      <point x="52" y="422"/>
      <point x="52" y="422" type="curve"/>
      <point x="52" y="422"/>
      <point x="52" y="304"/>
      <point x="52" y="304" type="curve"/>
      <point x="52" y="304"/>
      <point x="556" y="104"/>
    </contour>
  </outline>
</glyph>
<glyph name="cid43706" format="2">
  <advance height="1000" width="582"/>
  <unicode hex="003E"/>
  <outline>
    <contour>
      <point x="54" y="104" type="curve"/>
      <point x="54" y="104"/>
      <point x="558" y="304"/>
      <point x="558" y="304" type="curve"/>
      <point x="558" y="304"/>
      <point x="558" y="422"/>
      <point x="558" y="422" type="curve"/>
      <point x="558" y="422"/>
      <point x="54" y="622"/>
      <point x="54" y="622" type="curve"/>
      <point x="54" y="622"/>
      <point x="54" y="483"/>
      <point x="54" y="483" type="curve"/>
      <point x="54" y="483"/>
      <point x="238" y="418"/>
      <point x="238" y="418" type="curve"/>
      <point x="238" y="418"/>
      <point x="385" y="366"/>
      <point x="385" y="366" type="curve"/>
      <point x="385" y="366"/>
      <point x="385" y="362"/>
      <point x="385" y="362" type="curve"/>
      <point x="385" y="362"/>
      <point x="238" y="310"/>
      <point x="238" y="310" type="curve"/>
      <point x="238" y="310"/>
      <point x="54" y="246"/>
      <point x="54" y="246" type="curve"/>
      <point x="54" y="246"/>
      <point x="54" y="104"/>
    </contour>
  </outline>
</glyph>
<glyph name="cid43307" format="2">
  <advance height="1000" width="992"/>
  <unicode hex="0040"/>
  <outline>
    <contour>
      <point x="436" y="-208" type="curve" smooth="yes"/>
      <point x="504" y="-208"/>
      <point x="565" y="-190"/>
      <point x="625" y="-157" type="curve"/>
      <point x="625" y="-157"/>
      <point x="583" y="-71"/>
      <point x="583" y="-71" type="curve"/>
      <point x="544" y="-93"/>
      <point x="492" y="-103"/>
      <point x="451" y="-103" type="curve" smooth="yes"/>
      <point x="312" y="-103"/>
      <point x="165" y="-9"/>
      <point x="165" y="191" type="curve" smooth="yes"/>
      <point x="165" y="450"/>
      <point x="373" y="647"/>
      <point x="557" y="647" type="curve" smooth="yes"/>
      <point x="772" y="647"/>
      <point x="843" y="514"/>
      <point x="843" y="379" type="curve" smooth="yes"/>
      <point x="843" y="218"/>
      <point x="764" y="137"/>
      <point x="706" y="137" type="curve" smooth="yes"/>
      <point x="660" y="137"/>
      <point x="647" y="166"/>
      <point x="661" y="227" type="curve"/>
      <point x="661" y="227"/>
      <point x="720" y="481"/>
      <point x="720" y="481" type="curve"/>
      <point x="720" y="481"/>
      <point x="614" y="481"/>
      <point x="614" y="481" type="curve"/>
      <point x="614" y="481"/>
      <point x="598" y="436"/>
      <point x="598" y="436" type="curve"/>
      <point x="598" y="436"/>
      <point x="594" y="436"/>
      <point x="594" y="436" type="curve"/>
      <point x="579" y="474"/>
      <point x="553" y="491"/>
      <point x="518" y="491" type="curve" smooth="yes"/>
      <point x="391" y="491"/>
      <point x="285" y="352"/>
      <point x="285" y="208" type="curve" smooth="yes"/>
      <point x="285" y="108"/>
      <point x="347" y="41"/>
      <point x="428" y="41" type="curve" smooth="yes"/>
      <point x="475" y="41"/>
      <point x="528" y="70"/>
      <point x="555" y="114" type="curve"/>
      <point x="555" y="114"/>
      <point x="559" y="114"/>
      <point x="559" y="114" type="curve"/>
      <point x="574" y="58"/>
      <point x="622" y="31"/>
      <point x="673" y="31" type="curve" smooth="yes"/>
      <point x="825" y="31"/>
      <point x="953" y="153"/>
      <point x="953" y="397" type="curve" smooth="yes"/>
      <point x="953" y="591"/>
      <point x="815" y="747"/>
      <point x="574" y="747" type="curve" smooth="yes"/>
      <point x="295" y="747"/>
      <point x="46" y="496"/>
      <point x="46" y="172" type="curve" smooth="yes"/>
      <point x="46" y="-82"/>
      <point x="231" y="-208"/>
    </contour>
    <contour>
      <point x="464" y="148" type="curve" smooth="yes"/>
      <point x="431" y="148"/>
      <point x="414" y="174"/>
      <point x="414" y="217" type="curve" smooth="yes"/>
      <point x="414" y="286"/>
      <point x="460" y="381"/>
      <point x="521" y="381" type="curve" smooth="yes"/>
      <point x="542" y="381"/>
      <point x="557" y="372"/>
      <point x="566" y="351" type="curve"/>
      <point x="566" y="351"/>
      <point x="531" y="199"/>
      <point x="531" y="199" type="curve"/>
      <point x="506" y="163"/>
      <point x="486" y="148"/>
    </contour>
  </outline>
</glyph>
<glyph name="cid40008" format="2">
  <advance height="1000" width="628"/>
  <unicode hex="0041"/>
  <outline>
    <contour>
      <point x="-72" y="-11" type="curve"/>
      <point x="-72" y="-11"/>
      <point x="114" y="-11"/>
      <point x="114" y="-11" type="curve"/>
      <point x="114" y="-11"/>
      <point x="296" y="382"/>
      <point x="296" y="382" type="curve"/>
      <point x="329" y="453"/>
      <point x="355" y="522"/>
      <point x="385" y="596" type="curve"/>
      <point x="385" y="596"/>
      <point x="390" y="596"/>
      <point x="390" y="596" type="curve"/>
      <point x="390" y="520"/>
      <point x="393" y="453"/>
      <point x="396" y="382" type="curve"/>
      <point x="396" y="382"/>
      <point x="410" y="-11"/>
      <point x="410" y="-11" type="curve"/>
      <point x="410" y="-11"/>
      <point x="589" y="-11"/>
      <point x="589" y="-11" type="curve"/>
      <point x="589" y="-11"/>
      <point x="518" y="725"/>
      <point x="518" y="725" type="curve"/>
      <point x="518" y="725"/>
      <point x="313" y="725"/>
      <point x="313" y="725" type="curve"/>
      <point x="313" y="725"/>
      <point x="-72" y="-11"/>
    </contour>
    <contour>
      <point x="124" y="163" type="curve"/>
      <point x="124" y="163"/>
      <point x="463" y="163"/>
      <point x="463" y="163" type="curve"/>
      <point x="463" y="163"/>
      <point x="494" y="292"/>
      <point x="494" y="292" type="curve"/>
      <point x="494" y="292"/>
      <point x="154" y="292"/>
      <point x="154" y="292" type="curve"/>
      <point x="154" y="292"/>
      <point x="124" y="163"/>
    </contour>
  </outline>
</glyph>
<glyph name="cid40017" format="2">
  <advance height="1000" width="710"/>
  <unicode hex="0044"/>
  <outline>
    <contour>
      <point x="31" y="-11" type="curve"/>
      <point x="31" y="-11"/>
      <point x="273" y="-11"/>
      <point x="273" y="-11" type="curve"/>
      <point x="496" y="-11"/>
      <point x="680" y="144"/>
      <point x="680" y="426" type="curve" smooth="yes"/>
      <point x="680" y="632"/>
      <point x="547" y="725"/>
      <point x="351" y="725" type="curve"/>
      <point x="351" y="725"/>
      <point x="177" y="725"/>
      <point x="177" y="725" type="curve"/>
      <point x="177" y="725"/>
      <point x="31" y="-11"/>
    </contour>
    <contour>
      <point x="228" y="126" type="curve"/>
      <point x="228" y="126"/>
      <point x="320" y="588"/>
      <point x="320" y="588" type="curve"/>
      <point x="320" y="588"/>
      <point x="347" y="588"/>
      <point x="347" y="588" type="curve"/>
      <point x="429" y="588"/>
      <point x="505" y="543"/>
      <point x="505" y="416" type="curve" smooth="yes"/>
      <point x="505" y="215"/>
      <point x="389" y="126"/>
      <point x="270" y="126" type="curve"/>
      <point x="270" y="126"/>
      <point x="228" y="126"/>
    </contour>
  </outline>
</glyph>
<glyph name="cid40020" format="2">
  <advance height="1000" width="577"/>
  <unicode hex="0046"/>
  <outline>
    <contour>
      <point x="31" y="-11" type="curve"/>
      <point x="31" y="-11"/>
      <point x="201" y="-11"/>
      <point x="201" y="-11" type="curve"/>
      <point x="201" y="-11"/>
      <point x="259" y="276"/>
      <point x="259" y="276" type="curve"/>
      <point x="259" y="276"/>
      <point x="492" y="276"/>
      <point x="492" y="276" type="curve"/>
      <point x="492" y="276"/>
      <point x="520" y="418"/>
      <point x="520" y="418" type="curve"/>
      <point x="520" y="418"/>
      <point x="286" y="418"/>
      <point x="286" y="418" type="curve"/>
      <point x="286" y="418"/>
      <point x="318" y="581"/>
      <point x="318" y="581" type="curve"/>
      <point x="318" y="581"/>
      <point x="593" y="581"/>
      <point x="593" y="581" type="curve"/>
      <point x="593" y="581"/>
      <point x="620" y="725"/>
      <point x="620" y="725" type="curve"/>
      <point x="620" y="725"/>
      <point x="177" y="725"/>
      <point x="177" y="725" type="curve"/>
      <point x="177" y="725"/>
      <point x="31" y="-11"/>
    </contour>
  </outline>
</glyph>
<glyph name="cid40033" format="2">
  <advance height="1000" width="574"/>
  <unicode hex="004C"/>
  <outline>
    <contour>
      <point x="31" y="-11" type="curve"/>
      <point x="31" y="-11"/>
      <point x="472" y="-11"/>
      <point x="472" y="-11" type="curve"/>
      <point x="472" y="-11"/>
      <point x="501" y="131"/>
      <point x="501" y="131" type="curve"/>
      <point x="501" y="131"/>
      <point x="228" y="131"/>
      <point x="228" y="131" type="curve"/>
      <point x="228" y="131"/>
      <point x="348" y="725"/>
      <point x="348" y="725" type="curve"/>
      <point x="348" y="725"/>
      <point x="177" y="725"/>
      <point x="177" y="725" type="curve"/>
      <point x="177" y="725"/>
      <point x="31" y="-11"/>
    </contour>
  </outline>
</glyph>
<glyph name="cid40041" format="2">
  <advance height="1000" width="753"/>
  <unicode hex="0051"/>
  <outline>
    <contour>
      <point x="346" y="-25" type="curve" smooth="yes"/>
      <point x="541" y="-25"/>
      <point x="723" y="159"/>
      <point x="723" y="426" type="curve" smooth="yes"/>
      <point x="723" y="624"/>
      <point x="610" y="738"/>
      <point x="442" y="738" type="curve" smooth="yes"/>
      <point x="245" y="738"/>
      <point x="63" y="555"/>
      <point x="63" y="287" type="curve" smooth="yes"/>
      <point x="63" y="90"/>
      <point x="176" y="-25"/>
    </contour>
    <contour>
      <point x="354" y="116" type="curve" smooth="yes"/>
      <point x="280" y="116"/>
      <point x="238" y="179"/>
      <point x="238" y="297" type="curve" smooth="yes"/>
      <point x="238" y="468"/>
      <point x="340" y="591"/>
      <point x="433" y="591" type="curve" smooth="yes"/>
      <point x="506" y="591"/>
      <point x="548" y="526"/>
      <point x="548" y="415" type="curve" smooth="yes"/>
      <point x="548" y="236"/>
      <point x="446" y="116"/>
    </contour>
    <contour>
      <point x="544" y="-220" type="curve" smooth="yes"/>
      <point x="586" y="-220"/>
      <point x="631" y="-212"/>
      <point x="657" y="-199" type="curve"/>
      <point x="657" y="-199"/>
      <point x="629" y="-73"/>
      <point x="629" y="-73" type="curve"/>
      <point x="607" y="-80"/>
      <point x="589" y="-83"/>
      <point x="563" y="-83" type="curve" smooth="yes"/>
      <point x="498" y="-83"/>
      <point x="415" y="-53"/>
      <point x="396" y="23" type="curve"/>
      <point x="396" y="23"/>
      <point x="223" y="23"/>
      <point x="223" y="23" type="curve"/>
      <point x="276" y="-143"/>
      <point x="394" y="-220"/>
    </contour>
  </outline>
</glyph>
<glyph name="cid40046" format="2">
  <advance height="1000" width="607"/>
  <unicode hex="0054"/>
  <outline>
    <contour>
      <point x="164" y="-11" type="curve"/>
      <point x="164" y="-11"/>
      <point x="333" y="-11"/>
      <point x="333" y="-11" type="curve"/>
      <point x="333" y="-11"/>
      <point x="451" y="581"/>
      <point x="451" y="581" type="curve"/>
      <point x="451" y="581"/>
      <point x="640" y="581"/>
      <point x="640" y="581" type="curve"/>
      <point x="640" y="581"/>
      <point x="668" y="725"/>
      <point x="668" y="725" type="curve"/>
      <point x="668" y="725"/>
      <point x="120" y="725"/>
      <point x="120" y="725" type="curve"/>
      <point x="120" y="725"/>
      <point x="92" y="581"/>
      <point x="92" y="581" type="curve"/>
      <point x="92" y="581"/>
      <point x="280" y="581"/>
      <point x="280" y="581" type="curve"/>
      <point x="280" y="581"/>
      <point x="164" y="-11"/>
    </contour>
  </outline>
</glyph>
<glyph name="cid40050" format="2">
  <advance height="1000" width="641"/>
  <unicode hex="0056"/>
  <outline>
    <contour>
      <point x="150" y="-11" type="curve"/>
      <point x="150" y="-11"/>
      <point x="356" y="-11"/>
      <point x="356" y="-11" type="curve"/>
      <point x="356" y="-11"/>
      <point x="735" y="725"/>
      <point x="735" y="725" type="curve"/>
      <point x="735" y="725"/>
      <point x="548" y="725"/>
      <point x="548" y="725" type="curve"/>
      <point x="548" y="725"/>
      <point x="392" y="373"/>
      <point x="392" y="373" type="curve"/>
      <point x="359" y="295"/>
      <point x="327" y="217"/>
      <point x="293" y="139" type="curve"/>
      <point x="293" y="139"/>
      <point x="288" y="139"/>
      <point x="288" y="139" type="curve"/>
      <point x="288" y="217"/>
      <point x="286" y="296"/>
      <point x="283" y="373" type="curve"/>
      <point x="283" y="373"/>
      <point x="267" y="725"/>
      <point x="267" y="725" type="curve"/>
      <point x="267" y="725"/>
      <point x="88" y="725"/>
      <point x="88" y="725" type="curve"/>
      <point x="88" y="725"/>
      <point x="150" y="-11"/>
    </contour>
  </outline>
</glyph>
<glyph name="cid40051" format="2">
  <advance height="1000" width="906"/>
  <unicode hex="0057"/>
  <outline>
    <contour>
      <point x="87" y="-11" type="curve"/>
      <point x="87" y="-11"/>
      <point x="298" y="-11"/>
      <point x="298" y="-11" type="curve"/>
      <point x="298" y="-11"/>
      <point x="432" y="319"/>
      <point x="432" y="319" type="curve"/>
      <point x="452" y="372"/>
      <point x="476" y="440"/>
      <point x="496" y="500" type="curve"/>
      <point x="496" y="500"/>
      <point x="501" y="500"/>
      <point x="501" y="500" type="curve"/>
      <point x="494" y="438"/>
      <point x="490" y="371"/>
      <point x="488" y="319" type="curve"/>
      <point x="488" y="319"/>
      <point x="481" y="-11"/>
      <point x="481" y="-11" type="curve"/>
      <point x="481" y="-11"/>
      <point x="693" y="-11"/>
      <point x="693" y="-11" type="curve"/>
      <point x="693" y="-11"/>
      <point x="972" y="725"/>
      <point x="972" y="725" type="curve"/>
      <point x="972" y="725"/>
      <point x="809" y="725"/>
      <point x="809" y="725" type="curve"/>
      <point x="809" y="725"/>
      <point x="693" y="383"/>
      <point x="693" y="383" type="curve"/>
      <point x="669" y="308"/>
      <point x="640" y="227"/>
      <point x="615" y="147" type="curve"/>
      <point x="615" y="147"/>
      <point x="610" y="147"/>
      <point x="610" y="147" type="curve"/>
      <point x="614" y="227"/>
      <point x="619" y="309"/>
      <point x="620" y="383" type="curve"/>
      <point x="620" y="383"/>
      <point x="619" y="725"/>
      <point x="619" y="725" type="curve"/>
      <point x="619" y="725"/>
      <point x="475" y="725"/>
      <point x="475" y="725" type="curve"/>
      <point x="475" y="725"/>
      <point x="331" y="383"/>
      <point x="331" y="383" type="curve"/>
      <point x="303" y="308"/>
      <point x="268" y="226"/>
      <point x="238" y="147" type="curve"/>
      <point x="238" y="147"/>
      <point x="234" y="147"/>
      <point x="234" y="147" type="curve"/>
      <point x="244" y="226"/>
      <point x="252" y="307"/>
      <point x="260" y="383" type="curve"/>
      <point x="260" y="383"/>
      <point x="286" y="725"/>
      <point x="286" y="725" type="curve"/>
      <point x="286" y="725"/>
      <point x="112" y="725"/>
      <point x="112" y="725" type="curve"/>
      <point x="112" y="725"/>
      <point x="87" y="-11"/>
    </contour>
  </outline>
</glyph>
<glyph name="cid40056" format="2">
  <advance height="1000" width="597"/>
  <unicode hex="005A"/>
  <outline>
    <contour>
      <point x="-6" y="-11" type="curve"/>
      <point x="-6" y="-11"/>
      <point x="507" y="-11"/>
      <point x="507" y="-11" type="curve"/>
      <point x="507" y="-11"/>
      <point x="537" y="131"/>
      <point x="537" y="131" type="curve"/>
      <point x="537" y="131"/>
      <point x="231" y="131"/>
      <point x="231" y="131" type="curve"/>
      <point x="231" y="131"/>
      <point x="611" y="622"/>
      <point x="611" y="622" type="curve"/>
      <point x="611" y="622"/>
      <point x="633" y="725"/>
      <point x="633" y="725" type="curve"/>
      <point x="633" y="725"/>
      <point x="149" y="725"/>
      <point x="149" y="725" type="curve"/>
      <point x="149" y="725"/>
      <point x="121" y="581"/>
      <point x="121" y="581" type="curve"/>
      <point x="121" y="581"/>
      <point x="400" y="581"/>
      <point x="400" y="581" type="curve"/>
      <point x="400" y="581"/>
      <point x="15" y="91"/>
      <point x="15" y="91" type="curve"/>
      <point x="15" y="91"/>
      <point x="-6" y="-11"/>
    </contour>
  </outline>
</glyph>
<glyph name="cid43208" format="2">
  <advance height="1000" width="382"/>
  <unicode hex="005B"/>
  <outline>
    <contour>
      <point x="-7" y="-183" type="curve"/>
      <point x="-7" y="-183"/>
      <point x="227" y="-183"/>
      <point x="227" y="-183" type="curve"/>
      <point x="227" y="-183"/>
      <point x="246" y="-92"/>
      <point x="246" y="-92" type="curve"/>
      <point x="246" y="-92"/>
      <point x="138" y="-92"/>
      <point x="138" y="-92" type="curve"/>
      <point x="138" y="-92"/>
      <point x="296" y="699"/>
      <point x="296" y="699" type="curve"/>
      <point x="296" y="699"/>
      <point x="405" y="699"/>
      <point x="405" y="699" type="curve"/>
      <point x="405" y="699"/>
      <point x="421" y="789"/>
      <point x="421" y="789" type="curve"/>
      <point x="421" y="789"/>
      <point x="188" y="789"/>
      <point x="188" y="789" type="curve"/>
      <point x="188" y="789"/>
      <point x="-7" y="-183"/>
    </contour>
  </outline>
</glyph>
<glyph name="cid43222" format="2">
  <advance height="1000" width="368"/>
  <unicode hex="005C"/>
  <outline>
    <contour>
      <point x="171" y="-192" type="curve"/>
      <point x="171" y="-192"/>
      <point x="281" y="-192"/>
      <point x="281" y="-192" type="curve"/>
      <point x="281" y="-192"/>
      <point x="205" y="791"/>
      <point x="205" y="791" type="curve"/>
      <point x="205" y="791"/>
      <point x="95" y="791"/>
      <point x="95" y="791" type="curve"/>
      <point x="95" y="791"/>
      <point x="171" y="-192"/>
    </contour>
  </outline>
</glyph>
<glyph name="cid43212" format="2">
  <advance height="1000" width="382"/>
  <unicode hex="005D"/>
  <outline>
    <contour>
      <point x="-28" y="-183" type="curve"/>
      <point x="-28" y="-183"/>
      <point x="206" y="-183"/>
      <point x="206" y="-183" type="curve"/>
      <point x="206" y="-183"/>
      <point x="400" y="789"/>
      <point x="400" y="789" type="curve"/>
      <point x="400" y="789"/>
      <point x="166" y="789"/>
      <point x="166" y="789" type="curve"/>
      <point x="166" y="789"/>
      <point x="149" y="699"/>
      <point x="149" y="699" type="curve"/>
      <point x="149" y="699"/>
      <point x="255" y="699"/>
      <point x="255" y="699" type="curve"/>
      <point x="255" y="699"/>
      <point x="97" y="-92"/>
      <point x="97" y="-92" type="curve"/>
      <point x="97" y="-92"/>
      <point x="-9" y="-92"/>
      <point x="-9" y="-92" type="curve"/>
      <point x="-9" y="-92"/>
      <point x="-28" y="-183"/>
    </contour>
  </outline>
</glyph>
<glyph name="cid43715" format="2">
  <advance height="1000" width="579"/>
  <unicode hex="005E"/>
  <outline>
    <contour>
      <point x="79" y="297" type="curve"/>
      <point x="79" y="297"/>
      <point x="217" y="297"/>
      <point x="217" y="297" type="curve"/>
      <point x="217" y="297"/>
      <point x="263" y="439"/>
      <point x="263" y="439" type="curve"/>
      <point x="263" y="439"/>
      <point x="314" y="592"/>
      <point x="314" y="592" type="curve"/>
      <point x="314" y="592"/>
      <point x="319" y="592"/>
      <point x="319" y="592" type="curve"/>
      <point x="319" y="592"/>
      <point x="366" y="439"/>
      <point x="366" y="439" type="curve"/>
      <point x="366" y="439"/>
      <point x="412" y="297"/>
      <point x="412" y="297" type="curve"/>
      <point x="412" y="297"/>
      <point x="551" y="297"/>
      <point x="551" y="297" type="curve"/>
      <point x="551" y="297"/>
      <point x="382" y="746"/>
      <point x="382" y="746" type="curve"/>
      <point x="382" y="746"/>
      <point x="247" y="746"/>
      <point x="247" y="746" type="curve"/>
      <point x="247" y="746"/>
      <point x="79" y="297"/>
    </contour>
  </outline>
</glyph>
<glyph name="cid43194" format="2">
  <advance height="1000" width="542"/>
  <unicode hex="005F"/>
  <outline>
    <contour>
      <point x="-56" y="-171" type="curve"/>
      <point x="-56" y="-171"/>
      <point x="459" y="-171"/>
      <point x="459" y="-171" type="curve"/>
      <point x="459" y="-171"/>
      <point x="478" y="-77"/>
      <point x="478" y="-77" type="curve"/>
      <point x="478" y="-77"/>
      <point x="-37" y="-77"/>
      <point x="-37" y="-77" type="curve"/>
      <point x="-37" y="-77"/>
      <point x="-56" y="-171"/>
    </contour>
  </outline>
</glyph>
<glyph name="cid43929" format="2">
  <advance height="1000" width="607"/>
  <unicode hex="0060"/>
  <outline>
    <contour>
      <point x="336" y="633" type="curve"/>
      <point x="336" y="633"/>
      <point x="463" y="633"/>
      <point x="463" y="633" type="curve"/>
      <point x="463" y="633"/>
      <point x="381" y="844"/>
      <point x="381" y="844" type="curve"/>
      <point x="381" y="844"/>
      <point x="200" y="844"/>
      <point x="200" y="844" type="curve"/>
      <point x="200" y="844"/>
      <point x="189" y="825"/>
      <point x="189" y="825" type="curve"/>
      <point x="189" y="825"/>
      <point x="336" y="633"/>
    </contour>
  </outline>
</glyph>
<glyph name="cid40058" format="2">
  <advance height="1000" width="628"/>
  <unicode hex="0061"/>
  <outline>
    <contour>
      <point x="191" y="-25" type="curve" smooth="yes"/>
      <point x="247" y="-25"/>
      <point x="313" y="8"/>
      <point x="363" y="60" type="curve"/>
      <point x="363" y="60"/>
      <point x="366" y="60"/>
      <point x="366" y="60" type="curve"/>
      <point x="366" y="60"/>
      <point x="365" y="-11"/>
      <point x="365" y="-11" type="curve"/>
      <point x="365" y="-11"/>
      <point x="503" y="-11"/>
      <point x="503" y="-11" type="curve"/>
      <point x="503" y="-11"/>
      <point x="616" y="552"/>
      <point x="616" y="552" type="curve"/>
      <point x="616" y="552"/>
      <point x="479" y="552"/>
      <point x="479" y="552" type="curve"/>
      <point x="479" y="552"/>
      <point x="455" y="494"/>
      <point x="455" y="494" type="curve"/>
      <point x="455" y="494"/>
      <point x="452" y="494"/>
      <point x="452" y="494" type="curve"/>
      <point x="432" y="538"/>
      <point x="382" y="565"/>
      <point x="333" y="565" type="curve" smooth="yes"/>
      <point x="177" y="565"/>
      <point x="33" y="397"/>
      <point x="33" y="182" type="curve" smooth="yes"/>
      <point x="33" y="50"/>
      <point x="93" y="-25"/>
    </contour>
    <contour>
      <point x="267" y="114" type="curve" smooth="yes"/>
      <point x="232" y="114"/>
      <point x="209" y="142"/>
      <point x="209" y="204" type="curve" smooth="yes"/>
      <point x="209" y="334"/>
      <point x="275" y="427"/>
      <point x="346" y="427" type="curve" smooth="yes"/>
      <point x="368" y="427"/>
      <point x="397" y="413"/>
      <point x="412" y="380" type="curve"/>
      <point x="412" y="380"/>
      <point x="375" y="192"/>
      <point x="375" y="192" type="curve"/>
      <point x="342" y="130"/>
      <point x="299" y="114"/>
    </contour>
  </outline>
</glyph>
<glyph name="cid40059" format="2">
  <advance height="1000" width="629"/>
  <unicode hex="0062"/>
  <outline>
    <contour>
      <point x="295" y="-25" type="curve" smooth="yes"/>
      <point x="450" y="-25"/>
      <point x="594" y="145"/>
      <point x="594" y="359" type="curve" smooth="yes"/>
      <point x="594" y="492"/>
      <point x="536" y="565"/>
      <point x="436" y="565" type="curve" smooth="yes"/>
      <point x="383" y="565"/>
      <point x="328" y="542"/>
      <point x="279" y="502" type="curve"/>
      <point x="279" y="502"/>
      <point x="277" y="502"/>
      <point x="277" y="502" type="curve"/>
      <point x="277" y="502"/>
      <point x="305" y="607"/>
      <point x="305" y="607" type="curve"/>
      <point x="305" y="607"/>
      <point x="340" y="778"/>
      <point x="340" y="778" type="curve"/>
      <point x="340" y="778"/>
      <point x="171" y="778"/>
      <point x="171" y="778" type="curve"/>
      <point x="171" y="778"/>
      <point x="12" y="-11"/>
      <point x="12" y="-11" type="curve"/>
      <point x="12" y="-11"/>
      <point x="153" y="-11"/>
      <point x="153" y="-11" type="curve"/>
      <point x="153" y="-11"/>
      <point x="177" y="47"/>
      <point x="177" y="47" type="curve"/>
      <point x="177" y="47"/>
      <point x="180" y="47"/>
      <point x="180" y="47" type="curve"/>
      <point x="200" y="4"/>
      <point x="245" y="-25"/>
    </contour>
    <contour>
      <point x="283" y="114" type="curve" smooth="yes"/>
      <point x="258" y="114"/>
      <point x="231" y="129"/>
      <point x="217" y="161" type="curve"/>
      <point x="217" y="161"/>
      <point x="258" y="361"/>
      <point x="258" y="361" type="curve"/>
      <point x="287" y="412"/>
      <point x="329" y="427"/>
      <point x="360" y="427" type="curve" smooth="yes"/>
      <point x="396" y="427"/>
      <point x="418" y="400"/>
      <point x="418" y="337" type="curve" smooth="yes"/>
      <point x="418" y="208"/>
      <point x="353" y="114"/>
    </contour>
  </outline>
</glyph>
<glyph name="cid40061" format="2">
  <advance height="1000" width="503"/>
  <unicode hex="0063"/>
  <outline>
    <contour>
      <point x="254" y="-25" type="curve" smooth="yes"/>
      <point x="341" y="-25"/>
      <point x="398" y="5"/>
      <point x="444" y="49" type="curve"/>
      <point x="444" y="49"/>
      <point x="374" y="145"/>
      <point x="374" y="145" type="curve"/>
      <point x="353" y="128"/>
      <point x="328" y="112"/>
      <point x="292" y="112" type="curve" smooth="yes"/>
      <point x="236" y="112"/>
      <point x="206" y="151"/>
      <point x="206" y="212" type="curve" smooth="yes"/>
      <point x="206" y="329"/>
      <point x="273" y="430"/>
      <point x="356" y="430" type="curve" smooth="yes"/>
      <point x="386" y="430"/>
      <point x="406" y="417"/>
      <point x="427" y="398" type="curve"/>
      <point x="427" y="398"/>
      <point x="519" y="496"/>
      <point x="519" y="496" type="curve"/>
      <point x="492" y="530"/>
      <point x="437" y="565"/>
      <point x="364" y="565" type="curve" smooth="yes"/>
      <point x="175" y="565"/>
      <point x="31" y="400"/>
      <point x="31" y="209" type="curve" smooth="yes"/>
      <point x="31" y="60"/>
      <point x="129" y="-25"/>
    </contour>
  </outline>
</glyph>
<glyph name="cid40072" format="2">
  <advance height="1000" width="308"/>
  <unicode hex="006A"/>
  <outline>
    <contour>
      <point x="-36" y="-227" type="curve" smooth="yes"/>
      <point x="97" y="-227"/>
      <point x="158" y="-133"/>
      <point x="183" y="-17" type="curve"/>
      <point x="183" y="-17"/>
      <point x="297" y="552"/>
      <point x="297" y="552" type="curve"/>
      <point x="297" y="552"/>
      <point x="127" y="552"/>
      <point x="127" y="552" type="curve"/>
      <point x="127" y="552"/>
      <point x="15" y="-9"/>
      <point x="15" y="-9" type="curve"/>
      <point x="1" y="-69"/>
      <point x="-14" y="-93"/>
      <point x="-51" y="-93" type="curve" smooth="yes"/>
      <point x="-69" y="-93"/>
      <point x="-85" y="-89"/>
      <point x="-101" y="-82" type="curve"/>
      <point x="-101" y="-82"/>
      <point x="-146" y="-201"/>
      <point x="-146" y="-201" type="curve"/>
      <point x="-113" y="-220"/>
      <point x="-75" y="-227"/>
    </contour>
    <contour>
      <point x="235" y="630" type="curve" smooth="yes"/>
      <point x="293" y="630"/>
      <point x="339" y="670"/>
      <point x="339" y="727" type="curve" smooth="yes"/>
      <point x="339" y="779"/>
      <point x="294" y="807"/>
      <point x="249" y="807" type="curve" smooth="yes"/>
      <point x="190" y="807"/>
      <point x="145" y="762"/>
      <point x="145" y="709" type="curve" smooth="yes"/>
      <point x="145" y="656"/>
      <point x="190" y="630"/>
    </contour>
  </outline>
</glyph>
<glyph name="cid40073" format="2">
  <advance height="1000" width="606"/>
  <unicode hex="006B"/>
  <outline>
    <contour>
      <point x="12" y="-11" type="curve"/>
      <point x="12" y="-11"/>
      <point x="182" y="-11"/>
      <point x="182" y="-11" type="curve"/>
      <point x="182" y="-11"/>
      <point x="209" y="123"/>
      <point x="209" y="123" type="curve"/>
      <point x="209" y="123"/>
      <point x="292" y="206"/>
      <point x="292" y="206" type="curve"/>
      <point x="292" y="206"/>
      <point x="372" y="-11"/>
      <point x="372" y="-11" type="curve"/>
      <point x="372" y="-11"/>
      <point x="542" y="-11"/>
      <point x="542" y="-11" type="curve"/>
      <point x="542" y="-11"/>
      <point x="409" y="304"/>
      <point x="409" y="304" type="curve"/>
      <point x="409" y="304"/>
      <point x="640" y="552"/>
      <point x="640" y="552" type="curve"/>
      <point x="640" y="552"/>
      <point x="453" y="552"/>
      <point x="453" y="552" type="curve"/>
      <point x="453" y="552"/>
      <point x="257" y="339"/>
      <point x="257" y="339" type="curve"/>
      <point x="257" y="339"/>
      <point x="252" y="339"/>
      <point x="252" y="339" type="curve"/>
      <point x="252" y="339"/>
      <point x="340" y="778"/>
      <point x="340" y="778" type="curve"/>
      <point x="340" y="778"/>
      <point x="171" y="778"/>
      <point x="171" y="778" type="curve"/>
      <point x="171" y="778"/>
      <point x="12" y="-11"/>
    </contour>
  </outline>
</glyph>
<glyph name="cid40081" format="2">
  <advance height="1000" width="605"/>
  <unicode hex="006F"/>
  <outline>
    <contour>
      <point x="253" y="-25" type="curve" smooth="yes"/>
      <point x="409" y="-25"/>
      <point x="572" y="114"/>
      <point x="572" y="333" type="curve" smooth="yes"/>
      <point x="572" y="473"/>
      <point x="483" y="565"/>
      <point x="349" y="565" type="curve" smooth="yes"/>
      <point x="194" y="565"/>
      <point x="31" y="426"/>
      <point x="31" y="209" type="curve" smooth="yes"/>
      <point x="31" y="69"/>
      <point x="120" y="-25"/>
    </contour>
    <contour>
      <point x="272" y="112" type="curve" smooth="yes"/>
      <point x="226" y="112"/>
      <point x="203" y="151"/>
      <point x="203" y="212" type="curve" smooth="yes"/>
      <point x="203" y="337"/>
      <point x="261" y="430"/>
      <point x="330" y="430" type="curve" smooth="yes"/>
      <point x="376" y="430"/>
      <point x="400" y="391"/>
      <point x="400" y="330" type="curve" smooth="yes"/>
      <point x="400" y="204"/>
      <point x="342" y="112"/>
    </contour>
  </outline>
</glyph>
<glyph name="cid40092" format="2">
  <advance height="1000" width="576"/>
  <unicode hex="0076"/>
  <outline>
    <contour>
      <point x="137" y="-11" type="curve"/>
      <point x="137" y="-11"/>
      <point x="333" y="-11"/>
      <point x="333" y="-11" type="curve"/>
      <point x="333" y="-11"/>
      <point x="617" y="552"/>
      <point x="617" y="552" type="curve"/>
      <point x="617" y="552"/>
      <point x="451" y="552"/>
      <point x="451" y="552" type="curve"/>
      <point x="451" y="552"/>
      <point x="334" y="287"/>
      <point x="334" y="287" type="curve"/>
      <point x="308" y="230"/>
      <point x="286" y="173"/>
      <point x="261" y="114" type="curve"/>
      <point x="261" y="114"/>
      <point x="257" y="114"/>
      <point x="257" y="114" type="curve"/>
      <point x="255" y="174"/>
      <point x="255" y="232"/>
      <point x="252" y="287" type="curve"/>
      <point x="252" y="287"/>
      <point x="237" y="552"/>
      <point x="237" y="552" type="curve"/>
      <point x="237" y="552"/>
      <point x="68" y="552"/>
      <point x="68" y="552" type="curve"/>
      <point x="68" y="552"/>
      <point x="137" y="-11"/>
    </contour>
  </outline>
</glyph>
<glyph name="cid40094" format="2">
  <advance height="1000" width="857"/>
  <unicode hex="0077"/>
  <outline>
    <contour>
      <point x="107" y="-11" type="curve"/>
      <point x="107" y="-11"/>
      <point x="304" y="-11"/>
      <point x="304" y="-11" type="curve"/>
      <point x="304" y="-11"/>
      <point x="390" y="208"/>
      <point x="390" y="208" type="curve"/>
      <point x="412" y="267"/>
      <point x="428" y="319"/>
      <point x="449" y="386" type="curve"/>
      <point x="449" y="386"/>
      <point x="453" y="386"/>
      <point x="453" y="386" type="curve"/>
      <point x="450" y="319"/>
      <point x="446" y="265"/>
      <point x="446" y="208" type="curve"/>
      <point x="446" y="208"/>
      <point x="447" y="-11"/>
      <point x="447" y="-11" type="curve"/>
      <point x="447" y="-11"/>
      <point x="644" y="-11"/>
      <point x="644" y="-11" type="curve"/>
      <point x="644" y="-11"/>
      <point x="880" y="553"/>
      <point x="880" y="553" type="curve"/>
      <point x="880" y="553"/>
      <point x="722" y="553"/>
      <point x="722" y="553" type="curve"/>
      <point x="722" y="553"/>
      <point x="628" y="293"/>
      <point x="628" y="293" type="curve"/>
      <point x="608" y="238"/>
      <point x="590" y="181"/>
      <point x="570" y="123" type="curve"/>
      <point x="570" y="123"/>
      <point x="565" y="123"/>
      <point x="565" y="123" type="curve"/>
      <point x="565" y="183"/>
      <point x="567" y="238"/>
      <point x="567" y="293" type="curve"/>
      <point x="567" y="293"/>
      <point x="557" y="553"/>
      <point x="557" y="553" type="curve"/>
      <point x="557" y="553"/>
      <point x="407" y="553"/>
      <point x="407" y="553" type="curve"/>
      <point x="407" y="553"/>
      <point x="303" y="293"/>
      <point x="303" y="293" type="curve"/>
      <point x="280" y="238"/>
      <point x="262" y="181"/>
      <point x="242" y="123" type="curve"/>
      <point x="242" y="123"/>
      <point x="237" y="123"/>
      <point x="237" y="123" type="curve"/>
      <point x="242" y="181"/>
      <point x="247" y="238"/>
      <point x="247" y="293" type="curve"/>
      <point x="247" y="293"/>
      <point x="247" y="553"/>
      <point x="247" y="553" type="curve"/>
      <point x="247" y="553"/>
      <point x="81" y="553"/>
      <point x="81" y="553" type="curve"/>
      <point x="81" y="553"/>
      <point x="107" y="-11"/>
    </contour>
  </outline>
</glyph>
<glyph name="cid40096" format="2">
  <advance height="1000" width="570"/>
  <unicode hex="0078"/>
  <outline>
    <contour>
      <point x="-44" y="-11" type="curve"/>
      <point x="-44" y="-11"/>
      <point x="138" y="-11"/>
      <point x="138" y="-11" type="curve"/>
      <point x="138" y="-11"/>
      <point x="197" y="79"/>
      <point x="197" y="79" type="curve"/>
      <point x="217" y="113"/>
      <point x="237" y="146"/>
      <point x="257" y="178" type="curve"/>
      <point x="257" y="178"/>
      <point x="261" y="178"/>
      <point x="261" y="178" type="curve"/>
      <point x="271" y="146"/>
      <point x="281" y="111"/>
      <point x="292" y="79" type="curve"/>
      <point x="292" y="79"/>
      <point x="323" y="-11"/>
      <point x="323" y="-11" type="curve"/>
      <point x="323" y="-11"/>
      <point x="497" y="-11"/>
      <point x="497" y="-11" type="curve"/>
      <point x="497" y="-11"/>
      <point x="394" y="252"/>
      <point x="394" y="252" type="curve"/>
      <point x="394" y="252"/>
      <point x="612" y="552"/>
      <point x="612" y="552" type="curve"/>
      <point x="612" y="552"/>
      <point x="432" y="552"/>
      <point x="432" y="552" type="curve"/>
      <point x="432" y="552"/>
      <point x="383" y="460"/>
      <point x="383" y="460" type="curve"/>
      <point x="366" y="429"/>
      <point x="346" y="397"/>
      <point x="328" y="365" type="curve"/>
      <point x="328" y="365"/>
      <point x="323" y="365"/>
      <point x="323" y="365" type="curve"/>
      <point x="315" y="397"/>
      <point x="306" y="429"/>
      <point x="297" y="460" type="curve"/>
      <point x="297" y="460"/>
      <point x="267" y="552"/>
      <point x="267" y="552" type="curve"/>
      <point x="267" y="552"/>
      <point x="95" y="552"/>
      <point x="95" y="552" type="curve"/>
      <point x="95" y="552"/>
      <point x="191" y="291"/>
      <point x="191" y="291" type="curve"/>
      <point x="191" y="291"/>
      <point x="-44" y="-11"/>
    </contour>
  </outline>
</glyph>
<glyph name="cid43216" format="2">
  <advance height="1000" width="384"/>
  <unicode hex="007D"/>
  <outline>
    <contour>
      <point x="-38" y="-183" type="curve"/>
      <point x="-38" y="-183"/>
      <point x="37" y="-183"/>
      <point x="37" y="-183" type="curve"/>
      <point x="139" y="-183"/>
      <point x="181" y="-143"/>
      <point x="206" y="-19" type="curve" smooth="yes"/>
      <point x="221" y="59"/>
      <point x="218" y="97"/>
      <point x="232" y="168" type="curve" smooth="yes"/>
      <point x="240" y="206"/>
      <point x="268" y="252"/>
      <point x="342" y="253" type="curve"/>
      <point x="342" y="253"/>
      <point x="364" y="353"/>
      <point x="364" y="353" type="curve"/>
      <point x="303" y="354"/>
      <point x="285" y="386"/>
      <point x="285" y="420" type="curve" smooth="yes"/>
      <point x="285" y="472"/>
      <point x="342" y="599"/>
      <point x="342" y="688" type="curve" smooth="yes"/>
      <point x="342" y="754"/>
      <point x="313" y="789"/>
      <point x="231" y="789" type="curve"/>
      <point x="231" y="789"/>
      <point x="157" y="789"/>
      <point x="157" y="789" type="curve"/>
      <point x="157" y="789"/>
      <point x="139" y="699"/>
      <point x="139" y="699" type="curve"/>
      <point x="139" y="699"/>
      <point x="156" y="699"/>
      <point x="156" y="699" type="curve"/>
      <point x="192" y="699"/>
      <point x="201" y="688"/>
      <point x="201" y="659" type="curve" smooth="yes"/>
      <point x="201" y="597"/>
      <point x="150" y="467"/>
      <point x="150" y="391" type="curve" smooth="yes"/>
      <point x="150" y="342"/>
      <point x="173" y="320"/>
      <point x="218" y="310" type="curve"/>
      <point x="218" y="310"/>
      <point x="217" y="305"/>
      <point x="217" y="305" type="curve"/>
      <point x="156" y="292"/>
      <point x="120" y="256"/>
      <point x="102" y="166" type="curve" smooth="yes"/>
      <point x="89" y="101"/>
      <point x="82" y="46"/>
      <point x="71" y="-13" type="curve" smooth="yes"/>
      <point x="59" y="-73"/>
      <point x="44" y="-92"/>
      <point x="0" y="-92" type="curve"/>
      <point x="0" y="-92"/>
      <point x="-19" y="-92"/>
      <point x="-19" y="-92" type="curve"/>
      <point x="-19" y="-92"/>
      <point x="-38" y="-183"/>
    </contour>
  </outline>
</glyph>
<glyph name="cid43719" format="2">
  <advance height="1000" width="582"/>
  <unicode hex="007E"/>
  <outline>
    <contour>
      <point x="389" y="262" type="curve" smooth="yes"/>
      <point x="444" y="262"/>
      <point x="506" y="294"/>
      <point x="557" y="382" type="curve"/>
      <point x="557" y="382"/>
      <point x="471" y="440"/>
      <point x="471" y="440" type="curve"/>
      <point x="450" y="398"/>
      <point x="425" y="378"/>
      <point x="396" y="378" type="curve" smooth="yes"/>
      <point x="337" y="378"/>
      <point x="295" y="464"/>
      <point x="209" y="464" type="curve" smooth="yes"/>
      <point x="154" y="464"/>
      <point x="93" y="432"/>
      <point x="42" y="344" type="curve"/>
      <point x="42" y="344"/>
      <point x="128" y="286"/>
      <point x="128" y="286" type="curve"/>
      <point x="148" y="328"/>
      <point x="173" y="348"/>
      <point x="203" y="348" type="curve" smooth="yes"/>
      <point x="262" y="348"/>
      <point x="304" y="262"/>
    </contour>
  </outline>
</glyph>
<glyph name="cid42998" format="2">
  <advance height="1000" width="386"/>
  <unicode hex="00A1"/>
  <outline>
    <contour>
      <point x="19" y="-205" type="curve"/>
      <point x="19" y="-205"/>
      <point x="189" y="-205"/>
      <point x="189" y="-205" type="curve"/>
      <point x="189" y="-205"/>
      <point x="258" y="288"/>
      <point x="258" y="288" type="curve"/>
      <point x="258" y="288"/>
      <point x="147" y="288"/>
      <point x="147" y="288" type="curve"/>
      <point x="147" y="288"/>
      <point x="53" y="-53"/>
      <point x="53" y="-53" type="curve"/>
      <point x="53" y="-53"/>
      <point x="19" y="-205"/>
    </contour>
    <contour>
      <point x="220" y="354" type="curve" smooth="yes"/>
      <point x="292" y="354"/>
      <point x="339" y="417"/>
      <point x="339" y="475" type="curve" smooth="yes"/>
      <point x="339" y="529"/>
      <point x="305" y="565"/>
      <point x="253" y="565" type="curve" smooth="yes"/>
      <point x="182" y="565"/>
      <point x="134" y="505"/>
      <point x="134" y="444" type="curve" smooth="yes"/>
      <point x="134" y="392"/>
      <point x="168" y="354"/>
    </contour>
  </outline>
</glyph>
<glyph name="cid43602" format="2">
  <advance height="1000" width="582"/>
  <unicode hex="00A3"/>
  <outline>
    <contour>
      <point x="7" y="-11" type="curve"/>
      <point x="7" y="-11"/>
      <point x="503" y="-11"/>
      <point x="503" y="-11" type="curve"/>
      <point x="503" y="-11"/>
      <point x="529" y="131"/>
      <point x="529" y="131" type="curve"/>
      <point x="529" y="131"/>
      <point x="269" y="131"/>
      <point x="269" y="131" type="curve"/>
      <point x="269" y="131"/>
      <point x="269" y="136"/>
      <point x="269" y="136" type="curve"/>
      <point x="316" y="191"/>
      <point x="337" y="244"/>
      <point x="337" y="321" type="curve" smooth="yes"/>
      <point x="337" y="355"/>
      <point x="327" y="396"/>
      <point x="327" y="429" type="curve" smooth="yes"/>
      <point x="327" y="537"/>
      <point x="376" y="583"/>
      <point x="434" y="583" type="curve" smooth="yes"/>
      <point x="469" y="583"/>
      <point x="499" y="566"/>
      <point x="524" y="534" type="curve"/>
      <point x="524" y="534"/>
      <point x="620" y="623"/>
      <point x="620" y="623" type="curve"/>
      <point x="581" y="683"/>
      <point x="516" y="719"/>
      <point x="442" y="719" type="curve" smooth="yes"/>
      <point x="290" y="719"/>
      <point x="170" y="613"/>
      <point x="170" y="452" type="curve" smooth="yes"/>
      <point x="170" y="407"/>
      <point x="183" y="347"/>
      <point x="183" y="302" type="curve" smooth="yes"/>
      <point x="183" y="206"/>
      <point x="122" y="134"/>
      <point x="28" y="93" type="curve"/>
      <point x="28" y="93"/>
      <point x="7" y="-11"/>
    </contour>
    <contour>
      <point x="75" y="287" type="curve"/>
      <point x="75" y="287"/>
      <point x="469" y="287"/>
      <point x="469" y="287" type="curve"/>
      <point x="469" y="287"/>
      <point x="492" y="409"/>
      <point x="492" y="409" type="curve"/>
      <point x="492" y="409"/>
      <point x="181" y="409"/>
      <point x="181" y="409" type="curve"/>
      <point x="181" y="409"/>
      <point x="96" y="403"/>
      <point x="96" y="403" type="curve"/>
      <point x="96" y="403"/>
      <point x="75" y="287"/>
    </contour>
  </outline>
</glyph>
<glyph name="cid43597" format="2">
  <advance height="1000" width="582"/>
  <unicode hex="00A4"/>
  <outline>
    <contour>
      <point x="80" y="90" type="curve"/>
      <point x="80" y="90"/>
      <point x="162" y="160"/>
      <point x="162" y="160" type="curve"/>
      <point x="192" y="143"/>
      <point x="229" y="135"/>
      <point x="270" y="135" type="curve" smooth="yes"/>
      <point x="312" y="135"/>
      <point x="355" y="144"/>
      <point x="393" y="163" type="curve"/>
      <point x="393" y="163"/>
      <point x="453" y="90"/>
      <point x="453" y="90" type="curve"/>
      <point x="453" y="90"/>
      <point x="542" y="166"/>
      <point x="542" y="166" type="curve"/>
      <point x="542" y="166"/>
      <point x="488" y="232"/>
      <point x="488" y="232" type="curve"/>
      <point x="528" y="275"/>
      <point x="553" y="334"/>
      <point x="553" y="400" type="curve" smooth="yes"/>
      <point x="553" y="432"/>
      <point x="546" y="459"/>
      <point x="534" y="484" type="curve"/>
      <point x="534" y="484"/>
      <point x="608" y="547"/>
      <point x="608" y="547" type="curve"/>
      <point x="608" y="547"/>
      <point x="536" y="632"/>
      <point x="536" y="632" type="curve"/>
      <point x="536" y="632"/>
      <point x="455" y="563"/>
      <point x="455" y="563" type="curve"/>
      <point x="424" y="579"/>
      <point x="385" y="589"/>
      <point x="344" y="589" type="curve" smooth="yes"/>
      <point x="302" y="589"/>
      <point x="260" y="579"/>
      <point x="221" y="561" type="curve"/>
      <point x="221" y="561"/>
      <point x="164" y="632"/>
      <point x="164" y="632" type="curve"/>
      <point x="164" y="632"/>
      <point x="75" y="555"/>
      <point x="75" y="555" type="curve"/>
      <point x="75" y="555"/>
      <point x="125" y="493"/>
      <point x="125" y="493" type="curve"/>
      <point x="86" y="448"/>
      <point x="61" y="391"/>
      <point x="61" y="323" type="curve" smooth="yes"/>
      <point x="61" y="292"/>
      <point x="68" y="262"/>
      <point x="79" y="238" type="curve"/>
      <point x="79" y="238"/>
      <point x="8" y="175"/>
      <point x="8" y="175" type="curve"/>
      <point x="8" y="175"/>
      <point x="80" y="90"/>
    </contour>
    <contour>
      <point x="289" y="255" type="curve" smooth="yes"/>
      <point x="244" y="255"/>
      <point x="216" y="285"/>
      <point x="216" y="336" type="curve" smooth="yes"/>
      <point x="216" y="414"/>
      <point x="269" y="469"/>
      <point x="324" y="469" type="curve" smooth="yes"/>
      <point x="370" y="469"/>
      <point x="398" y="441"/>
      <point x="398" y="388" type="curve" smooth="yes"/>
      <point x="398" y="310"/>
      <point x="345" y="255"/>
    </contour>
  </outline>
</glyph>
<glyph name="cid43231" format="2">
  <advance height="1000" width="579"/>
  <unicode hex="00A7"/>
  <outline>
    <contour>
      <point x="402" y="128" type="curve"/>
      <point x="490" y="166"/>
      <point x="547" y="226"/>
      <point x="547" y="319" type="curve" smooth="yes"/>
      <point x="547" y="486"/>
      <point x="305" y="528"/>
      <point x="305" y="597" type="curve" smooth="yes"/>
      <point x="305" y="626"/>
      <point x="328" y="642"/>
      <point x="357" y="642" type="curve" smooth="yes"/>
      <point x="400" y="642"/>
      <point x="440" y="613"/>
      <point x="469" y="585" type="curve"/>
      <point x="469" y="585"/>
      <point x="555" y="678"/>
      <point x="555" y="678" type="curve"/>
      <point x="499" y="736"/>
      <point x="428" y="770"/>
      <point x="357" y="770" type="curve" smooth="yes"/>
      <point x="234" y="770"/>
      <point x="151" y="688"/>
      <point x="151" y="579" type="curve" smooth="yes"/>
      <point x="151" y="420"/>
      <point x="400" y="392"/>
      <point x="400" y="300" type="curve" smooth="yes"/>
      <point x="400" y="248"/>
      <point x="367" y="223"/>
      <point x="318" y="210" type="curve"/>
      <point x="318" y="210"/>
      <point x="402" y="128"/>
    </contour>
    <contour>
      <point x="219" y="-107" type="curve" smooth="yes"/>
      <point x="353" y="-107"/>
      <point x="441" y="-30"/>
      <point x="441" y="86" type="curve" smooth="yes"/>
      <point x="441" y="247"/>
      <point x="198" y="269"/>
      <point x="198" y="364" type="curve" smooth="yes"/>
      <point x="198" y="415"/>
      <point x="240" y="441"/>
      <point x="283" y="451" type="curve"/>
      <point x="283" y="451"/>
      <point x="211" y="527"/>
      <point x="211" y="527" type="curve"/>
      <point x="123" y="500"/>
      <point x="53" y="435"/>
      <point x="53" y="344" type="curve" smooth="yes"/>
      <point x="53" y="171"/>
      <point x="288" y="140"/>
      <point x="288" y="67" type="curve" smooth="yes"/>
      <point x="288" y="38"/>
      <point x="267" y="20"/>
      <point x="228" y="20" type="curve" smooth="yes"/>
      <point x="174" y="20"/>
      <point x="118" y="59"/>
      <point x="81" y="95" type="curve"/>
      <point x="81" y="95"/>
      <point x="-2" y="-9"/>
      <point x="-2" y="-9" type="curve"/>
      <point x="60" y="-71"/>
      <point x="146" y="-107"/>
    </contour>
  </outline>
</glyph>
<glyph name="cid43940" format="2">
  <advance height="1000" width="607"/>
  <unicode hex="00A8"/>
  <outline>
    <contour>
      <point x="258" y="632" type="curve" smooth="yes"/>
      <point x="310" y="632"/>
      <point x="349" y="670"/>
      <point x="349" y="720" type="curve" smooth="yes"/>
      <point x="349" y="765"/>
      <point x="318" y="792"/>
      <point x="278" y="792" type="curve" smooth="yes"/>
      <point x="226" y="792"/>
      <point x="186" y="749"/>
      <point x="186" y="703" type="curve" smooth="yes"/>
      <point x="186" y="657"/>
      <point x="218" y="632"/>
    </contour>
    <contour>
      <point x="503" y="632" type="curve" smooth="yes"/>
      <point x="554" y="632"/>
      <point x="593" y="670"/>
      <point x="593" y="720" type="curve" smooth="yes"/>
      <point x="593" y="765"/>
      <point x="562" y="792"/>
      <point x="522" y="792" type="curve" smooth="yes"/>
      <point x="470" y="792"/>
      <point x="431" y="749"/>
      <point x="431" y="703" type="curve" smooth="yes"/>
      <point x="431" y="657"/>
      <point x="462" y="632"/>
    </contour>
  </outline>
</glyph>
<glyph name="cid43285" format="2">
  <advance height="1000" width="511"/>
  <unicode hex="00AE"/>
  <outline>
    <contour>
      <point x="293" y="339" type="curve" smooth="yes"/>
      <point x="434" y="339"/>
      <point x="531" y="465"/>
      <point x="531" y="596" type="curve" smooth="yes"/>
      <point x="529" y="712"/>
      <point x="437" y="797"/>
      <point x="331" y="797" type="curve" smooth="yes"/>
      <point x="189" y="797"/>
      <point x="94" y="672"/>
      <point x="94" y="540" type="curve" smooth="yes"/>
      <point x="94" y="424"/>
      <point x="185" y="339"/>
    </contour>
    <contour>
      <point x="297" y="396" type="curve" smooth="yes"/>
      <point x="210" y="396"/>
      <point x="155" y="461"/>
      <point x="155" y="545" type="curve" smooth="yes"/>
      <point x="155" y="650"/>
      <point x="225" y="740"/>
      <point x="327" y="740" type="curve" smooth="yes"/>
      <point x="414" y="740"/>
      <point x="470" y="675"/>
      <point x="470" y="591" type="curve" smooth="yes"/>
      <point x="470" y="486"/>
      <point x="399" y="396"/>
    </contour>
    <contour>
      <point x="202" y="459" type="curve"/>
      <point x="202" y="459"/>
      <point x="267" y="459"/>
      <point x="267" y="459" type="curve"/>
      <point x="267" y="459"/>
      <point x="281" y="526"/>
      <point x="281" y="526" type="curve"/>
      <point x="281" y="526"/>
      <point x="310" y="526"/>
      <point x="310" y="526" type="curve"/>
      <point x="310" y="526"/>
      <point x="328" y="459"/>
      <point x="328" y="459" type="curve"/>
      <point x="328" y="459"/>
      <point x="393" y="459"/>
      <point x="393" y="459" type="curve"/>
      <point x="393" y="459"/>
      <point x="366" y="542"/>
      <point x="366" y="542" type="curve"/>
      <point x="401" y="555"/>
      <point x="420" y="585"/>
      <point x="420" y="614" type="curve" smooth="yes"/>
      <point x="420" y="655"/>
      <point x="389" y="679"/>
      <point x="344" y="679" type="curve"/>
      <point x="344" y="679"/>
      <point x="247" y="679"/>
      <point x="247" y="679" type="curve"/>
      <point x="247" y="679"/>
      <point x="202" y="459"/>
    </contour>
    <contour>
      <point x="289" y="572" type="curve"/>
      <point x="289" y="572"/>
      <point x="302" y="631"/>
      <point x="302" y="631" type="curve"/>
      <point x="302" y="631"/>
      <point x="321" y="631"/>
      <point x="321" y="631" type="curve"/>
      <point x="341" y="631"/>
      <point x="349" y="622"/>
      <point x="349" y="607" type="curve" smooth="yes"/>
      <point x="349" y="588"/>
      <point x="334" y="572"/>
      <point x="306" y="572" type="curve"/>
      <point x="306" y="572"/>
      <point x="289" y="572"/>
    </contour>
  </outline>
</glyph>
<glyph name="cid43751" format="2">
  <advance height="1000" width="402"/>
  <unicode hex="00B0"/>
  <outline>
    <contour>
      <point x="251" y="438" type="curve" smooth="yes"/>
      <point x="345" y="438"/>
      <point x="428" y="518"/>
      <point x="428" y="617" type="curve" smooth="yes"/>
      <point x="428" y="707"/>
      <point x="368" y="764"/>
      <point x="283" y="764" type="curve" smooth="yes"/>
      <point x="189" y="764"/>
      <point x="105" y="684"/>
      <point x="105" y="583" type="curve" smooth="yes"/>
      <point x="105" y="495"/>
      <point x="165" y="438"/>
    </contour>
    <contour>
      <point x="258" y="519" type="curve" smooth="yes"/>
      <point x="216" y="519"/>
      <point x="195" y="548"/>
      <point x="195" y="583" type="curve" smooth="yes"/>
      <point x="195" y="636"/>
      <point x="227" y="683"/>
      <point x="276" y="683" type="curve" smooth="yes"/>
      <point x="316" y="683"/>
      <point x="338" y="652"/>
      <point x="338" y="617" type="curve" smooth="yes"/>
      <point x="338" y="565"/>
      <point x="306" y="519"/>
    </contour>
  </outline>
</glyph>
<glyph name="cid43713" format="2">
  <advance height="1000" width="582"/>
  <unicode hex="00B1"/>
  <outline>
    <contour>
      <point x="241" y="170" type="curve"/>
      <point x="241" y="170"/>
      <point x="365" y="170"/>
      <point x="365" y="170" type="curve"/>
      <point x="365" y="170"/>
      <point x="365" y="340"/>
      <point x="365" y="340" type="curve"/>
      <point x="365" y="340"/>
      <point x="556" y="340"/>
      <point x="556" y="340" type="curve"/>
      <point x="556" y="340"/>
      <point x="556" y="459"/>
      <point x="556" y="459" type="curve"/>
      <point x="556" y="459"/>
      <point x="367" y="459"/>
      <point x="367" y="459" type="curve"/>
      <point x="367" y="459"/>
      <point x="367" y="629"/>
      <point x="367" y="629" type="curve"/>
      <point x="367" y="629"/>
      <point x="243" y="629"/>
      <point x="243" y="629" type="curve"/>
      <point x="243" y="629"/>
      <point x="243" y="459"/>
      <point x="243" y="459" type="curve"/>
      <point x="243" y="459"/>
      <point x="54" y="459"/>
      <point x="54" y="459" type="curve"/>
      <point x="54" y="459"/>
      <point x="54" y="340"/>
      <point x="54" y="340" type="curve"/>
      <point x="54" y="340"/>
      <point x="241" y="340"/>
      <point x="241" y="340" type="curve"/>
      <point x="241" y="340"/>
      <point x="241" y="170"/>
    </contour>
    <contour>
      <point x="54" y="-11" type="curve"/>
      <point x="54" y="-11"/>
      <point x="556" y="-11"/>
      <point x="556" y="-11" type="curve"/>
      <point x="556" y="-11"/>
      <point x="556" y="109"/>
      <point x="556" y="109" type="curve"/>
      <point x="556" y="109"/>
      <point x="54" y="109"/>
      <point x="54" y="109" type="curve"/>
      <point x="54" y="109"/>
      <point x="54" y="-11"/>
    </contour>
  </outline>
</glyph>
<glyph name="cid43330" format="2">
  <advance height="1000" width="414"/>
  <unicode hex="00B2"/>
  <outline>
    <contour>
      <point x="68" y="408" type="curve"/>
      <point x="68" y="408"/>
      <point x="385" y="408"/>
      <point x="385" y="408" type="curve"/>
      <point x="385" y="408"/>
      <point x="407" y="513"/>
      <point x="407" y="513" type="curve"/>
      <point x="407" y="513"/>
      <point x="286" y="513"/>
      <point x="286" y="513" type="curve"/>
      <point x="374" y="587"/>
      <point x="435" y="655"/>
      <point x="435" y="733" type="curve" smooth="yes"/>
      <point x="435" y="813"/>
      <point x="377" y="862"/>
      <point x="284" y="862" type="curve" smooth="yes"/>
      <point x="221" y="862"/>
      <point x="180" y="837"/>
      <point x="128" y="790" type="curve"/>
      <point x="128" y="790"/>
      <point x="195" y="718"/>
      <point x="195" y="718" type="curve"/>
      <point x="219" y="739"/>
      <point x="238" y="755"/>
      <point x="260" y="755" type="curve" smooth="yes"/>
      <point x="294" y="755"/>
      <point x="311" y="737"/>
      <point x="311" y="710" type="curve" smooth="yes"/>
      <point x="311" y="648"/>
      <point x="232" y="572"/>
      <point x="80" y="475" type="curve"/>
      <point x="80" y="475"/>
      <point x="68" y="408"/>
    </contour>
  </outline>
</glyph>
<glyph name="cid43332" format="2">
  <advance height="1000" width="410"/>
  <unicode hex="00B3"/>
  <outline>
    <contour>
      <point x="241" y="395" type="curve" smooth="yes"/>
      <point x="337" y="395"/>
      <point x="416" y="447"/>
      <point x="416" y="537" type="curve" smooth="yes"/>
      <point x="416" y="575"/>
      <point x="392" y="609"/>
      <point x="353" y="632" type="curve"/>
      <point x="415" y="657"/>
      <point x="441" y="695"/>
      <point x="441" y="752" type="curve" smooth="yes"/>
      <point x="441" y="817"/>
      <point x="383" y="862"/>
      <point x="301" y="862" type="curve" smooth="yes"/>
      <point x="246" y="862"/>
      <point x="203" y="853"/>
      <point x="150" y="822" type="curve"/>
      <point x="150" y="822"/>
      <point x="202" y="740"/>
      <point x="202" y="740" type="curve"/>
      <point x="232" y="761"/>
      <point x="247" y="766"/>
      <point x="272" y="766" type="curve" smooth="yes"/>
      <point x="299" y="766"/>
      <point x="316" y="752"/>
      <point x="316" y="730" type="curve" smooth="yes"/>
      <point x="316" y="700"/>
      <point x="299" y="670"/>
      <point x="219" y="670" type="curve"/>
      <point x="219" y="670"/>
      <point x="203" y="596"/>
      <point x="203" y="596" type="curve"/>
      <point x="279" y="596"/>
      <point x="296" y="575"/>
      <point x="296" y="543" type="curve" smooth="yes"/>
      <point x="296" y="517"/>
      <point x="271" y="493"/>
      <point x="229" y="493" type="curve" smooth="yes"/>
      <point x="197" y="493"/>
      <point x="172" y="510"/>
      <point x="151" y="543" type="curve"/>
      <point x="151" y="543"/>
      <point x="71" y="485"/>
      <point x="71" y="485" type="curve"/>
      <point x="105" y="432"/>
      <point x="158" y="395"/>
    </contour>
  </outline>
</glyph>
<glyph name="cid43232" format="2">
  <advance height="1000" width="705"/>
  <unicode hex="00B6"/>
  <outline>
    <contour>
      <point x="359" y="-101" type="curve"/>
      <point x="359" y="-101"/>
      <point x="529" y="-101"/>
      <point x="529" y="-101" type="curve"/>
      <point x="529" y="-101"/>
      <point x="692" y="725"/>
      <point x="692" y="725" type="curve"/>
      <point x="692" y="725"/>
      <point x="522" y="725"/>
      <point x="522" y="725" type="curve"/>
      <point x="522" y="725"/>
      <point x="359" y="-101"/>
    </contour>
    <contour>
      <point x="320" y="208" type="curve"/>
      <point x="320" y="208"/>
      <point x="358" y="208"/>
      <point x="358" y="208" type="curve"/>
      <point x="358" y="208"/>
      <point x="461" y="725"/>
      <point x="461" y="725" type="curve"/>
      <point x="461" y="725"/>
      <point x="414" y="725"/>
      <point x="414" y="725" type="curve"/>
      <point x="237" y="725"/>
      <point x="78" y="634"/>
      <point x="78" y="417" type="curve" smooth="yes"/>
      <point x="78" y="283"/>
      <point x="191" y="208"/>
    </contour>
  </outline>
</glyph>
<glyph name="cid43155" format="2">
  <advance height="1000" width="341"/>
  <unicode hex="00B7"/>
  <outline>
    <contour>
      <point x="171" y="252" type="curve" smooth="yes"/>
      <point x="242" y="252"/>
      <point x="289" y="313"/>
      <point x="289" y="373" type="curve" smooth="yes"/>
      <point x="289" y="425"/>
      <point x="255" y="464"/>
      <point x="203" y="464" type="curve" smooth="yes"/>
      <point x="132" y="464"/>
      <point x="85" y="401"/>
      <point x="85" y="343" type="curve" smooth="yes"/>
      <point x="85" y="290"/>
      <point x="119" y="252"/>
    </contour>
  </outline>
</glyph>
<glyph name="cid43952" format="2">
  <advance height="1000" width="607"/>
  <unicode hex="00B8"/>
  <outline>
    <contour>
      <point x="81" y="-284" type="curve"/>
      <point x="229" y="-280"/>
      <point x="320" y="-244"/>
      <point x="334" y="-164" type="curve" smooth="yes"/>
      <point x="341" y="-117"/>
      <point x="318" y="-93"/>
      <point x="261" y="-80" type="curve"/>
      <point x="261" y="-80"/>
      <point x="306" y="-6"/>
      <point x="306" y="-6" type="curve"/>
      <point x="306" y="-6"/>
      <point x="201" y="-6"/>
      <point x="201" y="-6" type="curve"/>
      <point x="201" y="-6"/>
      <point x="125" y="-118"/>
      <point x="125" y="-118" type="curve"/>
      <point x="192" y="-127"/>
      <point x="207" y="-143"/>
      <point x="205" y="-165" type="curve"/>
      <point x="198" y="-196"/>
      <point x="167" y="-209"/>
      <point x="81" y="-213" type="curve"/>
      <point x="81" y="-213"/>
      <point x="81" y="-284"/>
    </contour>
  </outline>
</glyph>
<glyph name="cid43458" format="2">
  <advance height="1000" width="407"/>
  <unicode hex="00BA"/>
  <outline>
    <contour>
      <point x="238" y="399" type="curve" smooth="yes"/>
      <point x="346" y="399"/>
      <point x="452" y="492"/>
      <point x="452" y="635" type="curve" smooth="yes"/>
      <point x="452" y="734"/>
      <point x="385" y="791"/>
      <point x="301" y="791" type="curve" smooth="yes"/>
      <point x="193" y="791"/>
      <point x="87" y="699"/>
      <point x="87" y="555" type="curve" smooth="yes"/>
      <point x="87" y="457"/>
      <point x="154" y="399"/>
    </contour>
    <contour>
      <point x="250" y="493" type="curve" smooth="yes"/>
      <point x="219" y="493"/>
      <point x="207" y="518"/>
      <point x="207" y="556" type="curve" smooth="yes"/>
      <point x="207" y="635"/>
      <point x="240" y="696"/>
      <point x="289" y="696" type="curve" smooth="yes"/>
      <point x="320" y="696"/>
      <point x="332" y="673"/>
      <point x="332" y="634" type="curve" smooth="yes"/>
      <point x="332" y="555"/>
      <point x="299" y="493"/>
    </contour>
  </outline>
</glyph>
<glyph name="cid43133" format="2">
  <advance height="1000" width="533"/>
  <unicode hex="00BB"/>
  <outline>
    <contour>
      <point x="82" y="51" type="curve"/>
      <point x="82" y="51"/>
      <point x="255" y="207"/>
      <point x="255" y="207" type="curve"/>
      <point x="255" y="207"/>
      <point x="277" y="327"/>
      <point x="277" y="327" type="curve"/>
      <point x="277" y="327"/>
      <point x="159" y="494"/>
      <point x="159" y="494" type="curve"/>
      <point x="159" y="494"/>
      <point x="93" y="451"/>
      <point x="93" y="451" type="curve"/>
      <point x="93" y="451"/>
      <point x="180" y="278"/>
      <point x="180" y="278" type="curve"/>
      <point x="180" y="278"/>
      <point x="31" y="108"/>
      <point x="31" y="108" type="curve"/>
      <point x="31" y="108"/>
      <point x="82" y="51"/>
    </contour>
    <contour>
      <point x="303" y="51" type="curve"/>
      <point x="303" y="51"/>
      <point x="476" y="207"/>
      <point x="476" y="207" type="curve"/>
      <point x="476" y="207"/>
      <point x="497" y="327"/>
      <point x="497" y="327" type="curve"/>
      <point x="497" y="327"/>
      <point x="380" y="494"/>
      <point x="380" y="494" type="curve"/>
      <point x="380" y="494"/>
      <point x="313" y="451"/>
      <point x="313" y="451" type="curve"/>
      <point x="313" y="451"/>
      <point x="400" y="278"/>
      <point x="400" y="278" type="curve"/>
      <point x="400" y="278"/>
      <point x="251" y="108"/>
      <point x="251" y="108" type="curve"/>
      <point x="251" y="108"/>
      <point x="303" y="51"/>
    </contour>
  </outline>
</glyph>
<glyph name="cid43651" format="2">
  <advance height="1000" width="885"/>
  <unicode hex="00BC"/>
  <outline>
    <contour>
      <point x="148" y="294" type="curve"/>
      <point x="148" y="294"/>
      <point x="275" y="294"/>
      <point x="275" y="294" type="curve"/>
      <point x="275" y="294"/>
      <point x="360" y="735"/>
      <point x="360" y="735" type="curve"/>
      <point x="360" y="735"/>
      <point x="264" y="735"/>
      <point x="264" y="735" type="curve"/>
      <point x="223" y="708"/>
      <point x="193" y="695"/>
      <point x="130" y="686" type="curve"/>
      <point x="130" y="686"/>
      <point x="115" y="608"/>
      <point x="115" y="608" type="curve"/>
      <point x="115" y="608"/>
      <point x="212" y="608"/>
      <point x="212" y="608" type="curve"/>
      <point x="212" y="608"/>
      <point x="148" y="294"/>
    </contour>
    <contour>
      <point x="140" y="-25" type="curve"/>
      <point x="140" y="-25"/>
      <point x="236" y="-25"/>
      <point x="236" y="-25" type="curve"/>
      <point x="236" y="-25"/>
      <point x="770" y="748"/>
      <point x="770" y="748" type="curve"/>
      <point x="770" y="748"/>
      <point x="672" y="748"/>
      <point x="672" y="748" type="curve"/>
      <point x="672" y="748"/>
      <point x="140" y="-25"/>
    </contour>
    <contour>
      <point x="651" y="-11" type="curve"/>
      <point x="651" y="-11"/>
      <point x="757" y="-11"/>
      <point x="757" y="-11" type="curve"/>
      <point x="757" y="-11"/>
      <point x="844" y="430"/>
      <point x="844" y="430" type="curve"/>
      <point x="844" y="430"/>
      <point x="689" y="430"/>
      <point x="689" y="430" type="curve"/>
      <point x="689" y="430"/>
      <point x="473" y="149"/>
      <point x="473" y="149" type="curve"/>
      <point x="473" y="149"/>
      <point x="460" y="85"/>
      <point x="460" y="85" type="curve"/>
      <point x="460" y="85"/>
      <point x="840" y="85"/>
      <point x="840" y="85" type="curve"/>
      <point x="840" y="85"/>
      <point x="857" y="166"/>
      <point x="857" y="166" type="curve"/>
      <point x="857" y="166"/>
      <point x="588" y="166"/>
      <point x="588" y="166" type="curve"/>
      <point x="588" y="166"/>
      <point x="657" y="256"/>
      <point x="657" y="256" type="curve"/>
      <point x="657" y="256"/>
      <point x="723" y="352"/>
      <point x="723" y="352" type="curve"/>
      <point x="723" y="352"/>
      <point x="728" y="352"/>
      <point x="728" y="352" type="curve"/>
      <point x="728" y="352"/>
      <point x="696" y="214"/>
      <point x="696" y="214" type="curve"/>
      <point x="696" y="214"/>
      <point x="651" y="-11"/>
    </contour>
  </outline>
</glyph>
<glyph name="cid43654" format="2">
  <advance height="1000" width="929"/>
  <unicode hex="00BD"/>
  <outline>
    <contour>
      <point x="144" y="294" type="curve"/>
      <point x="144" y="294"/>
      <point x="270" y="294"/>
      <point x="270" y="294" type="curve"/>
      <point x="270" y="294"/>
      <point x="356" y="735"/>
      <point x="356" y="735" type="curve"/>
      <point x="356" y="735"/>
      <point x="260" y="735"/>
      <point x="260" y="735" type="curve"/>
      <point x="218" y="708"/>
      <point x="189" y="695"/>
      <point x="125" y="686" type="curve"/>
      <point x="125" y="686"/>
      <point x="111" y="608"/>
      <point x="111" y="608" type="curve"/>
      <point x="111" y="608"/>
      <point x="208" y="608"/>
      <point x="208" y="608" type="curve"/>
      <point x="208" y="608"/>
      <point x="144" y="294"/>
    </contour>
    <contour>
      <point x="128" y="-25" type="curve"/>
      <point x="128" y="-25"/>
      <point x="224" y="-25"/>
      <point x="224" y="-25" type="curve"/>
      <point x="224" y="-25"/>
      <point x="757" y="748"/>
      <point x="757" y="748" type="curve"/>
      <point x="757" y="748"/>
      <point x="660" y="748"/>
      <point x="660" y="748" type="curve"/>
      <point x="660" y="748"/>
      <point x="128" y="-25"/>
    </contour>
    <contour>
      <point x="506" y="-11" type="curve"/>
      <point x="506" y="-11"/>
      <point x="824" y="-11"/>
      <point x="824" y="-11" type="curve"/>
      <point x="824" y="-11"/>
      <point x="845" y="94"/>
      <point x="845" y="94" type="curve"/>
      <point x="845" y="94"/>
      <point x="724" y="94"/>
      <point x="724" y="94" type="curve"/>
      <point x="812" y="168"/>
      <point x="873" y="235"/>
      <point x="873" y="313" type="curve" smooth="yes"/>
      <point x="873" y="394"/>
      <point x="816" y="443"/>
      <point x="722" y="443" type="curve" smooth="yes"/>
      <point x="660" y="443"/>
      <point x="618" y="417"/>
      <point x="566" y="371" type="curve"/>
      <point x="566" y="371"/>
      <point x="634" y="299"/>
      <point x="634" y="299" type="curve"/>
      <point x="658" y="320"/>
      <point x="677" y="336"/>
      <point x="698" y="336" type="curve" smooth="yes"/>
      <point x="732" y="336"/>
      <point x="749" y="318"/>
      <point x="749" y="291" type="curve" smooth="yes"/>
      <point x="749" y="229"/>
      <point x="670" y="153"/>
      <point x="519" y="56" type="curve"/>
      <point x="519" y="56"/>
      <point x="506" y="-11"/>
    </contour>
  </outline>
</glyph>
<glyph name="cid43658" format="2">
  <advance height="1000" width="897"/>
  <unicode hex="00BE"/>
  <outline>
    <contour>
      <point x="211" y="281" type="curve" smooth="yes"/>
      <point x="307" y="281"/>
      <point x="386" y="333"/>
      <point x="386" y="423" type="curve" smooth="yes"/>
      <point x="386" y="461"/>
      <point x="363" y="495"/>
      <point x="323" y="518" type="curve"/>
      <point x="385" y="543"/>
      <point x="411" y="581"/>
      <point x="411" y="638" type="curve" smooth="yes"/>
      <point x="411" y="703"/>
      <point x="354" y="748"/>
      <point x="271" y="748" type="curve" smooth="yes"/>
      <point x="217" y="748"/>
      <point x="174" y="739"/>
      <point x="121" y="708" type="curve"/>
      <point x="121" y="708"/>
      <point x="173" y="626"/>
      <point x="173" y="626" type="curve"/>
      <point x="202" y="647"/>
      <point x="218" y="652"/>
      <point x="243" y="652" type="curve" smooth="yes"/>
      <point x="270" y="652"/>
      <point x="287" y="638"/>
      <point x="287" y="616" type="curve" smooth="yes"/>
      <point x="287" y="586"/>
      <point x="270" y="556"/>
      <point x="190" y="556" type="curve"/>
      <point x="190" y="556"/>
      <point x="174" y="482"/>
      <point x="174" y="482" type="curve"/>
      <point x="250" y="482"/>
      <point x="267" y="461"/>
      <point x="267" y="429" type="curve" smooth="yes"/>
      <point x="267" y="403"/>
      <point x="242" y="379"/>
      <point x="200" y="379" type="curve" smooth="yes"/>
      <point x="167" y="379"/>
      <point x="142" y="396"/>
      <point x="122" y="429" type="curve"/>
      <point x="122" y="429"/>
      <point x="42" y="371"/>
      <point x="42" y="371" type="curve"/>
      <point x="76" y="318"/>
      <point x="129" y="281"/>
    </contour>
    <contour>
      <point x="165" y="-25" type="curve"/>
      <point x="165" y="-25"/>
      <point x="261" y="-25"/>
      <point x="261" y="-25" type="curve"/>
      <point x="261" y="-25"/>
      <point x="794" y="748"/>
      <point x="794" y="748" type="curve"/>
      <point x="794" y="748"/>
      <point x="697" y="748"/>
      <point x="697" y="748" type="curve"/>
      <point x="697" y="748"/>
      <point x="165" y="-25"/>
    </contour>
    <contour>
      <point x="663" y="-11" type="curve"/>
      <point x="663" y="-11"/>
      <point x="770" y="-11"/>
      <point x="770" y="-11" type="curve"/>
      <point x="770" y="-11"/>
      <point x="857" y="430"/>
      <point x="857" y="430" type="curve"/>
      <point x="857" y="430"/>
      <point x="702" y="430"/>
      <point x="702" y="430" type="curve"/>
      <point x="702" y="430"/>
      <point x="486" y="149"/>
      <point x="486" y="149" type="curve"/>
      <point x="486" y="149"/>
      <point x="472" y="85"/>
      <point x="472" y="85" type="curve"/>
      <point x="472" y="85"/>
      <point x="852" y="85"/>
      <point x="852" y="85" type="curve"/>
      <point x="852" y="85"/>
      <point x="869" y="166"/>
      <point x="869" y="166" type="curve"/>
      <point x="869" y="166"/>
      <point x="600" y="166"/>
      <point x="600" y="166" type="curve"/>
      <point x="600" y="166"/>
      <point x="669" y="256"/>
      <point x="669" y="256" type="curve"/>
      <point x="669" y="256"/>
      <point x="736" y="352"/>
      <point x="736" y="352" type="curve"/>
      <point x="736" y="352"/>
      <point x="740" y="352"/>
      <point x="740" y="352" type="curve"/>
      <point x="740" y="352"/>
      <point x="709" y="214"/>
      <point x="709" y="214" type="curve"/>
      <point x="709" y="214"/>
      <point x="663" y="-11"/>
    </contour>
  </outline>
</glyph>
<glyph name="cid40100" format="2">
  <advance height="1000" width="628"/>
  <unicode hex="00C0"/>
  <outline>
    <contour>
      <point x="-72" y="-11" type="curve"/>
      <point x="-72" y="-11"/>
      <point x="114" y="-11"/>
      <point x="114" y="-11" type="curve"/>
      <point x="114" y="-11"/>
      <point x="296" y="382"/>
      <point x="296" y="382" type="curve"/>
      <point x="329" y="453"/>
      <point x="355" y="522"/>
      <point x="385" y="596" type="curve"/>
      <point x="385" y="596"/>
      <point x="390" y="596"/>
      <point x="390" y="596" type="curve"/>
      <point x="390" y="520"/>
      <point x="393" y="453"/>
      <point x="396" y="382" type="curve"/>
      <point x="396" y="382"/>
      <point x="410" y="-11"/>
      <point x="410" y="-11" type="curve"/>
      <point x="410" y="-11"/>
      <point x="589" y="-11"/>
      <point x="589" y="-11" type="curve"/>
      <point x="589" y="-11"/>
      <point x="518" y="725"/>
      <point x="518" y="725" type="curve"/>
      <point x="518" y="725"/>
      <point x="313" y="725"/>
      <point x="313" y="725" type="curve"/>
      <point x="313" y="725"/>
      <point x="-72" y="-11"/>
    </contour>
    <contour>
      <point x="124" y="163" type="curve"/>
      <point x="124" y="163"/>
      <point x="463" y="163"/>
      <point x="463" y="163" type="curve"/>
      <point x="463" y="163"/>
      <point x="494" y="292"/>
      <point x="494" y="292" type="curve"/>
      <point x="494" y="292"/>
      <point x="154" y="292"/>
      <point x="154" y="292" type="curve"/>
      <point x="154" y="292"/>
      <point x="124" y="163"/>
    </contour>
    <contour>
      <point x="366" y="781" type="curve"/>
      <point x="366" y="781"/>
      <point x="505" y="781"/>
      <point x="505" y="781" type="curve"/>
      <point x="505" y="781"/>
      <point x="400" y="959"/>
      <point x="400" y="959" type="curve"/>
      <point x="400" y="959"/>
      <point x="208" y="959"/>
      <point x="208" y="959" type="curve"/>
      <point x="208" y="959"/>
      <point x="198" y="939"/>
      <point x="198" y="939" type="curve"/>
      <point x="198" y="939"/>
      <point x="366" y="781"/>
    </contour>
  </outline>
</glyph>
<glyph name="cid40103" format="2">
  <advance height="1000" width="628"/>
  <unicode hex="00C2"/>
  <outline>
    <contour>
      <point x="-72" y="-11" type="curve"/>
      <point x="-72" y="-11"/>
      <point x="114" y="-11"/>
      <point x="114" y="-11" type="curve"/>
      <point x="114" y="-11"/>
      <point x="296" y="382"/>
      <point x="296" y="382" type="curve"/>
      <point x="329" y="453"/>
      <point x="355" y="522"/>
      <point x="385" y="596" type="curve"/>
      <point x="385" y="596"/>
      <point x="390" y="596"/>
      <point x="390" y="596" type="curve"/>
      <point x="390" y="520"/>
      <point x="393" y="453"/>
      <point x="396" y="382" type="curve"/>
      <point x="396" y="382"/>
      <point x="410" y="-11"/>
      <point x="410" y="-11" type="curve"/>
      <point x="410" y="-11"/>
      <point x="589" y="-11"/>
      <point x="589" y="-11" type="curve"/>
      <point x="589" y="-11"/>
      <point x="518" y="725"/>
      <point x="518" y="725" type="curve"/>
      <point x="518" y="725"/>
      <point x="313" y="725"/>
      <point x="313" y="725" type="curve"/>
      <point x="313" y="725"/>
      <point x="-72" y="-11"/>
    </contour>
    <contour>
      <point x="124" y="163" type="curve"/>
      <point x="124" y="163"/>
      <point x="463" y="163"/>
      <point x="463" y="163" type="curve"/>
      <point x="463" y="163"/>
      <point x="494" y="292"/>
      <point x="494" y="292" type="curve"/>
      <point x="494" y="292"/>
      <point x="154" y="292"/>
      <point x="154" y="292" type="curve"/>
      <point x="154" y="292"/>
      <point x="124" y="163"/>
    </contour>
    <contour>
      <point x="205" y="781" type="curve"/>
      <point x="205" y="781"/>
      <point x="344" y="781"/>
      <point x="344" y="781" type="curve"/>
      <point x="344" y="781"/>
      <point x="440" y="849"/>
      <point x="440" y="849" type="curve"/>
      <point x="440" y="849"/>
      <point x="444" y="849"/>
      <point x="444" y="849" type="curve"/>
      <point x="444" y="849"/>
      <point x="509" y="781"/>
      <point x="509" y="781" type="curve"/>
      <point x="509" y="781"/>
      <point x="647" y="781"/>
      <point x="647" y="781" type="curve"/>
      <point x="647" y="781"/>
      <point x="533" y="959"/>
      <point x="533" y="959" type="curve"/>
      <point x="533" y="959"/>
      <point x="374" y="959"/>
      <point x="374" y="959" type="curve"/>
      <point x="374" y="959"/>
      <point x="205" y="781"/>
    </contour>
  </outline>
</glyph>
<glyph name="cid40105" format="2">
  <advance height="1000" width="628"/>
  <unicode hex="00C3"/>
  <outline>
    <contour>
      <point x="-72" y="-11" type="curve"/>
      <point x="-72" y="-11"/>
      <point x="114" y="-11"/>
      <point x="114" y="-11" type="curve"/>
      <point x="114" y="-11"/>
      <point x="296" y="382"/>
      <point x="296" y="382" type="curve"/>
      <point x="329" y="453"/>
      <point x="355" y="522"/>
      <point x="385" y="596" type="curve"/>
      <point x="385" y="596"/>
      <point x="390" y="596"/>
      <point x="390" y="596" type="curve"/>
      <point x="390" y="520"/>
      <point x="393" y="453"/>
      <point x="396" y="382" type="curve"/>
      <point x="396" y="382"/>
      <point x="410" y="-11"/>
      <point x="410" y="-11" type="curve"/>
      <point x="410" y="-11"/>
      <point x="589" y="-11"/>
      <point x="589" y="-11" type="curve"/>
      <point x="589" y="-11"/>
      <point x="518" y="725"/>
      <point x="518" y="725" type="curve"/>
      <point x="518" y="725"/>
      <point x="313" y="725"/>
      <point x="313" y="725" type="curve"/>
      <point x="313" y="725"/>
      <point x="-72" y="-11"/>
    </contour>
    <contour>
      <point x="124" y="163" type="curve"/>
      <point x="124" y="163"/>
      <point x="463" y="163"/>
      <point x="463" y="163" type="curve"/>
      <point x="463" y="163"/>
      <point x="494" y="292"/>
      <point x="494" y="292" type="curve"/>
      <point x="494" y="292"/>
      <point x="154" y="292"/>
      <point x="154" y="292" type="curve"/>
      <point x="154" y="292"/>
      <point x="124" y="163"/>
    </contour>
    <contour>
      <point x="502" y="768" type="curve" smooth="yes"/>
      <point x="582" y="768"/>
      <point x="651" y="815"/>
      <point x="679" y="935" type="curve"/>
      <point x="679" y="935"/>
      <point x="564" y="944"/>
      <point x="564" y="944" type="curve"/>
      <point x="553" y="904"/>
      <point x="536" y="893"/>
      <point x="516" y="893" type="curve" smooth="yes"/>
      <point x="483" y="893"/>
      <point x="452" y="954"/>
      <point x="374" y="954" type="curve" smooth="yes"/>
      <point x="293" y="954"/>
      <point x="224" y="907"/>
      <point x="195" y="787" type="curve"/>
      <point x="195" y="787"/>
      <point x="311" y="778"/>
      <point x="311" y="778" type="curve"/>
      <point x="322" y="817"/>
      <point x="339" y="829"/>
      <point x="358" y="829" type="curve" smooth="yes"/>
      <point x="392" y="829"/>
      <point x="423" y="768"/>
    </contour>
  </outline>
</glyph>
<glyph name="cid40106" format="2">
  <advance height="1000" width="628"/>
  <unicode hex="00C4"/>
  <outline>
    <contour>
      <point x="-72" y="-11" type="curve"/>
      <point x="-72" y="-11"/>
      <point x="114" y="-11"/>
      <point x="114" y="-11" type="curve"/>
      <point x="114" y="-11"/>
      <point x="296" y="382"/>
      <point x="296" y="382" type="curve"/>
      <point x="329" y="453"/>
      <point x="355" y="522"/>
      <point x="385" y="596" type="curve"/>
      <point x="385" y="596"/>
      <point x="390" y="596"/>
      <point x="390" y="596" type="curve"/>
      <point x="390" y="520"/>
      <point x="393" y="453"/>
      <point x="396" y="382" type="curve"/>
      <point x="396" y="382"/>
      <point x="410" y="-11"/>
      <point x="410" y="-11" type="curve"/>
      <point x="410" y="-11"/>
      <point x="589" y="-11"/>
      <point x="589" y="-11" type="curve"/>
      <point x="589" y="-11"/>
      <point x="518" y="725"/>
      <point x="518" y="725" type="curve"/>
      <point x="518" y="725"/>
      <point x="313" y="725"/>
      <point x="313" y="725" type="curve"/>
      <point x="313" y="725"/>
      <point x="-72" y="-11"/>
    </contour>
    <contour>
      <point x="124" y="163" type="curve"/>
      <point x="124" y="163"/>
      <point x="463" y="163"/>
      <point x="463" y="163" type="curve"/>
      <point x="463" y="163"/>
      <point x="494" y="292"/>
      <point x="494" y="292" type="curve"/>
      <point x="494" y="292"/>
      <point x="154" y="292"/>
      <point x="154" y="292" type="curve"/>
      <point x="154" y="292"/>
      <point x="124" y="163"/>
    </contour>
    <contour>
      <point x="299" y="778" type="curve" smooth="yes"/>
      <point x="351" y="778"/>
      <point x="390" y="817"/>
      <point x="390" y="867" type="curve" smooth="yes"/>
      <point x="390" y="911"/>
      <point x="359" y="938"/>
      <point x="319" y="938" type="curve" smooth="yes"/>
      <point x="267" y="938"/>
      <point x="228" y="896"/>
      <point x="228" y="849" type="curve" smooth="yes"/>
      <point x="228" y="803"/>
      <point x="260" y="778"/>
    </contour>
    <contour>
      <point x="549" y="778" type="curve" smooth="yes"/>
      <point x="601" y="778"/>
      <point x="640" y="817"/>
      <point x="640" y="867" type="curve" smooth="yes"/>
      <point x="640" y="911"/>
      <point x="609" y="938"/>
      <point x="568" y="938" type="curve" smooth="yes"/>
      <point x="516" y="938"/>
      <point x="478" y="896"/>
      <point x="478" y="849" type="curve" smooth="yes"/>
      <point x="478" y="803"/>
      <point x="510" y="778"/>
    </contour>
  </outline>
</glyph>
<glyph name="cid40146" format="2">
  <advance height="1000" width="956"/>
  <unicode hex="00C6"/>
  <outline>
    <contour>
      <point x="-41" y="-11" type="curve"/>
      <point x="-41" y="-11"/>
      <point x="151" y="-11"/>
      <point x="151" y="-11" type="curve"/>
      <point x="151" y="-11"/>
      <point x="391" y="398"/>
      <point x="391" y="398" type="curve"/>
      <point x="432" y="468"/>
      <point x="471" y="531"/>
      <point x="514" y="603" type="curve"/>
      <point x="514" y="603"/>
      <point x="518" y="603"/>
      <point x="518" y="603" type="curve"/>
      <point x="518" y="603"/>
      <point x="396" y="-11"/>
      <point x="396" y="-11" type="curve"/>
      <point x="396" y="-11"/>
      <point x="840" y="-11"/>
      <point x="840" y="-11" type="curve"/>
      <point x="840" y="-11"/>
      <point x="868" y="131"/>
      <point x="868" y="131" type="curve"/>
      <point x="868" y="131"/>
      <point x="593" y="131"/>
      <point x="593" y="131" type="curve"/>
      <point x="593" y="131"/>
      <point x="627" y="297"/>
      <point x="627" y="297" type="curve"/>
      <point x="627" y="297"/>
      <point x="851" y="297"/>
      <point x="851" y="297" type="curve"/>
      <point x="851" y="297"/>
      <point x="879" y="440"/>
      <point x="879" y="440" type="curve"/>
      <point x="879" y="440"/>
      <point x="655" y="440"/>
      <point x="655" y="440" type="curve"/>
      <point x="655" y="440"/>
      <point x="683" y="581"/>
      <point x="683" y="581" type="curve"/>
      <point x="683" y="581"/>
      <point x="948" y="581"/>
      <point x="948" y="581" type="curve"/>
      <point x="948" y="581"/>
      <point x="975" y="725"/>
      <point x="975" y="725" type="curve"/>
      <point x="975" y="725"/>
      <point x="427" y="725"/>
      <point x="427" y="725" type="curve"/>
      <point x="427" y="725"/>
      <point x="-41" y="-11"/>
    </contour>
    <contour>
      <point x="157" y="154" type="curve"/>
      <point x="157" y="154"/>
      <point x="515" y="154"/>
      <point x="515" y="154" type="curve"/>
      <point x="515" y="154"/>
      <point x="541" y="286"/>
      <point x="541" y="286" type="curve"/>
      <point x="541" y="286"/>
      <point x="185" y="286"/>
      <point x="185" y="286" type="curve"/>
      <point x="185" y="286"/>
      <point x="157" y="154"/>
    </contour>
  </outline>
</glyph>
<glyph name="cid40182" format="2">
  <advance height="1000" width="599"/>
  <unicode hex="00C8"/>
  <outline>
    <contour>
      <point x="31" y="-11" type="curve"/>
      <point x="31" y="-11"/>
      <point x="485" y="-11"/>
      <point x="485" y="-11" type="curve"/>
      <point x="485" y="-11"/>
      <point x="513" y="131"/>
      <point x="513" y="131" type="curve"/>
      <point x="513" y="131"/>
      <point x="228" y="131"/>
      <point x="228" y="131" type="curve"/>
      <point x="228" y="131"/>
      <point x="263" y="297"/>
      <point x="263" y="297" type="curve"/>
      <point x="263" y="297"/>
      <point x="496" y="297"/>
      <point x="496" y="297" type="curve"/>
      <point x="496" y="297"/>
      <point x="524" y="440"/>
      <point x="524" y="440" type="curve"/>
      <point x="524" y="440"/>
      <point x="290" y="440"/>
      <point x="290" y="440" type="curve"/>
      <point x="290" y="440"/>
      <point x="318" y="581"/>
      <point x="318" y="581" type="curve"/>
      <point x="318" y="581"/>
      <point x="593" y="581"/>
      <point x="593" y="581" type="curve"/>
      <point x="593" y="581"/>
      <point x="620" y="725"/>
      <point x="620" y="725" type="curve"/>
      <point x="620" y="725"/>
      <point x="177" y="725"/>
      <point x="177" y="725" type="curve"/>
      <point x="177" y="725"/>
      <point x="31" y="-11"/>
    </contour>
    <contour>
      <point x="357" y="781" type="curve"/>
      <point x="357" y="781"/>
      <point x="496" y="781"/>
      <point x="496" y="781" type="curve"/>
      <point x="496" y="781"/>
      <point x="391" y="959"/>
      <point x="391" y="959" type="curve"/>
      <point x="391" y="959"/>
      <point x="199" y="959"/>
      <point x="199" y="959" type="curve"/>
      <point x="199" y="959"/>
      <point x="189" y="939"/>
      <point x="189" y="939" type="curve"/>
      <point x="189" y="939"/>
      <point x="357" y="781"/>
    </contour>
  </outline>
</glyph>
<glyph name="cid40250" format="2">
  <advance height="1000" width="345"/>
  <unicode hex="00CD"/>
  <outline>
    <contour>
      <point x="31" y="-11" type="curve"/>
      <point x="31" y="-11"/>
      <point x="201" y="-11"/>
      <point x="201" y="-11" type="curve"/>
      <point x="201" y="-11"/>
      <point x="348" y="725"/>
      <point x="348" y="725" type="curve"/>
      <point x="348" y="725"/>
      <point x="177" y="725"/>
      <point x="177" y="725" type="curve"/>
      <point x="177" y="725"/>
      <point x="31" y="-11"/>
    </contour>
    <contour>
      <point x="156" y="781" type="curve"/>
      <point x="156" y="781"/>
      <point x="295" y="781"/>
      <point x="295" y="781" type="curve"/>
      <point x="295" y="781"/>
      <point x="530" y="939"/>
      <point x="530" y="939" type="curve"/>
      <point x="530" y="939"/>
      <point x="519" y="959"/>
      <point x="519" y="959" type="curve"/>
      <point x="519" y="959"/>
      <point x="316" y="959"/>
      <point x="316" y="959" type="curve"/>
      <point x="316" y="959"/>
      <point x="156" y="781"/>
    </contour>
  </outline>
</glyph>
<glyph name="cid40251" format="2">
  <advance height="1000" width="345"/>
  <unicode hex="00CE"/>
  <outline>
    <contour>
      <point x="31" y="-11" type="curve"/>
      <point x="31" y="-11"/>
      <point x="201" y="-11"/>
      <point x="201" y="-11" type="curve"/>
      <point x="201" y="-11"/>
      <point x="348" y="725"/>
      <point x="348" y="725" type="curve"/>
      <point x="348" y="725"/>
      <point x="177" y="725"/>
      <point x="177" y="725" type="curve"/>
      <point x="177" y="725"/>
      <point x="31" y="-11"/>
    </contour>
    <contour>
      <point x="57" y="781" type="curve"/>
      <point x="57" y="781"/>
      <point x="195" y="781"/>
      <point x="195" y="781" type="curve"/>
      <point x="195" y="781"/>
      <point x="292" y="849"/>
      <point x="292" y="849" type="curve"/>
      <point x="292" y="849"/>
      <point x="296" y="849"/>
      <point x="296" y="849" type="curve"/>
      <point x="296" y="849"/>
      <point x="360" y="781"/>
      <point x="360" y="781" type="curve"/>
      <point x="360" y="781"/>
      <point x="499" y="781"/>
      <point x="499" y="781" type="curve"/>
      <point x="499" y="781"/>
      <point x="385" y="959"/>
      <point x="385" y="959" type="curve"/>
      <point x="385" y="959"/>
      <point x="226" y="959"/>
      <point x="226" y="959" type="curve"/>
      <point x="226" y="959"/>
      <point x="57" y="781"/>
    </contour>
  </outline>
</glyph>
<glyph name="cid40307" format="2">
  <advance height="1000" width="732"/>
  <unicode hex="00D1"/>
  <outline>
    <contour>
      <point x="31" y="-11" type="curve"/>
      <point x="31" y="-11"/>
      <point x="192" y="-11"/>
      <point x="192" y="-11" type="curve"/>
      <point x="192" y="-11"/>
      <point x="243" y="244"/>
      <point x="243" y="244" type="curve"/>
      <point x="261" y="331"/>
      <point x="270" y="433"/>
      <point x="276" y="516" type="curve"/>
      <point x="276" y="516"/>
      <point x="280" y="516"/>
      <point x="280" y="516" type="curve"/>
      <point x="292" y="455"/>
      <point x="302" y="400"/>
      <point x="315" y="355" type="curve"/>
      <point x="315" y="355"/>
      <point x="420" y="-11"/>
      <point x="420" y="-11" type="curve"/>
      <point x="420" y="-11"/>
      <point x="589" y="-11"/>
      <point x="589" y="-11" type="curve"/>
      <point x="589" y="-11"/>
      <point x="736" y="725"/>
      <point x="736" y="725" type="curve"/>
      <point x="736" y="725"/>
      <point x="574" y="725"/>
      <point x="574" y="725" type="curve"/>
      <point x="574" y="725"/>
      <point x="523" y="469"/>
      <point x="523" y="469" type="curve"/>
      <point x="505" y="382"/>
      <point x="496" y="281"/>
      <point x="492" y="198" type="curve"/>
      <point x="492" y="198"/>
      <point x="487" y="198"/>
      <point x="487" y="198" type="curve"/>
      <point x="476" y="257"/>
      <point x="464" y="312"/>
      <point x="452" y="357" type="curve"/>
      <point x="452" y="357"/>
      <point x="347" y="725"/>
      <point x="347" y="725" type="curve"/>
      <point x="347" y="725"/>
      <point x="177" y="725"/>
      <point x="177" y="725" type="curve"/>
      <point x="177" y="725"/>
      <point x="31" y="-11"/>
    </contour>
    <contour>
      <point x="549" y="768" type="curve" smooth="yes"/>
      <point x="629" y="768"/>
      <point x="698" y="815"/>
      <point x="727" y="935" type="curve"/>
      <point x="727" y="935"/>
      <point x="611" y="944"/>
      <point x="611" y="944" type="curve"/>
      <point x="600" y="904"/>
      <point x="583" y="893"/>
      <point x="564" y="893" type="curve" smooth="yes"/>
      <point x="530" y="893"/>
      <point x="499" y="954"/>
      <point x="421" y="954" type="curve" smooth="yes"/>
      <point x="340" y="954"/>
      <point x="271" y="907"/>
      <point x="243" y="787" type="curve"/>
      <point x="243" y="787"/>
      <point x="358" y="778"/>
      <point x="358" y="778" type="curve"/>
      <point x="370" y="817"/>
      <point x="386" y="829"/>
      <point x="406" y="829" type="curve" smooth="yes"/>
      <point x="440" y="829"/>
      <point x="470" y="768"/>
    </contour>
  </outline>
</glyph>
<glyph name="cid40321" format="2">
  <advance height="1000" width="753"/>
  <unicode hex="00D5"/>
  <outline>
    <contour>
      <point x="346" y="-25" type="curve" smooth="yes"/>
      <point x="541" y="-25"/>
      <point x="723" y="159"/>
      <point x="723" y="426" type="curve" smooth="yes"/>
      <point x="723" y="624"/>
      <point x="610" y="738"/>
      <point x="442" y="738" type="curve" smooth="yes"/>
      <point x="245" y="738"/>
      <point x="63" y="555"/>
      <point x="63" y="287" type="curve" smooth="yes"/>
      <point x="63" y="90"/>
      <point x="176" y="-25"/>
    </contour>
    <contour>
      <point x="354" y="122" type="curve" smooth="yes"/>
      <point x="280" y="122"/>
      <point x="238" y="188"/>
      <point x="238" y="297" type="curve" smooth="yes"/>
      <point x="238" y="468"/>
      <point x="340" y="591"/>
      <point x="433" y="591" type="curve" smooth="yes"/>
      <point x="506" y="591"/>
      <point x="548" y="526"/>
      <point x="548" y="415" type="curve" smooth="yes"/>
      <point x="548" y="246"/>
      <point x="446" y="122"/>
    </contour>
    <contour>
      <point x="549" y="768" type="curve" smooth="yes"/>
      <point x="629" y="768"/>
      <point x="698" y="815"/>
      <point x="727" y="935" type="curve"/>
      <point x="727" y="935"/>
      <point x="611" y="944"/>
      <point x="611" y="944" type="curve"/>
      <point x="600" y="904"/>
      <point x="583" y="893"/>
      <point x="564" y="893" type="curve" smooth="yes"/>
      <point x="530" y="893"/>
      <point x="499" y="954"/>
      <point x="421" y="954" type="curve" smooth="yes"/>
      <point x="340" y="954"/>
      <point x="271" y="907"/>
      <point x="243" y="787" type="curve"/>
      <point x="243" y="787"/>
      <point x="358" y="778"/>
      <point x="358" y="778" type="curve"/>
      <point x="370" y="817"/>
      <point x="386" y="829"/>
      <point x="406" y="829" type="curve" smooth="yes"/>
      <point x="440" y="829"/>
      <point x="470" y="768"/>
    </contour>
  </outline>
</glyph>
<glyph name="cid40325" format="2">
  <advance height="1000" width="753"/>
  <unicode hex="00D6"/>
  <outline>
    <contour>
      <point x="346" y="-25" type="curve" smooth="yes"/>
      <point x="541" y="-25"/>
      <point x="723" y="159"/>
      <point x="723" y="426" type="curve" smooth="yes"/>
      <point x="723" y="624"/>
      <point x="610" y="738"/>
      <point x="442" y="738" type="curve" smooth="yes"/>
      <point x="245" y="738"/>
      <point x="63" y="555"/>
      <point x="63" y="287" type="curve" smooth="yes"/>
      <point x="63" y="90"/>
      <point x="176" y="-25"/>
    </contour>
    <contour>
      <point x="354" y="122" type="curve" smooth="yes"/>
      <point x="280" y="122"/>
      <point x="238" y="188"/>
      <point x="238" y="297" type="curve" smooth="yes"/>
      <point x="238" y="468"/>
      <point x="340" y="591"/>
      <point x="433" y="591" type="curve" smooth="yes"/>
      <point x="506" y="591"/>
      <point x="548" y="526"/>
      <point x="548" y="415" type="curve" smooth="yes"/>
      <point x="548" y="246"/>
      <point x="446" y="122"/>
    </contour>
    <contour>
      <point x="347" y="778" type="curve" smooth="yes"/>
      <point x="399" y="778"/>
      <point x="437" y="817"/>
      <point x="437" y="867" type="curve" smooth="yes"/>
      <point x="437" y="911"/>
      <point x="407" y="938"/>
      <point x="366" y="938" type="curve" smooth="yes"/>
      <point x="314" y="938"/>
      <point x="276" y="896"/>
      <point x="276" y="849" type="curve" smooth="yes"/>
      <point x="276" y="803"/>
      <point x="307" y="778"/>
    </contour>
    <contour>
      <point x="597" y="778" type="curve" smooth="yes"/>
      <point x="649" y="778"/>
      <point x="687" y="817"/>
      <point x="687" y="867" type="curve" smooth="yes"/>
      <point x="687" y="911"/>
      <point x="657" y="938"/>
      <point x="616" y="938" type="curve" smooth="yes"/>
      <point x="564" y="938"/>
      <point x="525" y="896"/>
      <point x="525" y="849" type="curve" smooth="yes"/>
      <point x="525" y="803"/>
      <point x="557" y="778"/>
    </contour>
  </outline>
</glyph>
<glyph name="cid43689" format="2">
  <advance height="1000" width="582"/>
  <unicode hex="00D7"/>
  <outline>
    <contour>
      <point x="154" y="120" type="curve"/>
      <point x="154" y="120"/>
      <point x="305" y="278"/>
      <point x="305" y="278" type="curve"/>
      <point x="305" y="278"/>
      <point x="457" y="120"/>
      <point x="457" y="120" type="curve"/>
      <point x="457" y="120"/>
      <point x="539" y="204"/>
      <point x="539" y="204" type="curve"/>
      <point x="539" y="204"/>
      <point x="389" y="362"/>
      <point x="389" y="362" type="curve"/>
      <point x="389" y="362"/>
      <point x="539" y="520"/>
      <point x="539" y="520" type="curve"/>
      <point x="539" y="520"/>
      <point x="457" y="604"/>
      <point x="457" y="604" type="curve"/>
      <point x="457" y="604"/>
      <point x="305" y="446"/>
      <point x="305" y="446" type="curve"/>
      <point x="305" y="446"/>
      <point x="154" y="604"/>
      <point x="154" y="604" type="curve"/>
      <point x="154" y="604"/>
      <point x="70" y="520"/>
      <point x="70" y="520" type="curve"/>
      <point x="70" y="520"/>
      <point x="221" y="362"/>
      <point x="221" y="362" type="curve"/>
      <point x="221" y="362"/>
      <point x="70" y="204"/>
      <point x="70" y="204" type="curve"/>
      <point x="70" y="204"/>
      <point x="154" y="120"/>
    </contour>
  </outline>
</glyph>
<glyph name="cid40423" format="2">
  <advance height="1000" width="735"/>
  <unicode hex="00DC"/>
  <outline>
    <contour>
      <point x="354" y="-25" type="curve" smooth="yes"/>
      <point x="516" y="-25"/>
      <point x="609" y="69"/>
      <point x="658" y="308" type="curve"/>
      <point x="658" y="308"/>
      <point x="742" y="725"/>
      <point x="742" y="725" type="curve"/>
      <point x="742" y="725"/>
      <point x="576" y="725"/>
      <point x="576" y="725" type="curve"/>
      <point x="576" y="725"/>
      <point x="492" y="304"/>
      <point x="492" y="304" type="curve"/>
      <point x="463" y="162"/>
      <point x="426" y="122"/>
      <point x="358" y="122" type="curve" smooth="yes"/>
      <point x="280" y="122"/>
      <point x="254" y="163"/>
      <point x="254" y="241" type="curve" smooth="yes"/>
      <point x="254" y="268"/>
      <point x="259" y="295"/>
      <point x="263" y="326" type="curve"/>
      <point x="263" y="326"/>
      <point x="344" y="725"/>
      <point x="344" y="725" type="curve"/>
      <point x="344" y="725"/>
      <point x="173" y="725"/>
      <point x="173" y="725" type="curve"/>
      <point x="173" y="725"/>
      <point x="99" y="359"/>
      <point x="99" y="359" type="curve"/>
      <point x="93" y="320"/>
      <point x="85" y="270"/>
      <point x="85" y="236" type="curve" smooth="yes"/>
      <point x="85" y="59"/>
      <point x="174" y="-25"/>
    </contour>
    <contour>
      <point x="346" y="778" type="curve" smooth="yes"/>
      <point x="398" y="778"/>
      <point x="436" y="817"/>
      <point x="436" y="867" type="curve" smooth="yes"/>
      <point x="436" y="911"/>
      <point x="406" y="938"/>
      <point x="365" y="938" type="curve" smooth="yes"/>
      <point x="313" y="938"/>
      <point x="275" y="896"/>
      <point x="275" y="849" type="curve" smooth="yes"/>
      <point x="275" y="803"/>
      <point x="306" y="778"/>
    </contour>
    <contour>
      <point x="596" y="778" type="curve" smooth="yes"/>
      <point x="647" y="778"/>
      <point x="686" y="817"/>
      <point x="686" y="867" type="curve" smooth="yes"/>
      <point x="686" y="911"/>
      <point x="655" y="938"/>
      <point x="615" y="938" type="curve" smooth="yes"/>
      <point x="563" y="938"/>
      <point x="524" y="896"/>
      <point x="524" y="849" type="curve" smooth="yes"/>
      <point x="524" y="803"/>
      <point x="556" y="778"/>
    </contour>
  </outline>
</glyph>
<glyph name="cid40463" format="2">
  <advance height="1000" width="588"/>
  <unicode hex="00DD"/>
  <outline>
    <contour>
      <point x="155" y="-11" type="curve"/>
      <point x="155" y="-11"/>
      <point x="324" y="-11"/>
      <point x="324" y="-11" type="curve"/>
      <point x="324" y="-11"/>
      <point x="377" y="250"/>
      <point x="377" y="250" type="curve"/>
      <point x="377" y="250"/>
      <point x="688" y="725"/>
      <point x="688" y="725" type="curve"/>
      <point x="688" y="725"/>
      <point x="505" y="725"/>
      <point x="505" y="725" type="curve"/>
      <point x="505" y="725"/>
      <point x="411" y="557"/>
      <point x="411" y="557" type="curve"/>
      <point x="380" y="502"/>
      <point x="354" y="451"/>
      <point x="324" y="394" type="curve"/>
      <point x="324" y="394"/>
      <point x="320" y="394"/>
      <point x="320" y="394" type="curve"/>
      <point x="310" y="451"/>
      <point x="303" y="500"/>
      <point x="293" y="556" type="curve"/>
      <point x="293" y="556"/>
      <point x="267" y="725"/>
      <point x="267" y="725" type="curve"/>
      <point x="267" y="725"/>
      <point x="90" y="725"/>
      <point x="90" y="725" type="curve"/>
      <point x="90" y="725"/>
      <point x="207" y="250"/>
      <point x="207" y="250" type="curve"/>
      <point x="207" y="250"/>
      <point x="155" y="-11"/>
    </contour>
    <contour>
      <point x="280" y="781" type="curve"/>
      <point x="280" y="781"/>
      <point x="419" y="781"/>
      <point x="419" y="781" type="curve"/>
      <point x="419" y="781"/>
      <point x="654" y="939"/>
      <point x="654" y="939" type="curve"/>
      <point x="654" y="939"/>
      <point x="643" y="959"/>
      <point x="643" y="959" type="curve"/>
      <point x="643" y="959"/>
      <point x="441" y="959"/>
      <point x="441" y="959" type="curve"/>
      <point x="441" y="959"/>
      <point x="280" y="781"/>
    </contour>
  </outline>
</glyph>
<glyph name="cid40483" format="2">
  <advance height="1000" width="681"/>
  <unicode hex="00DE"/>
  <outline>
    <contour>
      <point x="31" y="-11" type="curve"/>
      <point x="31" y="-11"/>
      <point x="199" y="-11"/>
      <point x="199" y="-11" type="curve"/>
      <point x="199" y="-11"/>
      <point x="225" y="125"/>
      <point x="225" y="125" type="curve"/>
      <point x="225" y="125"/>
      <point x="308" y="125"/>
      <point x="308" y="125" type="curve"/>
      <point x="492" y="125"/>
      <point x="653" y="204"/>
      <point x="653" y="415" type="curve" smooth="yes"/>
      <point x="653" y="560"/>
      <point x="549" y="614"/>
      <point x="416" y="614" type="curve"/>
      <point x="416" y="614"/>
      <point x="323" y="614"/>
      <point x="323" y="614" type="curve"/>
      <point x="323" y="614"/>
      <point x="348" y="735"/>
      <point x="348" y="735" type="curve"/>
      <point x="348" y="735"/>
      <point x="177" y="735"/>
      <point x="177" y="735" type="curve"/>
      <point x="177" y="735"/>
      <point x="31" y="-11"/>
    </contour>
    <contour>
      <point x="252" y="259" type="curve"/>
      <point x="252" y="259"/>
      <point x="295" y="479"/>
      <point x="295" y="479" type="curve"/>
      <point x="295" y="479"/>
      <point x="381" y="479"/>
      <point x="381" y="479" type="curve"/>
      <point x="446" y="479"/>
      <point x="486" y="451"/>
      <point x="486" y="389" type="curve" smooth="yes"/>
      <point x="486" y="304"/>
      <point x="428" y="259"/>
      <point x="327" y="259" type="curve"/>
      <point x="327" y="259"/>
      <point x="252" y="259"/>
    </contour>
  </outline>
</glyph>
<glyph name="cid40945" format="2">
  <advance height="1000" width="703"/>
  <unicode hex="00DF"/>
  <outline>
    <contour>
      <point x="432" y="-25" type="curve" smooth="yes"/>
      <point x="553" y="-25"/>
      <point x="647" y="65"/>
      <point x="647" y="178" type="curve" smooth="yes"/>
      <point x="647" y="308"/>
      <point x="518" y="342"/>
      <point x="518" y="396" type="curve" smooth="yes"/>
      <point x="518" y="453"/>
      <point x="652" y="492"/>
      <point x="652" y="618" type="curve" smooth="yes"/>
      <point x="652" y="739"/>
      <point x="538" y="791"/>
      <point x="420" y="791" type="curve" smooth="yes"/>
      <point x="255" y="791"/>
      <point x="153" y="690"/>
      <point x="125" y="555" type="curve"/>
      <point x="125" y="555"/>
      <point x="12" y="-11"/>
      <point x="12" y="-11" type="curve"/>
      <point x="12" y="-11"/>
      <point x="182" y="-11"/>
      <point x="182" y="-11" type="curve"/>
      <point x="182" y="-11"/>
      <point x="289" y="522"/>
      <point x="289" y="522" type="curve"/>
      <point x="304" y="598"/>
      <point x="350" y="657"/>
      <point x="414" y="657" type="curve" smooth="yes"/>
      <point x="468" y="657"/>
      <point x="488" y="633"/>
      <point x="488" y="592" type="curve" smooth="yes"/>
      <point x="488" y="499"/>
      <point x="353" y="472"/>
      <point x="353" y="372" type="curve" smooth="yes"/>
      <point x="353" y="257"/>
      <point x="490" y="229"/>
      <point x="490" y="161" type="curve" smooth="yes"/>
      <point x="490" y="126"/>
      <point x="467" y="101"/>
      <point x="431" y="101" type="curve" smooth="yes"/>
      <point x="391" y="101"/>
      <point x="358" y="113"/>
      <point x="330" y="133" type="curve"/>
      <point x="330" y="133"/>
      <point x="272" y="26"/>
      <point x="272" y="26" type="curve"/>
      <point x="320" y="-12"/>
      <point x="376" y="-25"/>
    </contour>
  </outline>
</glyph>
<glyph name="cid40538" format="2">
  <advance height="1000" width="628"/>
  <unicode hex="00E3"/>
  <outline>
    <contour>
      <point x="191" y="-25" type="curve" smooth="yes"/>
      <point x="247" y="-25"/>
      <point x="313" y="8"/>
      <point x="363" y="60" type="curve"/>
      <point x="363" y="60"/>
      <point x="366" y="60"/>
      <point x="366" y="60" type="curve"/>
      <point x="366" y="60"/>
      <point x="365" y="-11"/>
      <point x="365" y="-11" type="curve"/>
      <point x="365" y="-11"/>
      <point x="503" y="-11"/>
      <point x="503" y="-11" type="curve"/>
      <point x="503" y="-11"/>
      <point x="616" y="552"/>
      <point x="616" y="552" type="curve"/>
      <point x="616" y="552"/>
      <point x="479" y="552"/>
      <point x="479" y="552" type="curve"/>
      <point x="479" y="552"/>
      <point x="455" y="494"/>
      <point x="455" y="494" type="curve"/>
      <point x="455" y="494"/>
      <point x="452" y="494"/>
      <point x="452" y="494" type="curve"/>
      <point x="432" y="538"/>
      <point x="382" y="565"/>
      <point x="333" y="565" type="curve" smooth="yes"/>
      <point x="177" y="565"/>
      <point x="33" y="397"/>
      <point x="33" y="182" type="curve" smooth="yes"/>
      <point x="33" y="50"/>
      <point x="93" y="-25"/>
    </contour>
    <contour>
      <point x="267" y="114" type="curve" smooth="yes"/>
      <point x="232" y="114"/>
      <point x="209" y="142"/>
      <point x="209" y="204" type="curve" smooth="yes"/>
      <point x="209" y="334"/>
      <point x="275" y="427"/>
      <point x="346" y="427" type="curve" smooth="yes"/>
      <point x="368" y="427"/>
      <point x="397" y="413"/>
      <point x="412" y="380" type="curve"/>
      <point x="412" y="380"/>
      <point x="375" y="192"/>
      <point x="375" y="192" type="curve"/>
      <point x="342" y="130"/>
      <point x="299" y="114"/>
    </contour>
    <contour>
      <point x="469" y="636" type="curve" smooth="yes"/>
      <point x="547" y="636"/>
      <point x="605" y="690"/>
      <point x="624" y="812" type="curve"/>
      <point x="624" y="812"/>
      <point x="513" y="818"/>
      <point x="513" y="818" type="curve"/>
      <point x="506" y="775"/>
      <point x="487" y="762"/>
      <point x="468" y="762" type="curve" smooth="yes"/>
      <point x="423" y="762"/>
      <point x="398" y="829"/>
      <point x="316" y="829" type="curve" smooth="yes"/>
      <point x="240" y="829"/>
      <point x="181" y="775"/>
      <point x="160" y="653" type="curve"/>
      <point x="160" y="653"/>
      <point x="272" y="647"/>
      <point x="272" y="647" type="curve"/>
      <point x="279" y="688"/>
      <point x="298" y="703"/>
      <point x="318" y="703" type="curve" smooth="yes"/>
      <point x="363" y="703"/>
      <point x="388" y="636"/>
    </contour>
  </outline>
</glyph>
<glyph name="cid40541" format="2">
  <advance height="1000" width="628"/>
  <unicode hex="00E5"/>
  <outline>
    <contour>
      <point x="191" y="-25" type="curve" smooth="yes"/>
      <point x="247" y="-25"/>
      <point x="313" y="8"/>
      <point x="363" y="60" type="curve"/>
      <point x="363" y="60"/>
      <point x="366" y="60"/>
      <point x="366" y="60" type="curve"/>
      <point x="366" y="60"/>
      <point x="365" y="-11"/>
      <point x="365" y="-11" type="curve"/>
      <point x="365" y="-11"/>
      <point x="503" y="-11"/>
      <point x="503" y="-11" type="curve"/>
      <point x="503" y="-11"/>
      <point x="616" y="552"/>
      <point x="616" y="552" type="curve"/>
      <point x="616" y="552"/>
      <point x="479" y="552"/>
      <point x="479" y="552" type="curve"/>
      <point x="479" y="552"/>
      <point x="455" y="494"/>
      <point x="455" y="494" type="curve"/>
      <point x="455" y="494"/>
      <point x="452" y="494"/>
      <point x="452" y="494" type="curve"/>
      <point x="432" y="538"/>
      <point x="382" y="565"/>
      <point x="333" y="565" type="curve" smooth="yes"/>
      <point x="177" y="565"/>
      <point x="33" y="397"/>
      <point x="33" y="182" type="curve" smooth="yes"/>
      <point x="33" y="50"/>
      <point x="93" y="-25"/>
    </contour>
    <contour>
      <point x="267" y="114" type="curve" smooth="yes"/>
      <point x="232" y="114"/>
      <point x="209" y="142"/>
      <point x="209" y="204" type="curve" smooth="yes"/>
      <point x="209" y="334"/>
      <point x="275" y="427"/>
      <point x="346" y="427" type="curve" smooth="yes"/>
      <point x="368" y="427"/>
      <point x="397" y="413"/>
      <point x="412" y="380" type="curve"/>
      <point x="412" y="380"/>
      <point x="375" y="192"/>
      <point x="375" y="192" type="curve"/>
      <point x="342" y="130"/>
      <point x="299" y="114"/>
    </contour>
    <contour>
      <point x="379" y="631" type="curve" smooth="yes"/>
      <point x="477" y="631"/>
      <point x="548" y="687"/>
      <point x="548" y="762" type="curve" smooth="yes"/>
      <point x="548" y="826"/>
      <point x="493" y="865"/>
      <point x="414" y="865" type="curve" smooth="yes"/>
      <point x="315" y="865"/>
      <point x="244" y="808"/>
      <point x="244" y="735" type="curve" smooth="yes"/>
      <point x="244" y="669"/>
      <point x="301" y="631"/>
    </contour>
    <contour>
      <point x="389" y="696" type="curve" smooth="yes"/>
      <point x="364" y="696"/>
      <point x="351" y="714"/>
      <point x="351" y="738" type="curve" smooth="yes"/>
      <point x="351" y="772"/>
      <point x="375" y="799"/>
      <point x="403" y="799" type="curve" smooth="yes"/>
      <point x="429" y="799"/>
      <point x="442" y="779"/>
      <point x="442" y="757" type="curve" smooth="yes"/>
      <point x="442" y="725"/>
      <point x="418" y="696"/>
    </contour>
  </outline>
</glyph>
<glyph name="cid40585" format="2">
  <advance height="1000" width="503"/>
  <unicode hex="00E7"/>
  <outline>
    <contour>
      <point x="254" y="-25" type="curve" smooth="yes"/>
      <point x="341" y="-25"/>
      <point x="398" y="5"/>
      <point x="444" y="49" type="curve"/>
      <point x="444" y="49"/>
      <point x="374" y="145"/>
      <point x="374" y="145" type="curve"/>
      <point x="353" y="128"/>
      <point x="328" y="112"/>
      <point x="292" y="112" type="curve" smooth="yes"/>
      <point x="236" y="112"/>
      <point x="206" y="151"/>
      <point x="206" y="212" type="curve" smooth="yes"/>
      <point x="206" y="329"/>
      <point x="273" y="430"/>
      <point x="356" y="430" type="curve" smooth="yes"/>
      <point x="386" y="430"/>
      <point x="406" y="417"/>
      <point x="427" y="398" type="curve"/>
      <point x="427" y="398"/>
      <point x="519" y="496"/>
      <point x="519" y="496" type="curve"/>
      <point x="492" y="530"/>
      <point x="437" y="565"/>
      <point x="364" y="565" type="curve" smooth="yes"/>
      <point x="175" y="565"/>
      <point x="31" y="400"/>
      <point x="31" y="209" type="curve" smooth="yes"/>
      <point x="31" y="60"/>
      <point x="129" y="-25"/>
    </contour>
    <contour>
      <point x="70" y="-284" type="curve"/>
      <point x="218" y="-280"/>
      <point x="308" y="-244"/>
      <point x="323" y="-164" type="curve" smooth="yes"/>
      <point x="330" y="-117"/>
      <point x="306" y="-93"/>
      <point x="250" y="-80" type="curve"/>
      <point x="250" y="-80"/>
      <point x="295" y="-6"/>
      <point x="295" y="-6" type="curve"/>
      <point x="295" y="-6"/>
      <point x="190" y="-6"/>
      <point x="190" y="-6" type="curve"/>
      <point x="190" y="-6"/>
      <point x="114" y="-118"/>
      <point x="114" y="-118" type="curve"/>
      <point x="181" y="-127"/>
      <point x="195" y="-143"/>
      <point x="193" y="-165" type="curve"/>
      <point x="186" y="-196"/>
      <point x="156" y="-209"/>
      <point x="70" y="-213" type="curve"/>
      <point x="70" y="-213"/>
      <point x="70" y="-284"/>
    </contour>
  </outline>
</glyph>
<glyph name="cid40726" format="2">
  <advance height="1000" width="307"/>
  <unicode hex="00EC"/>
  <outline>
    <contour>
      <point x="12" y="-11" type="curve"/>
      <point x="12" y="-11"/>
      <point x="182" y="-11"/>
      <point x="182" y="-11" type="curve"/>
      <point x="182" y="-11"/>
      <point x="295" y="552"/>
      <point x="295" y="552" type="curve"/>
      <point x="295" y="552"/>
      <point x="124" y="552"/>
      <point x="124" y="552" type="curve"/>
      <point x="124" y="552"/>
      <point x="12" y="-11"/>
    </contour>
    <contour>
      <point x="186" y="633" type="curve"/>
      <point x="186" y="633"/>
      <point x="314" y="633"/>
      <point x="314" y="633" type="curve"/>
      <point x="314" y="633"/>
      <point x="232" y="844"/>
      <point x="232" y="844" type="curve"/>
      <point x="232" y="844"/>
      <point x="51" y="844"/>
      <point x="51" y="844" type="curve"/>
      <point x="51" y="844"/>
      <point x="40" y="825"/>
      <point x="40" y="825" type="curve"/>
      <point x="40" y="825"/>
      <point x="186" y="633"/>
    </contour>
  </outline>
</glyph>
<glyph name="cid40729" format="2">
  <advance height="1000" width="307"/>
  <unicode hex="00ED"/>
  <outline>
    <contour>
      <point x="12" y="-11" type="curve"/>
      <point x="12" y="-11"/>
      <point x="182" y="-11"/>
      <point x="182" y="-11" type="curve"/>
      <point x="182" y="-11"/>
      <point x="295" y="552"/>
      <point x="295" y="552" type="curve"/>
      <point x="295" y="552"/>
      <point x="124" y="552"/>
      <point x="124" y="552" type="curve"/>
      <point x="124" y="552"/>
      <point x="12" y="-11"/>
    </contour>
    <contour>
      <point x="113" y="633" type="curve"/>
      <point x="113" y="633"/>
      <point x="252" y="633"/>
      <point x="252" y="633" type="curve"/>
      <point x="252" y="633"/>
      <point x="486" y="825"/>
      <point x="486" y="825" type="curve"/>
      <point x="486" y="825"/>
      <point x="476" y="844"/>
      <point x="476" y="844" type="curve"/>
      <point x="476" y="844"/>
      <point x="284" y="844"/>
      <point x="284" y="844" type="curve"/>
      <point x="284" y="844"/>
      <point x="113" y="633"/>
    </contour>
  </outline>
</glyph>
<glyph name="cid40736" format="2">
  <advance height="1000" width="307"/>
  <unicode hex="00EE"/>
  <outline>
    <contour>
      <point x="12" y="-11" type="curve"/>
      <point x="12" y="-11"/>
      <point x="182" y="-11"/>
      <point x="182" y="-11" type="curve"/>
      <point x="182" y="-11"/>
      <point x="295" y="552"/>
      <point x="295" y="552" type="curve"/>
      <point x="295" y="552"/>
      <point x="124" y="552"/>
      <point x="124" y="552" type="curve"/>
      <point x="124" y="552"/>
      <point x="12" y="-11"/>
    </contour>
    <contour>
      <point x="2" y="633" type="curve"/>
      <point x="2" y="633"/>
      <point x="141" y="633"/>
      <point x="141" y="633" type="curve"/>
      <point x="141" y="633"/>
      <point x="251" y="735"/>
      <point x="251" y="735" type="curve"/>
      <point x="251" y="735"/>
      <point x="255" y="735"/>
      <point x="255" y="735" type="curve"/>
      <point x="255" y="735"/>
      <point x="316" y="633"/>
      <point x="316" y="633" type="curve"/>
      <point x="316" y="633"/>
      <point x="445" y="633"/>
      <point x="445" y="633" type="curve"/>
      <point x="445" y="633"/>
      <point x="353" y="856"/>
      <point x="353" y="856" type="curve"/>
      <point x="353" y="856"/>
      <point x="183" y="856"/>
      <point x="183" y="856" type="curve"/>
      <point x="183" y="856"/>
      <point x="2" y="633"/>
    </contour>
  </outline>
</glyph>
<glyph name="cid41046" format="2">
  <advance height="1000" width="625"/>
  <unicode hex="00F0"/>
  <outline>
    <contour>
      <point x="257" y="-25" type="curve" smooth="yes"/>
      <point x="444" y="-25"/>
      <point x="580" y="145"/>
      <point x="580" y="410" type="curve" smooth="yes"/>
      <point x="580" y="603"/>
      <point x="460" y="742"/>
      <point x="272" y="827" type="curve"/>
      <point x="272" y="827"/>
      <point x="189" y="730"/>
      <point x="189" y="730" type="curve"/>
      <point x="358" y="643"/>
      <point x="411" y="545"/>
      <point x="411" y="394" type="curve" smooth="yes"/>
      <point x="411" y="213"/>
      <point x="351" y="112"/>
      <point x="278" y="112" type="curve" smooth="yes"/>
      <point x="229" y="112"/>
      <point x="201" y="155"/>
      <point x="201" y="210" type="curve" smooth="yes"/>
      <point x="201" y="290"/>
      <point x="242" y="377"/>
      <point x="316" y="377" type="curve" smooth="yes"/>
      <point x="359" y="377"/>
      <point x="392" y="347"/>
      <point x="410" y="314" type="curve"/>
      <point x="410" y="314"/>
      <point x="434" y="403"/>
      <point x="434" y="403" type="curve"/>
      <point x="416" y="473"/>
      <point x="364" y="505"/>
      <point x="302" y="505" type="curve" smooth="yes"/>
      <point x="138" y="505"/>
      <point x="34" y="345"/>
      <point x="34" y="197" type="curve" smooth="yes"/>
      <point x="34" y="59"/>
      <point x="124" y="-25"/>
    </contour>
    <contour>
      <point x="185" y="528" type="curve"/>
      <point x="185" y="528"/>
      <point x="624" y="703"/>
      <point x="624" y="703" type="curve"/>
      <point x="624" y="703"/>
      <point x="590" y="787"/>
      <point x="590" y="787" type="curve"/>
      <point x="590" y="787"/>
      <point x="151" y="612"/>
      <point x="151" y="612" type="curve"/>
      <point x="151" y="612"/>
      <point x="185" y="528"/>
    </contour>
  </outline>
</glyph>
<glyph name="cid40830" format="2">
  <advance height="1000" width="631"/>
  <unicode hex="00F1"/>
  <outline>
    <contour>
      <point x="12" y="-11" type="curve"/>
      <point x="12" y="-11"/>
      <point x="182" y="-11"/>
      <point x="182" y="-11" type="curve"/>
      <point x="182" y="-11"/>
      <point x="253" y="354"/>
      <point x="253" y="354" type="curve"/>
      <point x="297" y="399"/>
      <point x="327" y="421"/>
      <point x="359" y="421" type="curve" smooth="yes"/>
      <point x="392" y="421"/>
      <point x="411" y="404"/>
      <point x="411" y="370" type="curve" smooth="yes"/>
      <point x="411" y="355"/>
      <point x="407" y="339"/>
      <point x="402" y="318" type="curve"/>
      <point x="402" y="318"/>
      <point x="337" y="-11"/>
      <point x="337" y="-11" type="curve"/>
      <point x="337" y="-11"/>
      <point x="506" y="-11"/>
      <point x="506" y="-11" type="curve"/>
      <point x="506" y="-11"/>
      <point x="576" y="339"/>
      <point x="576" y="339" type="curve"/>
      <point x="582" y="366"/>
      <point x="585" y="395"/>
      <point x="585" y="420" type="curve" smooth="yes"/>
      <point x="585" y="516"/>
      <point x="545" y="565"/>
      <point x="452" y="565" type="curve" smooth="yes"/>
      <point x="381" y="565"/>
      <point x="320" y="525"/>
      <point x="267" y="478" type="curve"/>
      <point x="267" y="478"/>
      <point x="262" y="478"/>
      <point x="262" y="478" type="curve"/>
      <point x="262" y="478"/>
      <point x="263" y="552"/>
      <point x="263" y="552" type="curve"/>
      <point x="263" y="552"/>
      <point x="124" y="552"/>
      <point x="124" y="552" type="curve"/>
      <point x="124" y="552"/>
      <point x="12" y="-11"/>
    </contour>
    <contour>
      <point x="490" y="636" type="curve" smooth="yes"/>
      <point x="568" y="636"/>
      <point x="626" y="690"/>
      <point x="645" y="812" type="curve"/>
      <point x="645" y="812"/>
      <point x="534" y="818"/>
      <point x="534" y="818" type="curve"/>
      <point x="528" y="775"/>
      <point x="509" y="762"/>
      <point x="489" y="762" type="curve" smooth="yes"/>
      <point x="444" y="762"/>
      <point x="419" y="829"/>
      <point x="338" y="829" type="curve" smooth="yes"/>
      <point x="261" y="829"/>
      <point x="202" y="775"/>
      <point x="182" y="653" type="curve"/>
      <point x="182" y="653"/>
      <point x="294" y="647"/>
      <point x="294" y="647" type="curve"/>
      <point x="301" y="688"/>
      <point x="320" y="703"/>
      <point x="339" y="703" type="curve" smooth="yes"/>
      <point x="384" y="703"/>
      <point x="409" y="636"/>
    </contour>
  </outline>
</glyph>
<glyph name="cid40854" format="2">
  <advance height="1000" width="605"/>
  <unicode hex="00F5"/>
  <outline>
    <contour>
      <point x="253" y="-25" type="curve" smooth="yes"/>
      <point x="409" y="-25"/>
      <point x="572" y="114"/>
      <point x="572" y="333" type="curve" smooth="yes"/>
      <point x="572" y="473"/>
      <point x="483" y="565"/>
      <point x="349" y="565" type="curve" smooth="yes"/>
      <point x="194" y="565"/>
      <point x="31" y="426"/>
      <point x="31" y="209" type="curve" smooth="yes"/>
      <point x="31" y="69"/>
      <point x="120" y="-25"/>
    </contour>
    <contour>
      <point x="272" y="112" type="curve" smooth="yes"/>
      <point x="226" y="112"/>
      <point x="203" y="151"/>
      <point x="203" y="212" type="curve" smooth="yes"/>
      <point x="203" y="337"/>
      <point x="261" y="430"/>
      <point x="330" y="430" type="curve" smooth="yes"/>
      <point x="376" y="430"/>
      <point x="400" y="391"/>
      <point x="400" y="330" type="curve" smooth="yes"/>
      <point x="400" y="204"/>
      <point x="342" y="112"/>
    </contour>
    <contour>
      <point x="469" y="636" type="curve" smooth="yes"/>
      <point x="547" y="636"/>
      <point x="605" y="690"/>
      <point x="624" y="812" type="curve"/>
      <point x="624" y="812"/>
      <point x="513" y="818"/>
      <point x="513" y="818" type="curve"/>
      <point x="506" y="775"/>
      <point x="487" y="762"/>
      <point x="468" y="762" type="curve" smooth="yes"/>
      <point x="423" y="762"/>
      <point x="398" y="829"/>
      <point x="316" y="829" type="curve" smooth="yes"/>
      <point x="240" y="829"/>
      <point x="181" y="775"/>
      <point x="160" y="653" type="curve"/>
      <point x="160" y="653"/>
      <point x="272" y="647"/>
      <point x="272" y="647" type="curve"/>
      <point x="279" y="688"/>
      <point x="298" y="703"/>
      <point x="318" y="703" type="curve" smooth="yes"/>
      <point x="363" y="703"/>
      <point x="388" y="636"/>
    </contour>
  </outline>
</glyph>
<glyph name="cid40858" format="2">
  <advance height="1000" width="605"/>
  <unicode hex="00F6"/>
  <outline>
    <contour>
      <point x="253" y="-25" type="curve" smooth="yes"/>
      <point x="409" y="-25"/>
      <point x="572" y="114"/>
      <point x="572" y="333" type="curve" smooth="yes"/>
      <point x="572" y="473"/>
      <point x="483" y="565"/>
      <point x="349" y="565" type="curve" smooth="yes"/>
      <point x="194" y="565"/>
      <point x="31" y="426"/>
      <point x="31" y="209" type="curve" smooth="yes"/>
      <point x="31" y="69"/>
      <point x="120" y="-25"/>
    </contour>
    <contour>
      <point x="272" y="112" type="curve" smooth="yes"/>
      <point x="226" y="112"/>
      <point x="203" y="151"/>
      <point x="203" y="212" type="curve" smooth="yes"/>
      <point x="203" y="337"/>
      <point x="261" y="430"/>
      <point x="330" y="430" type="curve" smooth="yes"/>
      <point x="376" y="430"/>
      <point x="400" y="391"/>
      <point x="400" y="330" type="curve" smooth="yes"/>
      <point x="400" y="204"/>
      <point x="342" y="112"/>
    </contour>
    <contour>
      <point x="257" y="632" type="curve" smooth="yes"/>
      <point x="308" y="632"/>
      <point x="348" y="670"/>
      <point x="348" y="720" type="curve" smooth="yes"/>
      <point x="348" y="765"/>
      <point x="316" y="792"/>
      <point x="277" y="792" type="curve" smooth="yes"/>
      <point x="225" y="792"/>
      <point x="185" y="749"/>
      <point x="185" y="703" type="curve" smooth="yes"/>
      <point x="185" y="657"/>
      <point x="217" y="632"/>
    </contour>
    <contour>
      <point x="502" y="632" type="curve" smooth="yes"/>
      <point x="553" y="632"/>
      <point x="592" y="670"/>
      <point x="592" y="720" type="curve" smooth="yes"/>
      <point x="592" y="765"/>
      <point x="560" y="792"/>
      <point x="521" y="792" type="curve" smooth="yes"/>
      <point x="469" y="792"/>
      <point x="429" y="749"/>
      <point x="429" y="703" type="curve" smooth="yes"/>
      <point x="429" y="657"/>
      <point x="461" y="632"/>
    </contour>
  </outline>
</glyph>
<glyph name="cid40886" format="2">
  <advance height="1000" width="605"/>
  <unicode hex="00F8"/>
  <outline>
    <contour>
      <point x="253" y="-25" type="curve" smooth="yes"/>
      <point x="409" y="-25"/>
      <point x="572" y="112"/>
      <point x="572" y="333" type="curve" smooth="yes"/>
      <point x="572" y="481"/>
      <point x="475" y="565"/>
      <point x="349" y="565" type="curve" smooth="yes"/>
      <point x="194" y="565"/>
      <point x="31" y="426"/>
      <point x="31" y="209" type="curve" smooth="yes"/>
      <point x="31" y="60"/>
      <point x="129" y="-25"/>
    </contour>
    <contour>
      <point x="267" y="108" type="curve" smooth="yes"/>
      <point x="214" y="108"/>
      <point x="191" y="152"/>
      <point x="191" y="212" type="curve" smooth="yes"/>
      <point x="191" y="310"/>
      <point x="238" y="433"/>
      <point x="337" y="433" type="curve" smooth="yes"/>
      <point x="385" y="433"/>
      <point x="412" y="389"/>
      <point x="412" y="328" type="curve" smooth="yes"/>
      <point x="412" y="230"/>
      <point x="367" y="108"/>
    </contour>
    <contour>
      <point x="53" y="-42" type="curve"/>
      <point x="53" y="-42"/>
      <point x="609" y="530"/>
      <point x="609" y="530" type="curve"/>
      <point x="609" y="530"/>
      <point x="553" y="581"/>
      <point x="553" y="581" type="curve"/>
      <point x="553" y="581"/>
      <point x="-1" y="12"/>
      <point x="-1" y="12" type="curve"/>
      <point x="-1" y="12"/>
      <point x="53" y="-42"/>
    </contour>
  </outline>
</glyph>
<glyph name="cid40962" format="2">
  <advance height="1000" width="620"/>
  <unicode hex="00F9"/>
  <outline>
    <contour>
      <point x="172" y="-25" type="curve" smooth="yes"/>
      <point x="240" y="-25"/>
      <point x="305" y="16"/>
      <point x="354" y="62" type="curve"/>
      <point x="354" y="62"/>
      <point x="358" y="62"/>
      <point x="358" y="62" type="curve"/>
      <point x="358" y="62"/>
      <point x="357" y="-11"/>
      <point x="357" y="-11" type="curve"/>
      <point x="357" y="-11"/>
      <point x="495" y="-11"/>
      <point x="495" y="-11" type="curve"/>
      <point x="495" y="-11"/>
      <point x="606" y="552"/>
      <point x="606" y="552" type="curve"/>
      <point x="606" y="552"/>
      <point x="436" y="552"/>
      <point x="436" y="552" type="curve"/>
      <point x="436" y="552"/>
      <point x="365" y="188"/>
      <point x="365" y="188" type="curve"/>
      <point x="325" y="142"/>
      <point x="295" y="120"/>
      <point x="264" y="120" type="curve" smooth="yes"/>
      <point x="232" y="120"/>
      <point x="214" y="137"/>
      <point x="214" y="172" type="curve" smooth="yes"/>
      <point x="214" y="186"/>
      <point x="217" y="201"/>
      <point x="223" y="223" type="curve"/>
      <point x="223" y="223"/>
      <point x="288" y="552"/>
      <point x="288" y="552" type="curve"/>
      <point x="288" y="552"/>
      <point x="118" y="552"/>
      <point x="118" y="552" type="curve"/>
      <point x="118" y="552"/>
      <point x="47" y="201"/>
      <point x="47" y="201" type="curve"/>
      <point x="42" y="174"/>
      <point x="38" y="146"/>
      <point x="38" y="121" type="curve" smooth="yes"/>
      <point x="38" y="25"/>
      <point x="79" y="-25"/>
    </contour>
    <contour>
      <point x="334" y="633" type="curve"/>
      <point x="334" y="633"/>
      <point x="462" y="633"/>
      <point x="462" y="633" type="curve"/>
      <point x="462" y="633"/>
      <point x="380" y="844"/>
      <point x="380" y="844" type="curve"/>
      <point x="380" y="844"/>
      <point x="199" y="844"/>
      <point x="199" y="844" type="curve"/>
      <point x="199" y="844"/>
      <point x="188" y="825"/>
      <point x="188" y="825" type="curve"/>
      <point x="188" y="825"/>
      <point x="334" y="633"/>
    </contour>
  </outline>
</glyph>
<glyph name="cid40966" format="2">
  <advance height="1000" width="620"/>
  <unicode hex="00FB"/>
  <outline>
    <contour>
      <point x="172" y="-25" type="curve" smooth="yes"/>
      <point x="240" y="-25"/>
      <point x="305" y="16"/>
      <point x="354" y="62" type="curve"/>
      <point x="354" y="62"/>
      <point x="358" y="62"/>
      <point x="358" y="62" type="curve"/>
      <point x="358" y="62"/>
      <point x="357" y="-11"/>
      <point x="357" y="-11" type="curve"/>
      <point x="357" y="-11"/>
      <point x="495" y="-11"/>
      <point x="495" y="-11" type="curve"/>
      <point x="495" y="-11"/>
      <point x="606" y="552"/>
      <point x="606" y="552" type="curve"/>
      <point x="606" y="552"/>
      <point x="436" y="552"/>
      <point x="436" y="552" type="curve"/>
      <point x="436" y="552"/>
      <point x="365" y="188"/>
      <point x="365" y="188" type="curve"/>
      <point x="325" y="142"/>
      <point x="295" y="120"/>
      <point x="264" y="120" type="curve" smooth="yes"/>
      <point x="232" y="120"/>
      <point x="214" y="137"/>
      <point x="214" y="172" type="curve" smooth="yes"/>
      <point x="214" y="186"/>
      <point x="217" y="201"/>
      <point x="223" y="223" type="curve"/>
      <point x="223" y="223"/>
      <point x="288" y="552"/>
      <point x="288" y="552" type="curve"/>
      <point x="288" y="552"/>
      <point x="118" y="552"/>
      <point x="118" y="552" type="curve"/>
      <point x="118" y="552"/>
      <point x="47" y="201"/>
      <point x="47" y="201" type="curve"/>
      <point x="42" y="174"/>
      <point x="38" y="146"/>
      <point x="38" y="121" type="curve" smooth="yes"/>
      <point x="38" y="25"/>
      <point x="79" y="-25"/>
    </contour>
    <contour>
      <point x="150" y="633" type="curve"/>
      <point x="150" y="633"/>
      <point x="289" y="633"/>
      <point x="289" y="633" type="curve"/>
      <point x="289" y="633"/>
      <point x="399" y="735"/>
      <point x="399" y="735" type="curve"/>
      <point x="399" y="735"/>
      <point x="403" y="735"/>
      <point x="403" y="735" type="curve"/>
      <point x="403" y="735"/>
      <point x="464" y="633"/>
      <point x="464" y="633" type="curve"/>
      <point x="464" y="633"/>
      <point x="593" y="633"/>
      <point x="593" y="633" type="curve"/>
      <point x="593" y="633"/>
      <point x="501" y="856"/>
      <point x="501" y="856" type="curve"/>
      <point x="501" y="856"/>
      <point x="331" y="856"/>
      <point x="331" y="856" type="curve"/>
      <point x="331" y="856"/>
      <point x="150" y="633"/>
    </contour>
  </outline>
</glyph>
<glyph name="cid40971" format="2">
  <advance height="1000" width="620"/>
  <unicode hex="00FC"/>
  <outline>
    <contour>
      <point x="172" y="-25" type="curve" smooth="yes"/>
      <point x="240" y="-25"/>
      <point x="305" y="16"/>
      <point x="354" y="62" type="curve"/>
      <point x="354" y="62"/>
      <point x="358" y="62"/>
      <point x="358" y="62" type="curve"/>
      <point x="358" y="62"/>
      <point x="357" y="-11"/>
      <point x="357" y="-11" type="curve"/>
      <point x="357" y="-11"/>
      <point x="495" y="-11"/>
      <point x="495" y="-11" type="curve"/>
      <point x="495" y="-11"/>
      <point x="606" y="552"/>
      <point x="606" y="552" type="curve"/>
      <point x="606" y="552"/>
      <point x="436" y="552"/>
      <point x="436" y="552" type="curve"/>
      <point x="436" y="552"/>
      <point x="365" y="188"/>
      <point x="365" y="188" type="curve"/>
      <point x="325" y="142"/>
      <point x="295" y="120"/>
      <point x="264" y="120" type="curve" smooth="yes"/>
      <point x="232" y="120"/>
      <point x="214" y="137"/>
      <point x="214" y="172" type="curve" smooth="yes"/>
      <point x="214" y="186"/>
      <point x="217" y="201"/>
      <point x="223" y="223" type="curve"/>
      <point x="223" y="223"/>
      <point x="288" y="552"/>
      <point x="288" y="552" type="curve"/>
      <point x="288" y="552"/>
      <point x="118" y="552"/>
      <point x="118" y="552" type="curve"/>
      <point x="118" y="552"/>
      <point x="47" y="201"/>
      <point x="47" y="201" type="curve"/>
      <point x="42" y="174"/>
      <point x="38" y="146"/>
      <point x="38" y="121" type="curve" smooth="yes"/>
      <point x="38" y="25"/>
      <point x="79" y="-25"/>
    </contour>
    <contour>
      <point x="257" y="632" type="curve" smooth="yes"/>
      <point x="308" y="632"/>
      <point x="348" y="670"/>
      <point x="348" y="720" type="curve" smooth="yes"/>
      <point x="348" y="765"/>
      <point x="316" y="792"/>
      <point x="277" y="792" type="curve" smooth="yes"/>
      <point x="225" y="792"/>
      <point x="185" y="749"/>
      <point x="185" y="703" type="curve" smooth="yes"/>
      <point x="185" y="657"/>
      <point x="217" y="632"/>
    </contour>
    <contour>
      <point x="502" y="632" type="curve" smooth="yes"/>
      <point x="553" y="632"/>
      <point x="592" y="670"/>
      <point x="592" y="720" type="curve" smooth="yes"/>
      <point x="592" y="765"/>
      <point x="560" y="792"/>
      <point x="521" y="792" type="curve" smooth="yes"/>
      <point x="469" y="792"/>
      <point x="429" y="749"/>
      <point x="429" y="703" type="curve" smooth="yes"/>
      <point x="429" y="657"/>
      <point x="461" y="632"/>
    </contour>
  </outline>
</glyph>
<glyph name="cid41026" format="2">
  <advance height="1000" width="576"/>
  <unicode hex="00FF"/>
  <outline>
    <contour>
      <point x="64" y="-226" type="curve" smooth="yes"/>
      <point x="180" y="-226"/>
      <point x="259" y="-165"/>
      <point x="345" y="3" type="curve"/>
      <point x="345" y="3"/>
      <point x="627" y="552"/>
      <point x="627" y="552" type="curve"/>
      <point x="627" y="552"/>
      <point x="454" y="552"/>
      <point x="454" y="552" type="curve"/>
      <point x="454" y="552"/>
      <point x="349" y="313"/>
      <point x="349" y="313" type="curve"/>
      <point x="328" y="266"/>
      <point x="304" y="203"/>
      <point x="281" y="155" type="curve"/>
      <point x="281" y="155"/>
      <point x="277" y="155"/>
      <point x="277" y="155" type="curve"/>
      <point x="277" y="204"/>
      <point x="273" y="267"/>
      <point x="269" y="313" type="curve"/>
      <point x="269" y="313"/>
      <point x="244" y="552"/>
      <point x="244" y="552" type="curve"/>
      <point x="244" y="552"/>
      <point x="70" y="552"/>
      <point x="70" y="552" type="curve"/>
      <point x="70" y="552"/>
      <point x="171" y="-8"/>
      <point x="171" y="-8" type="curve"/>
      <point x="171" y="-8"/>
      <point x="162" y="-25"/>
      <point x="162" y="-25" type="curve"/>
      <point x="139" y="-66"/>
      <point x="99" y="-88"/>
      <point x="62" y="-88" type="curve" smooth="yes"/>
      <point x="45" y="-88"/>
      <point x="32" y="-86"/>
      <point x="17" y="-79" type="curve"/>
      <point x="17" y="-79"/>
      <point x="-32" y="-202"/>
      <point x="-32" y="-202" type="curve"/>
      <point x="-10" y="-218"/>
      <point x="25" y="-226"/>
    </contour>
    <contour>
      <point x="241" y="632" type="curve" smooth="yes"/>
      <point x="293" y="632"/>
      <point x="332" y="670"/>
      <point x="332" y="720" type="curve" smooth="yes"/>
      <point x="332" y="765"/>
      <point x="301" y="792"/>
      <point x="261" y="792" type="curve" smooth="yes"/>
      <point x="209" y="792"/>
      <point x="170" y="749"/>
      <point x="170" y="703" type="curve" smooth="yes"/>
      <point x="170" y="657"/>
      <point x="201" y="632"/>
    </contour>
    <contour>
      <point x="486" y="632" type="curve" smooth="yes"/>
      <point x="537" y="632"/>
      <point x="576" y="670"/>
      <point x="576" y="720" type="curve" smooth="yes"/>
      <point x="576" y="765"/>
      <point x="545" y="792"/>
      <point x="505" y="792" type="curve" smooth="yes"/>
      <point x="453" y="792"/>
      <point x="414" y="749"/>
      <point x="414" y="703" type="curve" smooth="yes"/>
      <point x="414" y="657"/>
      <point x="445" y="632"/>
    </contour>
  </outline>
</glyph>
<glyph name="cid40116" format="2">
  <advance height="1000" width="628"/>
  <unicode hex="0104"/>
  <outline>
    <contour>
      <point x="444" y="-268" type="curve" smooth="yes"/>
      <point x="495" y="-268"/>
      <point x="549" y="-252"/>
      <point x="584" y="-227" type="curve"/>
      <point x="584" y="-227"/>
      <point x="553" y="-138"/>
      <point x="553" y="-138" type="curve"/>
      <point x="542" y="-143"/>
      <point x="530" y="-145"/>
      <point x="519" y="-145" type="curve" smooth="yes"/>
      <point x="497" y="-145"/>
      <point x="479" y="-134"/>
      <point x="479" y="-110" type="curve" smooth="yes"/>
      <point x="479" y="-79"/>
      <point x="507" y="-35"/>
      <point x="589" y="-11" type="curve"/>
      <point x="589" y="-11"/>
      <point x="518" y="725"/>
      <point x="518" y="725" type="curve"/>
      <point x="518" y="725"/>
      <point x="313" y="725"/>
      <point x="313" y="725" type="curve"/>
      <point x="313" y="725"/>
      <point x="-73" y="-11"/>
      <point x="-73" y="-11" type="curve"/>
      <point x="-73" y="-11"/>
      <point x="114" y="-11"/>
      <point x="114" y="-11" type="curve"/>
      <point x="114" y="-11"/>
      <point x="296" y="382"/>
      <point x="296" y="382" type="curve"/>
      <point x="329" y="453"/>
      <point x="355" y="522"/>
      <point x="385" y="596" type="curve"/>
      <point x="385" y="596"/>
      <point x="390" y="596"/>
      <point x="390" y="596" type="curve"/>
      <point x="390" y="520"/>
      <point x="393" y="453"/>
      <point x="396" y="382" type="curve"/>
      <point x="396" y="382"/>
      <point x="410" y="-11"/>
      <point x="410" y="-11" type="curve"/>
      <point x="410" y="-11"/>
      <point x="446" y="-11"/>
      <point x="446" y="-11" type="curve"/>
      <point x="386" y="-47"/>
      <point x="325" y="-110"/>
      <point x="325" y="-171" type="curve" smooth="yes"/>
      <point x="325" y="-232"/>
      <point x="376" y="-268"/>
    </contour>
    <contour>
      <point x="124" y="163" type="curve"/>
      <point x="124" y="163"/>
      <point x="463" y="163"/>
      <point x="463" y="163" type="curve"/>
      <point x="463" y="163"/>
      <point x="494" y="292"/>
      <point x="494" y="292" type="curve"/>
      <point x="494" y="292"/>
      <point x="154" y="292"/>
      <point x="154" y="292" type="curve"/>
      <point x="154" y="292"/>
      <point x="124" y="163"/>
    </contour>
  </outline>
</glyph>
<glyph name="cid40165" format="2">
  <advance height="1000" width="645"/>
  <unicode hex="010A"/>
  <outline>
    <contour>
      <point x="344" y="-25" type="curve" smooth="yes"/>
      <point x="452" y="-25"/>
      <point x="522" y="20"/>
      <point x="572" y="67" type="curve"/>
      <point x="572" y="67"/>
      <point x="502" y="173"/>
      <point x="502" y="173" type="curve"/>
      <point x="467" y="143"/>
      <point x="425" y="122"/>
      <point x="375" y="122" type="curve" smooth="yes"/>
      <point x="280" y="122"/>
      <point x="237" y="188"/>
      <point x="237" y="296" type="curve" smooth="yes"/>
      <point x="237" y="457"/>
      <point x="334" y="591"/>
      <point x="443" y="591" type="curve" smooth="yes"/>
      <point x="489" y="591"/>
      <point x="527" y="575"/>
      <point x="558" y="535" type="curve"/>
      <point x="558" y="535"/>
      <point x="650" y="632"/>
      <point x="650" y="632" type="curve"/>
      <point x="610" y="701"/>
      <point x="539" y="738"/>
      <point x="453" y="738" type="curve" smooth="yes"/>
      <point x="240" y="738"/>
      <point x="63" y="545"/>
      <point x="63" y="286" type="curve" smooth="yes"/>
      <point x="63" y="90"/>
      <point x="176" y="-25"/>
    </contour>
    <contour>
      <point x="480" y="780" type="curve" smooth="yes"/>
      <point x="538" y="780"/>
      <point x="584" y="821"/>
      <point x="584" y="877" type="curve" smooth="yes"/>
      <point x="584" y="929"/>
      <point x="539" y="957"/>
      <point x="494" y="957" type="curve" smooth="yes"/>
      <point x="435" y="957"/>
      <point x="390" y="912"/>
      <point x="390" y="860" type="curve" smooth="yes"/>
      <point x="390" y="806"/>
      <point x="435" y="780"/>
    </contour>
  </outline>
</glyph>
<glyph name="cid40590" format="2">
  <advance height="1000" width="503"/>
  <unicode hex="010B"/>
  <outline>
    <contour>
      <point x="254" y="-25" type="curve" smooth="yes"/>
      <point x="341" y="-25"/>
      <point x="398" y="5"/>
      <point x="444" y="49" type="curve"/>
      <point x="444" y="49"/>
      <point x="374" y="145"/>
      <point x="374" y="145" type="curve"/>
      <point x="353" y="128"/>
      <point x="328" y="112"/>
      <point x="292" y="112" type="curve" smooth="yes"/>
      <point x="236" y="112"/>
      <point x="206" y="151"/>
      <point x="206" y="212" type="curve" smooth="yes"/>
      <point x="206" y="329"/>
      <point x="273" y="430"/>
      <point x="356" y="430" type="curve" smooth="yes"/>
      <point x="386" y="430"/>
      <point x="406" y="417"/>
      <point x="427" y="398" type="curve"/>
      <point x="427" y="398"/>
      <point x="519" y="496"/>
      <point x="519" y="496" type="curve"/>
      <point x="492" y="530"/>
      <point x="437" y="565"/>
      <point x="364" y="565" type="curve" smooth="yes"/>
      <point x="175" y="565"/>
      <point x="31" y="400"/>
      <point x="31" y="209" type="curve" smooth="yes"/>
      <point x="31" y="60"/>
      <point x="129" y="-25"/>
    </contour>
    <contour>
      <point x="362" y="630" type="curve" smooth="yes"/>
      <point x="419" y="630"/>
      <point x="466" y="670"/>
      <point x="466" y="727" type="curve" smooth="yes"/>
      <point x="466" y="779"/>
      <point x="420" y="807"/>
      <point x="375" y="807" type="curve" smooth="yes"/>
      <point x="316" y="807"/>
      <point x="271" y="762"/>
      <point x="271" y="709" type="curve" smooth="yes"/>
      <point x="271" y="656"/>
      <point x="316" y="630"/>
    </contour>
  </outline>
</glyph>
<glyph name="cid40171" format="2">
  <advance height="1000" width="710"/>
  <unicode hex="010E"/>
  <outline>
    <contour>
      <point x="31" y="-11" type="curve"/>
      <point x="31" y="-11"/>
      <point x="273" y="-11"/>
      <point x="273" y="-11" type="curve"/>
      <point x="496" y="-11"/>
      <point x="680" y="144"/>
      <point x="680" y="426" type="curve" smooth="yes"/>
      <point x="680" y="632"/>
      <point x="547" y="725"/>
      <point x="351" y="725" type="curve"/>
      <point x="351" y="725"/>
      <point x="177" y="725"/>
      <point x="177" y="725" type="curve"/>
      <point x="177" y="725"/>
      <point x="31" y="-11"/>
    </contour>
    <contour>
      <point x="228" y="126" type="curve"/>
      <point x="228" y="126"/>
      <point x="320" y="588"/>
      <point x="320" y="588" type="curve"/>
      <point x="320" y="588"/>
      <point x="347" y="588"/>
      <point x="347" y="588" type="curve"/>
      <point x="429" y="588"/>
      <point x="505" y="543"/>
      <point x="505" y="416" type="curve" smooth="yes"/>
      <point x="505" y="215"/>
      <point x="389" y="126"/>
      <point x="270" y="126" type="curve"/>
      <point x="270" y="126"/>
      <point x="228" y="126"/>
    </contour>
    <contour>
      <point x="365" y="781" type="curve"/>
      <point x="365" y="781"/>
      <point x="524" y="781"/>
      <point x="524" y="781" type="curve"/>
      <point x="524" y="781"/>
      <point x="694" y="959"/>
      <point x="694" y="959" type="curve"/>
      <point x="694" y="959"/>
      <point x="555" y="959"/>
      <point x="555" y="959" type="curve"/>
      <point x="555" y="959"/>
      <point x="458" y="891"/>
      <point x="458" y="891" type="curve"/>
      <point x="458" y="891"/>
      <point x="453" y="891"/>
      <point x="453" y="891" type="curve"/>
      <point x="453" y="891"/>
      <point x="390" y="959"/>
      <point x="390" y="959" type="curve"/>
      <point x="390" y="959"/>
      <point x="251" y="959"/>
      <point x="251" y="959" type="curve"/>
      <point x="251" y="959"/>
      <point x="365" y="781"/>
    </contour>
  </outline>
</glyph>
<glyph name="cid40178" format="2">
  <advance height="1000" width="732"/>
  <unicode hex="0110"/>
  <outline>
    <contour>
      <point x="35" y="316" type="curve"/>
      <point x="35" y="316"/>
      <point x="431" y="316"/>
      <point x="431" y="316" type="curve"/>
      <point x="431" y="316"/>
      <point x="451" y="421"/>
      <point x="451" y="421" type="curve"/>
      <point x="451" y="421"/>
      <point x="141" y="421"/>
      <point x="141" y="421" type="curve"/>
      <point x="141" y="421"/>
      <point x="55" y="414"/>
      <point x="55" y="414" type="curve"/>
      <point x="55" y="414"/>
      <point x="35" y="316"/>
    </contour>
    <contour>
      <point x="53" y="-11" type="curve"/>
      <point x="53" y="-11"/>
      <point x="296" y="-11"/>
      <point x="296" y="-11" type="curve"/>
      <point x="519" y="-11"/>
      <point x="703" y="144"/>
      <point x="703" y="426" type="curve" smooth="yes"/>
      <point x="703" y="632"/>
      <point x="570" y="725"/>
      <point x="374" y="725" type="curve"/>
      <point x="374" y="725"/>
      <point x="200" y="725"/>
      <point x="200" y="725" type="curve"/>
      <point x="200" y="725"/>
      <point x="53" y="-11"/>
    </contour>
    <contour>
      <point x="251" y="126" type="curve"/>
      <point x="251" y="126"/>
      <point x="342" y="588"/>
      <point x="342" y="588" type="curve"/>
      <point x="342" y="588"/>
      <point x="370" y="588"/>
      <point x="370" y="588" type="curve"/>
      <point x="452" y="588"/>
      <point x="528" y="543"/>
      <point x="528" y="416" type="curve" smooth="yes"/>
      <point x="528" y="215"/>
      <point x="411" y="126"/>
      <point x="293" y="126" type="curve"/>
      <point x="293" y="126"/>
      <point x="251" y="126"/>
    </contour>
  </outline>
</glyph>
<glyph name="cid40601" format="2">
  <advance height="1000" width="629"/>
  <unicode hex="0111"/>
  <outline>
    <contour>
      <point x="191" y="-25" type="curve" smooth="yes"/>
      <point x="247" y="-25"/>
      <point x="313" y="8"/>
      <point x="363" y="60" type="curve"/>
      <point x="363" y="60"/>
      <point x="366" y="60"/>
      <point x="366" y="60" type="curve"/>
      <point x="366" y="60"/>
      <point x="365" y="-11"/>
      <point x="365" y="-11" type="curve"/>
      <point x="365" y="-11"/>
      <point x="503" y="-11"/>
      <point x="503" y="-11" type="curve"/>
      <point x="503" y="-11"/>
      <point x="662" y="778"/>
      <point x="662" y="778" type="curve"/>
      <point x="662" y="778"/>
      <point x="492" y="778"/>
      <point x="492" y="778" type="curve"/>
      <point x="492" y="778"/>
      <point x="447" y="551"/>
      <point x="447" y="551" type="curve"/>
      <point x="447" y="551"/>
      <point x="436" y="444"/>
      <point x="436" y="444" type="curve"/>
      <point x="436" y="444"/>
      <point x="433" y="444"/>
      <point x="433" y="444" type="curve"/>
      <point x="412" y="484"/>
      <point x="367" y="510"/>
      <point x="314" y="510" type="curve" smooth="yes"/>
      <point x="172" y="510"/>
      <point x="33" y="363"/>
      <point x="33" y="182" type="curve" smooth="yes"/>
      <point x="33" y="50"/>
      <point x="93" y="-25"/>
    </contour>
    <contour>
      <point x="267" y="113" type="curve" smooth="yes"/>
      <point x="232" y="113"/>
      <point x="209" y="142"/>
      <point x="209" y="204" type="curve" smooth="yes"/>
      <point x="209" y="299"/>
      <point x="269" y="371"/>
      <point x="327" y="371" type="curve" smooth="yes"/>
      <point x="360" y="371"/>
      <point x="389" y="354"/>
      <point x="401" y="323" type="curve"/>
      <point x="401" y="323"/>
      <point x="375" y="192"/>
      <point x="375" y="192" type="curve"/>
      <point x="340" y="130"/>
      <point x="299" y="113"/>
    </contour>
    <contour>
      <point x="275" y="583" type="curve"/>
      <point x="275" y="583"/>
      <point x="619" y="583"/>
      <point x="619" y="583" type="curve"/>
      <point x="619" y="583"/>
      <point x="703" y="589"/>
      <point x="703" y="589" type="curve"/>
      <point x="703" y="589"/>
      <point x="727" y="695"/>
      <point x="727" y="695" type="curve"/>
      <point x="727" y="695"/>
      <point x="299" y="695"/>
      <point x="299" y="695" type="curve"/>
      <point x="299" y="695"/>
      <point x="275" y="583"/>
    </contour>
  </outline>
</glyph>
<glyph name="cid40191" format="2">
  <advance height="1000" width="599"/>
  <unicode hex="0114"/>
  <outline>
    <contour>
      <point x="31" y="-11" type="curve"/>
      <point x="31" y="-11"/>
      <point x="485" y="-11"/>
      <point x="485" y="-11" type="curve"/>
      <point x="485" y="-11"/>
      <point x="513" y="131"/>
      <point x="513" y="131" type="curve"/>
      <point x="513" y="131"/>
      <point x="228" y="131"/>
      <point x="228" y="131" type="curve"/>
      <point x="228" y="131"/>
      <point x="263" y="297"/>
      <point x="263" y="297" type="curve"/>
      <point x="263" y="297"/>
      <point x="496" y="297"/>
      <point x="496" y="297" type="curve"/>
      <point x="496" y="297"/>
      <point x="524" y="440"/>
      <point x="524" y="440" type="curve"/>
      <point x="524" y="440"/>
      <point x="290" y="440"/>
      <point x="290" y="440" type="curve"/>
      <point x="290" y="440"/>
      <point x="318" y="581"/>
      <point x="318" y="581" type="curve"/>
      <point x="318" y="581"/>
      <point x="593" y="581"/>
      <point x="593" y="581" type="curve"/>
      <point x="593" y="581"/>
      <point x="620" y="725"/>
      <point x="620" y="725" type="curve"/>
      <point x="620" y="725"/>
      <point x="177" y="725"/>
      <point x="177" y="725" type="curve"/>
      <point x="177" y="725"/>
      <point x="31" y="-11"/>
    </contour>
    <contour>
      <point x="412" y="774" type="curve" smooth="yes"/>
      <point x="527" y="774"/>
      <point x="600" y="826"/>
      <point x="628" y="931" type="curve"/>
      <point x="628" y="931"/>
      <point x="534" y="948"/>
      <point x="534" y="948" type="curve"/>
      <point x="516" y="902"/>
      <point x="479" y="879"/>
      <point x="432" y="879" type="curve" smooth="yes"/>
      <point x="383" y="879"/>
      <point x="356" y="900"/>
      <point x="351" y="948" type="curve"/>
      <point x="351" y="948"/>
      <point x="251" y="931"/>
      <point x="251" y="931" type="curve"/>
      <point x="251" y="843"/>
      <point x="293" y="774"/>
    </contour>
  </outline>
</glyph>
<glyph name="cid40192" format="2">
  <advance height="1000" width="599"/>
  <unicode hex="0116"/>
  <outline>
    <contour>
      <point x="31" y="-11" type="curve"/>
      <point x="31" y="-11"/>
      <point x="485" y="-11"/>
      <point x="485" y="-11" type="curve"/>
      <point x="485" y="-11"/>
      <point x="513" y="131"/>
      <point x="513" y="131" type="curve"/>
      <point x="513" y="131"/>
      <point x="228" y="131"/>
      <point x="228" y="131" type="curve"/>
      <point x="228" y="131"/>
      <point x="263" y="297"/>
      <point x="263" y="297" type="curve"/>
      <point x="263" y="297"/>
      <point x="496" y="297"/>
      <point x="496" y="297" type="curve"/>
      <point x="496" y="297"/>
      <point x="524" y="440"/>
      <point x="524" y="440" type="curve"/>
      <point x="524" y="440"/>
      <point x="290" y="440"/>
      <point x="290" y="440" type="curve"/>
      <point x="290" y="440"/>
      <point x="318" y="581"/>
      <point x="318" y="581" type="curve"/>
      <point x="318" y="581"/>
      <point x="593" y="581"/>
      <point x="593" y="581" type="curve"/>
      <point x="593" y="581"/>
      <point x="620" y="725"/>
      <point x="620" y="725" type="curve"/>
      <point x="620" y="725"/>
      <point x="177" y="725"/>
      <point x="177" y="725" type="curve"/>
      <point x="177" y="725"/>
      <point x="31" y="-11"/>
    </contour>
    <contour>
      <point x="424" y="780" type="curve" smooth="yes"/>
      <point x="481" y="780"/>
      <point x="528" y="821"/>
      <point x="528" y="877" type="curve" smooth="yes"/>
      <point x="528" y="929"/>
      <point x="483" y="957"/>
      <point x="437" y="957" type="curve" smooth="yes"/>
      <point x="379" y="957"/>
      <point x="333" y="912"/>
      <point x="333" y="860" type="curve" smooth="yes"/>
      <point x="333" y="806"/>
      <point x="379" y="780"/>
    </contour>
  </outline>
</glyph>
<glyph name="cid40196" format="2">
  <advance height="1000" width="599"/>
  <unicode hex="0118"/>
  <outline>
    <contour>
      <point x="350" y="-268" type="curve" smooth="yes"/>
      <point x="401" y="-268"/>
      <point x="455" y="-252"/>
      <point x="490" y="-227" type="curve"/>
      <point x="490" y="-227"/>
      <point x="458" y="-138"/>
      <point x="458" y="-138" type="curve"/>
      <point x="447" y="-143"/>
      <point x="436" y="-145"/>
      <point x="424" y="-145" type="curve" smooth="yes"/>
      <point x="403" y="-145"/>
      <point x="384" y="-134"/>
      <point x="384" y="-110" type="curve" smooth="yes"/>
      <point x="384" y="-77"/>
      <point x="428" y="-21"/>
      <point x="485" y="-11" type="curve"/>
      <point x="485" y="-11"/>
      <point x="513" y="131"/>
      <point x="513" y="131" type="curve"/>
      <point x="513" y="131"/>
      <point x="228" y="131"/>
      <point x="228" y="131" type="curve"/>
      <point x="228" y="131"/>
      <point x="263" y="297"/>
      <point x="263" y="297" type="curve"/>
      <point x="263" y="297"/>
      <point x="496" y="297"/>
      <point x="496" y="297" type="curve"/>
      <point x="496" y="297"/>
      <point x="524" y="440"/>
      <point x="524" y="440" type="curve"/>
      <point x="524" y="440"/>
      <point x="290" y="440"/>
      <point x="290" y="440" type="curve"/>
      <point x="290" y="440"/>
      <point x="318" y="581"/>
      <point x="318" y="581" type="curve"/>
      <point x="318" y="581"/>
      <point x="593" y="581"/>
      <point x="593" y="581" type="curve"/>
      <point x="593" y="581"/>
      <point x="620" y="725"/>
      <point x="620" y="725" type="curve"/>
      <point x="620" y="725"/>
      <point x="177" y="725"/>
      <point x="177" y="725" type="curve"/>
      <point x="177" y="725"/>
      <point x="31" y="-11"/>
      <point x="31" y="-11" type="curve"/>
      <point x="31" y="-11"/>
      <point x="351" y="-11"/>
      <point x="351" y="-11" type="curve"/>
      <point x="292" y="-47"/>
      <point x="231" y="-110"/>
      <point x="231" y="-171" type="curve" smooth="yes"/>
      <point x="231" y="-232"/>
      <point x="281" y="-268"/>
    </contour>
  </outline>
</glyph>
<glyph name="cid40193" format="2">
  <advance height="1000" width="599"/>
  <unicode hex="011A"/>
  <outline>
    <contour>
      <point x="31" y="-11" type="curve"/>
      <point x="31" y="-11"/>
      <point x="485" y="-11"/>
      <point x="485" y="-11" type="curve"/>
      <point x="485" y="-11"/>
      <point x="513" y="131"/>
      <point x="513" y="131" type="curve"/>
      <point x="513" y="131"/>
      <point x="228" y="131"/>
      <point x="228" y="131" type="curve"/>
      <point x="228" y="131"/>
      <point x="263" y="297"/>
      <point x="263" y="297" type="curve"/>
      <point x="263" y="297"/>
      <point x="496" y="297"/>
      <point x="496" y="297" type="curve"/>
      <point x="496" y="297"/>
      <point x="524" y="440"/>
      <point x="524" y="440" type="curve"/>
      <point x="524" y="440"/>
      <point x="290" y="440"/>
      <point x="290" y="440" type="curve"/>
      <point x="290" y="440"/>
      <point x="318" y="581"/>
      <point x="318" y="581" type="curve"/>
      <point x="318" y="581"/>
      <point x="593" y="581"/>
      <point x="593" y="581" type="curve"/>
      <point x="593" y="581"/>
      <point x="620" y="725"/>
      <point x="620" y="725" type="curve"/>
      <point x="620" y="725"/>
      <point x="177" y="725"/>
      <point x="177" y="725" type="curve"/>
      <point x="177" y="725"/>
      <point x="31" y="-11"/>
    </contour>
    <contour>
      <point x="332" y="781" type="curve"/>
      <point x="332" y="781"/>
      <point x="492" y="781"/>
      <point x="492" y="781" type="curve"/>
      <point x="492" y="781"/>
      <point x="661" y="959"/>
      <point x="661" y="959" type="curve"/>
      <point x="661" y="959"/>
      <point x="522" y="959"/>
      <point x="522" y="959" type="curve"/>
      <point x="522" y="959"/>
      <point x="425" y="891"/>
      <point x="425" y="891" type="curve"/>
      <point x="425" y="891"/>
      <point x="420" y="891"/>
      <point x="420" y="891" type="curve"/>
      <point x="420" y="891"/>
      <point x="357" y="959"/>
      <point x="357" y="959" type="curve"/>
      <point x="357" y="959"/>
      <point x="218" y="959"/>
      <point x="218" y="959" type="curve"/>
      <point x="218" y="959"/>
      <point x="332" y="781"/>
    </contour>
  </outline>
</glyph>
<glyph name="cid40226" format="2">
  <advance height="1000" width="696"/>
  <unicode hex="0122"/>
  <outline>
    <contour>
      <point x="359" y="-25" type="curve" smooth="yes"/>
      <point x="453" y="-25"/>
      <point x="537" y="9"/>
      <point x="593" y="52" type="curve"/>
      <point x="593" y="52"/>
      <point x="662" y="412"/>
      <point x="662" y="412" type="curve"/>
      <point x="662" y="412"/>
      <point x="400" y="412"/>
      <point x="400" y="412" type="curve"/>
      <point x="400" y="412"/>
      <point x="374" y="273"/>
      <point x="374" y="273" type="curve"/>
      <point x="374" y="273"/>
      <point x="488" y="273"/>
      <point x="488" y="273" type="curve"/>
      <point x="488" y="273"/>
      <point x="459" y="142"/>
      <point x="459" y="142" type="curve"/>
      <point x="441" y="128"/>
      <point x="414" y="120"/>
      <point x="389" y="120" type="curve" smooth="yes"/>
      <point x="280" y="120"/>
      <point x="237" y="188"/>
      <point x="237" y="296" type="curve" smooth="yes"/>
      <point x="237" y="458"/>
      <point x="334" y="591"/>
      <point x="455" y="591" type="curve" smooth="yes"/>
      <point x="503" y="591"/>
      <point x="547" y="573"/>
      <point x="577" y="530" type="curve"/>
      <point x="577" y="530"/>
      <point x="672" y="632"/>
      <point x="672" y="632" type="curve"/>
      <point x="631" y="701"/>
      <point x="555" y="738"/>
      <point x="464" y="738" type="curve" smooth="yes"/>
      <point x="238" y="738"/>
      <point x="63" y="545"/>
      <point x="63" y="286" type="curve" smooth="yes"/>
      <point x="63" y="90"/>
      <point x="176" y="-25"/>
    </contour>
    <contour>
      <point x="177" y="-283" type="curve"/>
      <point x="322" y="-279"/>
      <point x="431" y="-240"/>
      <point x="431" y="-150" type="curve" smooth="yes"/>
      <point x="431" y="-106"/>
      <point x="405" y="-72"/>
      <point x="283" y="-67" type="curve"/>
      <point x="283" y="-67"/>
      <point x="235" y="-132"/>
      <point x="235" y="-132" type="curve"/>
      <point x="284" y="-133"/>
      <point x="297" y="-150"/>
      <point x="297" y="-166" type="curve" smooth="yes"/>
      <point x="297" y="-191"/>
      <point x="264" y="-208"/>
      <point x="177" y="-212" type="curve"/>
      <point x="177" y="-212"/>
      <point x="177" y="-283"/>
    </contour>
  </outline>
</glyph>
<glyph name="cid40685" format="2">
  <advance height="1000" width="622"/>
  <unicode hex="0123"/>
  <outline>
    <contour>
      <point x="202" y="-236" type="curve" smooth="yes"/>
      <point x="360" y="-236"/>
      <point x="467" y="-160"/>
      <point x="499" y="6" type="curve"/>
      <point x="499" y="6"/>
      <point x="609" y="552"/>
      <point x="609" y="552" type="curve"/>
      <point x="609" y="552"/>
      <point x="470" y="552"/>
      <point x="470" y="552" type="curve"/>
      <point x="470" y="552"/>
      <point x="446" y="494"/>
      <point x="446" y="494" type="curve"/>
      <point x="446" y="494"/>
      <point x="444" y="494"/>
      <point x="444" y="494" type="curve"/>
      <point x="423" y="538"/>
      <point x="375" y="565"/>
      <point x="327" y="565" type="curve" smooth="yes"/>
      <point x="172" y="565"/>
      <point x="33" y="407"/>
      <point x="33" y="206" type="curve" smooth="yes"/>
      <point x="33" y="74"/>
      <point x="103" y="9"/>
      <point x="198" y="9" type="curve" smooth="yes"/>
      <point x="258" y="9"/>
      <point x="316" y="38"/>
      <point x="365" y="88" type="curve"/>
      <point x="365" y="88"/>
      <point x="336" y="-8"/>
      <point x="336" y="-8" type="curve"/>
      <point x="318" y="-69"/>
      <point x="271" y="-101"/>
      <point x="207" y="-101" type="curve" smooth="yes"/>
      <point x="156" y="-101"/>
      <point x="107" y="-81"/>
      <point x="64" y="-51" type="curve"/>
      <point x="64" y="-51"/>
      <point x="-6" y="-157"/>
      <point x="-6" y="-157" type="curve"/>
      <point x="60" y="-217"/>
      <point x="138" y="-236"/>
    </contour>
    <contour>
      <point x="264" y="148" type="curve" smooth="yes"/>
      <point x="232" y="148"/>
      <point x="209" y="173"/>
      <point x="209" y="227" type="curve" smooth="yes"/>
      <point x="209" y="344"/>
      <point x="269" y="427"/>
      <point x="339" y="427" type="curve" smooth="yes"/>
      <point x="362" y="427"/>
      <point x="388" y="413"/>
      <point x="403" y="380" type="curve"/>
      <point x="403" y="380"/>
      <point x="372" y="215"/>
      <point x="372" y="215" type="curve"/>
      <point x="340" y="162"/>
      <point x="298" y="148"/>
    </contour>
    <contour>
      <point x="410" y="630" type="curve"/>
      <point x="410" y="630"/>
      <point x="458" y="695"/>
      <point x="458" y="695" type="curve"/>
      <point x="408" y="695"/>
      <point x="396" y="713"/>
      <point x="396" y="728" type="curve" smooth="yes"/>
      <point x="396" y="754"/>
      <point x="428" y="770"/>
      <point x="515" y="774" type="curve"/>
      <point x="515" y="774"/>
      <point x="519" y="846"/>
      <point x="519" y="846" type="curve"/>
      <point x="372" y="841"/>
      <point x="261" y="803"/>
      <point x="261" y="712" type="curve" smooth="yes"/>
      <point x="261" y="669"/>
      <point x="288" y="635"/>
    </contour>
  </outline>
</glyph>
<glyph name="cid40232" format="2">
  <advance height="1000" width="745"/>
  <unicode hex="0124"/>
  <outline>
    <contour>
      <point x="31" y="-11" type="curve"/>
      <point x="31" y="-11"/>
      <point x="201" y="-11"/>
      <point x="201" y="-11" type="curve"/>
      <point x="201" y="-11"/>
      <point x="261" y="295"/>
      <point x="261" y="295" type="curve"/>
      <point x="261" y="295"/>
      <point x="493" y="295"/>
      <point x="493" y="295" type="curve"/>
      <point x="493" y="295"/>
      <point x="431" y="-11"/>
      <point x="431" y="-11" type="curve"/>
      <point x="431" y="-11"/>
      <point x="601" y="-11"/>
      <point x="601" y="-11" type="curve"/>
      <point x="601" y="-11"/>
      <point x="748" y="725"/>
      <point x="748" y="725" type="curve"/>
      <point x="748" y="725"/>
      <point x="579" y="725"/>
      <point x="579" y="725" type="curve"/>
      <point x="579" y="725"/>
      <point x="523" y="444"/>
      <point x="523" y="444" type="curve"/>
      <point x="523" y="444"/>
      <point x="290" y="444"/>
      <point x="290" y="444" type="curve"/>
      <point x="290" y="444"/>
      <point x="348" y="725"/>
      <point x="348" y="725" type="curve"/>
      <point x="348" y="725"/>
      <point x="177" y="725"/>
      <point x="177" y="725" type="curve"/>
      <point x="177" y="725"/>
      <point x="31" y="-11"/>
    </contour>
    <contour>
      <point x="251" y="781" type="curve"/>
      <point x="251" y="781"/>
      <point x="390" y="781"/>
      <point x="390" y="781" type="curve"/>
      <point x="390" y="781"/>
      <point x="486" y="849"/>
      <point x="486" y="849" type="curve"/>
      <point x="486" y="849"/>
      <point x="490" y="849"/>
      <point x="490" y="849" type="curve"/>
      <point x="490" y="849"/>
      <point x="555" y="781"/>
      <point x="555" y="781" type="curve"/>
      <point x="555" y="781"/>
      <point x="694" y="781"/>
      <point x="694" y="781" type="curve"/>
      <point x="694" y="781"/>
      <point x="580" y="959"/>
      <point x="580" y="959" type="curve"/>
      <point x="580" y="959"/>
      <point x="420" y="959"/>
      <point x="420" y="959" type="curve"/>
      <point x="420" y="959"/>
      <point x="251" y="781"/>
    </contour>
  </outline>
</glyph>
<glyph name="cid40247" format="2">
  <advance height="1000" width="790"/>
  <unicode hex="0126"/>
  <outline>
    <contour>
      <point x="76" y="526" type="curve"/>
      <point x="76" y="526"/>
      <point x="812" y="526"/>
      <point x="812" y="526" type="curve"/>
      <point x="812" y="526"/>
      <point x="834" y="636"/>
      <point x="834" y="636" type="curve"/>
      <point x="834" y="636"/>
      <point x="183" y="636"/>
      <point x="183" y="636" type="curve"/>
      <point x="183" y="636"/>
      <point x="97" y="630"/>
      <point x="97" y="630" type="curve"/>
      <point x="97" y="630"/>
      <point x="76" y="526"/>
    </contour>
    <contour>
      <point x="53" y="-11" type="curve"/>
      <point x="53" y="-11"/>
      <point x="224" y="-11"/>
      <point x="224" y="-11" type="curve"/>
      <point x="224" y="-11"/>
      <point x="284" y="295"/>
      <point x="284" y="295" type="curve"/>
      <point x="284" y="295"/>
      <point x="515" y="295"/>
      <point x="515" y="295" type="curve"/>
      <point x="515" y="295"/>
      <point x="453" y="-11"/>
      <point x="453" y="-11" type="curve"/>
      <point x="453" y="-11"/>
      <point x="624" y="-11"/>
      <point x="624" y="-11" type="curve"/>
      <point x="624" y="-11"/>
      <point x="771" y="725"/>
      <point x="771" y="725" type="curve"/>
      <point x="771" y="725"/>
      <point x="601" y="725"/>
      <point x="601" y="725" type="curve"/>
      <point x="601" y="725"/>
      <point x="546" y="444"/>
      <point x="546" y="444" type="curve"/>
      <point x="546" y="444"/>
      <point x="313" y="444"/>
      <point x="313" y="444" type="curve"/>
      <point x="313" y="444"/>
      <point x="371" y="725"/>
      <point x="371" y="725" type="curve"/>
      <point x="371" y="725"/>
      <point x="200" y="725"/>
      <point x="200" y="725" type="curve"/>
      <point x="200" y="725"/>
      <point x="53" y="-11"/>
    </contour>
  </outline>
</glyph>
